<svg width="329" height="328" viewBox="0 0 329 328" fill="none" xmlns="http://www.w3.org/2000/svg">
<path d="M80.4046 126.274L93.0251 112.399L104.86 128.258L124.664 121.709L136.499 137.568L158.985 112.557L175.436 129.086L189.954 126.482L197.173 141.671L213.032 129.836L219.58 149.64L205.655 180.608L151.529 196.309L102.099 179.7L78.4287 147.983L80.4046 126.274Z" fill="#89B7C3"/>
<path d="M196.694 64.5562C196.487 63.2301 196.289 61.9018 195.982 60.575C189.725 33.5716 164.897 15.7643 138.12 17.3965C143.249 14.9634 146.812 12.9455 141.564 11.6815C135.91 10.32 131.567 14.6154 128.828 18.6829L128.819 18.685C124.57 16.2367 118.785 14.288 114.302 17.9984C110.144 21.4417 114.232 21.6866 119.907 21.6116C95.1453 31.9214 80.6746 58.8345 86.9324 85.8424C87.2399 87.1692 87.6465 88.449 88.0452 89.7355C92.8036 120.232 76.5531 170.375 159.517 151.152C242.481 131.929 205.833 94.042 196.694 64.5562Z" fill="#FFB511"/>
<path d="M155.249 70.7499C156.993 78.2789 151.252 81.2513 143.723 82.9958C136.194 84.7403 129.731 84.5957 127.986 77.0667C126.242 69.5378 130.93 62.0216 138.459 60.2771C145.988 58.5326 153.504 63.2209 155.249 70.7499Z" fill="#E74536"/>
<path d="M206.996 171.377L193.82 164.749L171.333 189.761L160.839 164.671L150.267 172.561L133.146 160.647L116.616 177.097L106.793 147.392L91.6049 154.611L81.6085 116.561C78.5944 122.481 76.4848 128.924 75.4896 135.774C70.1183 172.74 98.8316 207.505 139.615 213.431C180.399 219.357 217.819 194.201 223.19 157.234C224.024 151.492 223.948 145.826 223.216 140.285L206.996 171.377Z" fill="#F9F7F3"/>
<path fill-rule="evenodd" clip-rule="evenodd" d="M114.808 72.2894C116.245 72.8881 118.167 72.2961 117.816 70.7799C116.839 66.5648 112.63 63.9395 108.415 64.9162C104.2 65.8928 101.575 70.1016 102.552 74.3167C102.903 75.8328 104.89 75.519 105.917 74.3495C106.96 73.1608 108.373 72.276 110.032 71.8917C111.69 71.5074 113.348 71.6808 114.808 72.2894Z" fill="#0F1941"/>
<path fill-rule="evenodd" clip-rule="evenodd" d="M173.875 58.6034C175.312 59.2021 177.235 58.61 176.883 57.0934C175.907 52.8783 171.698 50.253 167.483 51.2296C163.268 52.2063 160.643 56.4151 161.619 60.6302C161.971 62.1467 163.958 61.8328 164.985 60.6632C166.029 59.4749 167.441 58.5904 169.099 58.2062C170.758 57.822 172.415 57.9952 173.875 58.6034Z" fill="#0F1941"/>
<path d="M182.905 82.4776L210.164 21.4966C219.997 27.8261 222.907 59.528 215.049 74.4775C209.104 85.787 195.964 86.8472 182.905 82.4776Z" fill="#FFB511"/>
<path d="M211.716 178.806C219.88 201.918 202.748 222.848 191.229 216.213C179.711 209.577 173.075 221.096 184.594 227.731C196.113 234.367 223.972 233.755 241.498 222.159C246.456 218.878 250.575 219.717 250.575 219.717L211.716 178.806Z" fill="#0F1941"/>
<path d="M277.623 192.227C261.072 210.306 268.655 236.269 281.851 234.666C295.047 233.063 296.65 246.259 283.454 247.862C270.258 249.465 244.856 238.008 233.26 220.482C229.98 215.524 225.861 214.685 225.861 214.685L277.623 192.227Z" fill="#0F1941"/>
<path d="M291.518 212.216C274.967 230.295 282.55 256.258 295.747 254.655C308.943 253.052 310.546 266.248 297.349 267.851C284.153 269.454 258.752 257.997 247.155 240.471C243.875 235.513 239.756 234.674 239.756 234.674L291.518 212.216ZM191.11 191.77C199.274 214.882 182.142 235.812 170.623 229.177C159.104 222.541 152.469 234.06 163.988 240.696C175.506 247.331 203.366 246.719 220.892 235.123C225.85 231.842 229.969 232.681 229.969 232.681L191.11 191.77Z" fill="#144682"/>
<path d="M290.98 278.064C278.975 279.523 269.233 249.501 280.031 230.455C289.531 218.478 296.591 204.411 299.057 192.301C305.079 162.725 284.31 142.109 254.734 136.086C225.159 130.064 197.981 140.918 191.959 170.493C189.493 182.604 190.49 198.31 194.55 213.049C197.041 234.8 176.334 258.623 165.856 252.586C154.338 245.95 146.863 261.588 158.382 268.224C169.901 274.859 193.138 272.611 211.167 261.812C221.861 255.41 230.1 257.087 230.1 257.087C230.1 257.087 238.338 258.765 245.673 268.838C258.044 285.827 278.552 296.983 291.748 295.38C304.944 293.777 304.176 276.461 290.98 278.064Z" fill="#2175D9"/>
<path fill-rule="evenodd" clip-rule="evenodd" d="M225.148 225.206C226.447 226.608 228.898 226.928 229.279 225.054C230.339 219.847 226.978 214.766 221.77 213.706C216.563 212.645 211.482 216.007 210.421 221.214C210.04 223.088 212.42 223.752 214.165 222.969C215.938 222.174 217.967 221.907 220.016 222.324C222.064 222.741 223.827 223.781 225.148 225.206Z" fill="#0F1941"/>
<path fill-rule="evenodd" clip-rule="evenodd" d="M258.102 231.915C259.402 233.317 261.851 233.637 262.233 231.764C263.293 226.557 259.931 221.476 254.724 220.416C249.517 219.355 244.436 222.717 243.375 227.924C242.994 229.798 245.374 230.461 247.118 229.679C248.891 228.883 250.92 228.616 252.969 229.033C255.019 229.45 256.782 230.49 258.102 231.915Z" fill="#0F1941"/>
<path d="M28.1762 104.417C32.2498 100.316 29.1946 88.0151 22.3183 88.0151C15.442 88.0151 15.9552 96.2159 20.0289 96.2159C24.1025 96.2159 24.1025 104.417 24.1025 108.517C24.1025 112.617 28.1762 104.417 28.1762 104.417ZM11.1361 111.469C15.2098 107.369 12.1545 95.0678 5.27821 95.0678C-1.59812 95.0678 -1.08484 103.269 2.98881 103.269C7.06246 103.269 7.06246 111.469 7.06246 115.57C7.06246 119.67 11.1361 111.469 11.1361 111.469Z" fill="#A56305"/>
<path d="M118.579 222.737C119.349 226.05 123.577 232.086 126.857 231.311C130.14 230.532 131.244 223.229 130.474 219.925C129.704 216.611 126.408 214.565 123.125 215.344C119.846 216.123 117.805 219.432 118.579 222.737ZM96.4427 225.399C96.4549 228.802 99.2168 235.641 102.59 235.629C105.963 235.613 108.676 228.753 108.664 225.353C108.651 221.954 105.906 219.215 102.533 219.223C99.1598 219.24 96.4305 221.999 96.4427 225.399ZM74.9705 215.369C73.6425 218.502 73.4836 225.878 76.5836 227.219C79.6918 228.548 84.8817 223.336 86.2097 220.207C87.5336 217.083 86.0956 213.47 82.9956 212.13C79.8914 210.797 76.3026 212.24 74.9705 215.369ZM54.4759 170.101C51.1681 170.806 45.074 174.91 45.7624 178.232C46.4671 181.553 53.6857 182.841 56.9935 182.139C60.2972 181.438 62.4073 178.174 61.7189 174.853C61.0182 171.532 57.7878 169.4 54.4759 170.101ZM46.1779 149.599C42.8701 150.304 36.7759 154.409 37.4644 157.73C38.1691 161.051 45.3876 162.339 48.6954 161.638C51.9992 160.936 54.1093 157.672 53.4209 154.351C52.7202 151.03 49.4857 148.898 46.1779 149.599Z" fill="#A56305"/>
<path d="M108.952 227.429C120.484 227.429 129.018 223.833 130.403 223.218C139.655 219.076 143.818 208.173 139.708 198.866C135.638 189.64 124.977 185.437 115.787 189.377C115.245 189.582 108.483 192.038 102.169 189.082C94.6287 185.552 89.9684 175.514 87.3898 167.723C86.8032 165.96 85.8214 162.499 84.5952 158.227C76.9938 131.693 73.0587 124.255 68.3699 117.961C53.2526 97.6598 29.2954 96.2451 17.5185 98.6234C7.59104 100.62 1.1506 110.342 3.13854 120.335C5.12648 130.332 14.7892 136.818 24.7126 134.809C25.3725 134.703 33.6909 133.555 38.6608 139.603C41.2801 144.88 47.134 160.629 49.3745 168.445C50.784 173.361 51.9368 177.347 52.6089 179.381C59.8315 201.182 71.6166 215.845 87.6546 222.964C95.199 226.318 102.54 227.429 108.952 227.429Z" fill="#FFB511"/>
<path fill-rule="evenodd" clip-rule="evenodd" d="M27.0544 115.824C28.1949 116.646 30.0082 116.516 30.0082 115.11C30.0082 111.186 26.8478 108.005 22.9492 108.005C19.0506 108.005 15.8901 111.186 15.8901 115.11C15.8901 116.516 17.7035 116.646 18.8441 115.824C20.0008 114.99 21.4181 114.499 22.9492 114.499C24.4804 114.499 25.8977 114.99 27.0544 115.824Z" fill="#0F1941"/>
<path d="M123.939 223.18C123.577 223.18 123.206 223.131 122.843 223.032C120.676 222.425 119.405 220.166 120.008 217.985C123.092 206.823 116.871 199.361 116.81 199.287C115.348 197.569 115.539 194.977 117.246 193.505C118.949 192.033 121.528 192.226 122.99 193.944C123.365 194.383 132.091 204.851 127.858 220.174C127.361 221.991 125.719 223.18 123.939 223.18ZM94.613 220.871C93.615 220.871 92.6169 220.506 91.8266 219.764C90.185 218.214 90.0994 215.619 91.6352 213.966C97.6846 207.459 97.5542 196.773 97.5501 196.663C97.4849 194.399 99.257 192.513 101.51 192.447C103.718 192.427 105.636 194.166 105.697 196.433C105.714 197.003 105.995 210.526 97.5868 219.576C96.7843 220.437 95.6966 220.871 94.613 220.871ZM59.8159 185.214C57.8605 185.214 56.1333 183.792 55.8033 181.782C55.4367 179.552 56.9358 177.436 59.156 177.071C71.6784 174.98 78.6036 167.324 78.6728 167.246C80.1597 165.565 82.7383 165.405 84.4126 166.902C86.0909 168.399 86.258 170.974 84.7833 172.667C84.4289 173.073 76.0005 182.57 60.488 185.157C60.2599 185.198 60.0359 185.214 59.8159 185.214ZM71.715 205.13C69.9837 205.13 68.3787 204.015 67.8288 202.268C67.1525 200.111 68.342 197.803 70.4848 197.122C81.4551 193.624 86.2906 185.518 86.3394 185.436C87.4801 183.48 89.9731 182.824 91.9122 183.972C93.8553 185.116 94.503 187.634 93.3665 189.581C93.1098 190.024 86.869 200.501 72.9453 204.933C72.5338 205.068 72.1183 205.13 71.715 205.13ZM52.8988 161.379C50.8783 161.379 49.1226 159.866 48.8618 157.791C48.5808 155.544 50.1613 153.494 52.3937 153.207C63.3477 151.813 71.3647 145.125 71.4421 145.055C73.1612 143.604 75.7317 143.813 77.1778 145.543C78.628 147.269 78.4203 149.849 76.7093 151.312C76.3142 151.653 66.8511 159.632 53.4162 161.342C53.241 161.367 53.0699 161.379 52.8988 161.379ZM45.4807 141.832C43.7494 141.832 42.1444 140.713 41.5945 138.958C40.9223 136.797 42.1118 134.497 44.2586 133.816C57.0091 129.785 61.5839 122.778 61.7712 122.483C62.973 120.588 65.4823 120.002 67.3725 121.203C69.2668 122.401 69.8615 124.889 68.6924 126.804C68.448 127.202 62.5575 136.629 46.6987 141.644C46.2954 141.771 45.884 141.832 45.4807 141.832Z" fill="#CC7D0E"/>
<path d="M103.83 288.946L126.76 285.529L129.523 304.068C130.466 310.4 126.098 316.298 119.766 317.242C113.434 318.185 107.536 313.817 106.592 307.485L103.83 288.946Z" fill="#E74536"/>
<path d="M168.118 255.998C171.886 281.287 151.739 284.289 151.739 284.289L79.2091 295.097C79.2091 295.097 59.0619 298.1 55.2934 272.811C51.256 245.717 64.2608 194.784 100.526 189.38C136.791 183.976 164.681 232.934 168.118 255.998Z" fill="#E74536"/>
<path fill-rule="evenodd" clip-rule="evenodd" d="M135.691 244.844C137.391 245.717 139.804 245.181 139.522 243.29C138.739 238.033 133.843 234.407 128.586 235.191C123.33 235.974 119.704 240.87 120.487 246.126C120.769 248.017 123.233 247.827 124.605 246.496C125.999 245.143 127.814 244.198 129.883 243.89C131.951 243.582 133.963 243.956 135.691 244.844Z" fill="#0F1941"/>
<path fill-rule="evenodd" clip-rule="evenodd" d="M94.2955 251.014C95.996 251.888 98.408 251.351 98.1263 249.46C97.343 244.204 92.447 240.578 87.1908 241.361C81.9346 242.144 78.3085 247.04 79.0918 252.297C79.3736 254.187 81.8373 253.998 83.2092 252.666C84.6032 251.313 86.419 250.368 88.4871 250.06C90.5551 249.752 92.5675 250.126 94.2955 251.014Z" fill="#0F1941"/>
<path d="M110.918 257.853C82.7124 262.057 72.7418 278.07 74.4639 289.626C76.2875 301.864 87.6869 310.31 99.9284 308.486C106.396 307.522 111.787 303.984 114.582 294.905C115.096 293.238 117.235 292.92 118.213 294.364C123.533 302.233 129.726 304.045 136.189 303.082C148.431 301.258 156.872 289.855 155.049 277.618C153.331 266.061 139.125 253.65 110.918 257.853Z" fill="#8B2920"/>
<path d="M100.568 271.32C97.1392 275.95 111.029 286.237 115.058 285.636C119.088 285.036 129.375 271.146 124.745 267.717C120.115 264.288 103.997 266.69 100.568 271.32Z" fill="#0F1941"/>
<path d="M88.9874 193.604C83.8742 188.563 73.9762 184.609 40.2964 203.298C24.5315 212.048 39.9226 259.388 53.3946 260.597C57.8512 259.933 71.2289 257.94 65.9137 222.271C65.7816 221.384 65.6516 220.568 65.5183 219.756C71.8657 207.236 79.6637 200.138 88.9874 193.604ZM162.566 185.078C124.9 177.02 116.585 183.688 113.164 190.001C123.988 193.537 133.517 198.053 143.239 208.178C143.347 208.99 143.461 209.809 143.594 210.699C148.909 246.368 162.283 244.375 166.744 243.71C179.277 238.622 180.197 188.852 162.566 185.078Z" fill="#8B2920"/>
</svg>
