<svg width="129" height="128" viewBox="0 0 129 128" fill="none" xmlns="http://www.w3.org/2000/svg">
<path d="M36.918 50.7427C48.6787 64.3295 42.592 83.2012 32.954 81.7575C23.316 80.3138 21.8723 89.9518 31.5103 91.3955C41.1483 92.8392 59.9972 84.961 68.8527 72.3535C71.3578 68.787 74.3936 68.2564 74.3936 68.2564L36.918 50.7427Z" fill="#9048C8"/>
<path d="M85.4908 42.2518C79.0368 59.0228 91.1648 74.7104 99.7415 70.0826C108.318 65.4547 112.946 74.0314 104.369 78.6592C95.7927 83.2871 75.3889 82.2705 62.7814 73.415C59.215 70.9099 56.1792 71.4406 56.1792 71.4406L85.4908 42.2518Z" fill="#9048C8"/>
<path d="M100.327 52.1729C93.8734 68.9439 106.001 84.6315 114.578 80.0037C123.155 75.3758 127.783 83.9525 119.206 88.5803C110.629 93.2081 90.2255 92.1916 77.618 83.3361C74.0516 80.831 71.0158 81.3617 71.0158 81.3617L100.327 52.1729ZM26.3272 65.1089C38.0879 78.6957 32.0012 97.5674 22.3632 96.1237C12.7252 94.68 11.2814 104.318 20.9195 105.762C30.5575 107.205 49.4064 99.3272 58.2619 86.7197C60.767 83.1533 63.8028 82.6226 63.8028 82.6226L26.3272 65.1089Z" fill="#B160E3"/>
<path d="M117.594 97.2557C109.792 101.467 95.1032 83.5861 97.3719 67.6969C100.648 56.9784 101.699 45.488 100.139 36.5628C96.3284 14.7659 76.633 6.25783 54.836 10.0681C33.0391 13.8784 17.3981 28.5637 21.2084 50.3606C22.7686 59.2858 27.6555 69.7381 34.3734 78.7096C41.8981 92.8868 34.1464 114.69 25.3788 113.376C15.7408 111.932 14.8277 124.606 24.4658 126.05C34.1038 127.493 49.3604 119.736 58.7724 107.538C64.3564 100.305 70.4279 99.2437 70.4279 99.2437C70.4279 99.2437 76.4995 98.1823 84.2031 103.093C97.1952 111.374 114.179 113.495 122.755 108.868C131.332 104.24 126.17 92.6279 117.594 97.2557Z" fill="#D492EB"/>
<path d="M25.4797 68.7333C30.6961 67.8214 34.1857 62.8535 33.2738 57.6371C32.3619 52.4207 27.3939 48.9312 22.1775 49.843C16.9611 50.7549 13.4716 55.7229 14.3835 60.9393C15.2954 66.1557 20.2633 69.6452 25.4797 68.7333Z" fill="#0F1941"/>
<path d="M102.358 55.2944C107.574 54.3826 111.064 49.4146 110.152 44.1981C109.24 38.9817 104.272 35.4922 99.0555 36.4041C93.8391 37.3159 90.3496 42.2839 91.2615 47.5004C92.1733 52.7168 97.1413 56.2063 102.358 55.2944Z" fill="#0F1941"/>
<path d="M41.0211 64.2904C38.8021 51.5962 49.3561 51.3037 62.0503 49.0847C74.7444 46.8656 84.7718 43.5602 86.9908 56.2544C89.2099 68.9486 80.7181 81.0382 68.0239 83.2572C55.3298 85.4763 43.2402 76.9845 41.0211 64.2904Z" fill="#0F1941"/>
<path d="M103.511 39.5448C103.798 41.1855 102.7 42.748 101.06 43.0348C99.4189 43.3216 97.8564 42.2241 97.5696 40.5834C97.2828 38.9428 98.3803 37.3803 100.021 37.0935C101.662 36.8067 103.224 37.9042 103.511 39.5448Z" fill="#FFFCF9"/>
<path d="M26.6075 52.9882C26.8943 54.6288 25.7968 56.1913 24.1562 56.4781C22.5156 56.7649 20.9531 55.6674 20.6663 54.0268C20.3795 52.3861 21.477 50.8237 23.1176 50.5369C24.7582 50.2501 26.3207 51.3476 26.6075 52.9882Z" fill="#FFFCF9"/>
<path d="M108.593 46.7519C109.013 49.1509 107.408 51.4356 105.009 51.855C102.61 52.2743 100.325 50.6695 99.9058 48.2705C99.4864 45.8715 101.091 43.5868 103.49 43.1674C105.889 42.7481 108.174 44.3529 108.593 46.7519Z" fill="#FFFCF9"/>
<path d="M31.69 60.1957C32.1094 62.5947 30.5046 64.8794 28.1056 65.2988C25.7066 65.7182 23.4219 64.1134 23.0025 61.7144C22.5831 59.3154 24.1879 57.0306 26.5869 56.6113C28.9859 56.1919 31.2707 57.7967 31.69 60.1957Z" fill="#FFFCF9"/>
</svg>
