<svg width="61" height="60" viewBox="0 0 61 60" fill="none" xmlns="http://www.w3.org/2000/svg">
<ellipse opacity="0.15" cx="30.26" cy="50.1853" rx="30.064" ry="9.08183" fill="#697D95"/>
<path d="M18.7217 17.8317C23.1384 25.2615 18.7217 33.7197 14.305 32.2337C9.88821 30.7477 8.41596 35.2057 12.8327 36.6916C17.2494 38.1776 26.7675 36.0007 31.9719 30.7477C33.4442 29.2618 34.9164 29.2618 34.9164 29.2618L18.7217 17.8317Z" fill="#0F1941"/>
<path d="M42.2776 17.8317C37.8609 25.2615 42.2776 33.7197 46.6943 32.2337C51.1111 30.7477 52.5833 35.2057 48.1666 36.6916C43.7498 38.1776 34.2318 36.0007 29.0274 30.7477C27.5551 29.2618 26.0829 29.2618 26.0829 29.2618L42.2776 17.8317Z" fill="#0F1941"/>
<path d="M48.4433 23.7755C44.0265 31.2054 48.4433 39.6635 52.86 38.1776C57.2768 36.6916 58.749 41.1495 54.3323 42.6355C49.9155 44.1214 40.3974 41.9445 35.1931 36.6916C33.7208 35.2056 32.2486 35.2056 32.2486 35.2056L48.4433 23.7755V23.7755ZM12.5558 23.7755C16.9725 31.2054 12.5558 39.6635 8.13906 38.1776C3.72232 36.6916 2.25007 41.1495 6.66681 42.6355C11.0835 44.1214 20.6016 41.9445 25.806 36.6916C27.2783 35.2056 28.7505 35.2056 28.7505 35.2056L12.5558 23.7755Z" fill="#144682"/>
<path d="M52.86 46.6224C48.8423 47.9746 43.4008 38.2623 45.7756 30.9038C48.1989 26.0848 49.6387 20.7145 49.6387 16.3457C49.6387 5.67641 41.0703 0 30.4995 0C19.9288 0 11.3603 5.67641 11.3603 16.3457C11.3603 20.7145 12.8002 26.0848 15.2235 30.9038C17.5982 38.2623 12.1568 47.9746 8.13906 46.6224C3.72232 45.1364 2.25007 51.0803 6.66681 52.5663C11.0836 54.0522 18.9012 51.6346 24.3338 46.6224C27.5565 43.6504 30.501 43.6504 30.501 43.6504C30.501 43.6504 33.4455 43.6504 36.6668 46.6224C42.0994 51.6346 49.917 54.0522 54.3337 52.5663C58.7505 51.0803 57.2768 45.1364 52.86 46.6224Z" fill="#2175D9"/>
<path fill-rule="evenodd" clip-rule="evenodd" d="M26.5693 32.953C27.1141 33.3463 27.9807 33.2843 27.9807 32.6124V32.6124C27.9807 30.7338 26.4719 29.2109 24.6107 29.2109C22.7495 29.2109 21.2407 30.7338 21.2407 32.6124V32.6124C21.2407 33.2843 22.1074 33.3463 22.6522 32.953C23.2041 32.5544 23.8803 32.3199 24.6107 32.3199C25.3412 32.3199 26.0173 32.5544 26.5693 32.953Z" fill="#0F1941"/>
<path fill-rule="evenodd" clip-rule="evenodd" d="M38.3475 32.953C38.8923 33.3463 39.7589 33.2843 39.7589 32.6124V32.6124C39.7589 30.7338 38.2501 29.2109 36.3889 29.2109C34.5277 29.2109 33.0189 30.7338 33.0189 32.6124V32.6124C33.0189 33.2843 33.8856 33.3463 34.4304 32.953C34.9823 32.5544 35.6585 32.3199 36.3889 32.3199C37.1194 32.3199 37.7955 32.5544 38.3475 32.953Z" fill="#0F1941"/>
</svg>
