<svg width="136" height="136" viewBox="0 0 136 136" fill="none" xmlns="http://www.w3.org/2000/svg">
<path d="M44.6734 45.1645C51.9507 63.0293 39.2619 80.1197 29.9601 75.3321C20.6584 70.5444 15.8707 79.8461 25.1725 84.6338C34.4742 89.4215 56.3517 87.9041 69.6978 78.1363C73.4732 75.3732 76.7425 75.8793 76.7425 75.8793L44.6734 45.1645Z" fill="#9048C8"/>
<path d="M96.9818 53.2632C84.6432 68.0913 91.5702 88.2185 101.884 86.4676C112.198 84.7167 113.949 95.0307 103.635 96.7816C93.3211 98.5325 72.9266 90.4709 63.1588 77.1248C60.3957 73.3493 57.1264 72.8432 57.1264 72.8432L96.9818 53.2632Z" fill="#9048C8"/>
<path d="M108.649 68.4595C96.3104 83.2875 103.237 103.415 113.551 101.664C123.865 99.9129 125.616 110.227 115.302 111.978C104.988 113.729 84.5938 105.667 74.826 92.321C72.0628 88.5455 68.7935 88.0394 68.7935 88.0394L108.649 68.4595ZM28.9566 56.122C36.2339 73.9868 23.5451 91.0773 14.2433 86.2896C4.9416 81.5019 0.153911 90.8036 9.45566 95.5913C18.7574 100.379 40.6349 98.8616 53.981 89.0939C57.7564 86.3307 61.0257 86.8368 61.0257 86.8368L28.9566 56.122Z" fill="#B160E3"/>
<path d="M110.675 120.243C101.293 121.837 92.5174 98.5984 100.297 83.2252C107.32 73.456 112.346 62.1358 113.834 52.5241C117.468 29.0505 100.374 13.6162 76.9009 9.98213C53.4274 6.3481 32.4667 15.8911 28.8327 39.3646C27.3447 48.9764 28.7129 61.2866 32.4527 72.722C35.2197 89.7279 19.8284 109.225 11.367 104.869C2.06529 100.081 -3.22853 112.652 6.07322 117.44C15.375 122.228 33.5584 119.596 47.3293 110.437C55.498 105.006 62.0366 106.018 62.0366 106.018C62.0366 106.018 68.5752 107.03 74.7161 114.676C85.0726 127.571 101.609 135.578 111.923 133.827C122.237 132.076 120.989 118.492 110.675 120.243Z" fill="#D492EB"/>
<path d="M25.0608 71.0548C30.6785 71.9245 35.9375 68.0756 36.8072 62.4579C37.6769 56.8403 32.488 60.2359 26.8704 59.3662C21.2528 58.4966 17.3336 53.6908 16.4639 59.3085C15.5942 64.9261 19.4432 70.1852 25.0608 71.0548Z" fill="#0F1941"/>
<path d="M107.851 83.8719C113.469 84.7416 118.728 80.8926 119.598 75.2749C120.467 69.6572 115.39 72.3317 109.773 71.462C104.155 70.5923 100.124 66.5078 99.2543 72.1255C98.3846 77.7432 102.234 83.0022 107.851 83.8719Z" fill="#0F1941"/>
<path fill-rule="evenodd" clip-rule="evenodd" d="M71.7264 75.8295C72.8211 74.6799 74.6396 74.6149 75.8139 75.6929C77.0016 76.7832 77.0806 78.6298 75.9903 79.8176L73.8398 77.8434C75.9903 79.8176 75.9892 79.8188 75.9881 79.82L75.9858 79.8225L75.981 79.8277L75.9704 79.839L75.9458 79.8651C75.9278 79.884 75.9067 79.9059 75.8824 79.9305C75.8338 79.9796 75.7724 80.0398 75.6983 80.109C75.5501 80.2474 75.3499 80.4228 75.0972 80.6195C74.5925 81.0122 73.8719 81.4947 72.9333 81.9331C71.0302 82.8221 68.3045 83.4933 64.8237 82.9543C61.3429 82.4154 58.9478 80.9515 57.4026 79.5287C56.6405 78.827 56.0995 78.1492 55.7372 77.6223C55.5558 77.3585 55.418 77.1307 55.3186 76.954C55.2689 76.8656 55.2286 76.7897 55.1971 76.7281C55.1814 76.6974 55.1679 76.6701 55.1564 76.6467L55.1409 76.6144L55.1342 76.6004L55.1312 76.5939L55.1298 76.5909C55.1291 76.5894 55.1284 76.5879 57.7752 75.3564L55.1284 76.5879C54.4483 75.1261 55.0819 73.3897 56.5437 72.7096C57.989 72.0372 59.7027 72.649 60.3986 74.0757C60.4005 74.0794 60.4034 74.0846 60.4072 74.0913C60.4275 74.1274 60.4735 74.2056 60.5483 74.3145C60.6986 74.5331 60.96 74.8677 61.3575 75.2336C62.1314 75.9462 63.4839 76.8388 65.717 77.1846C67.9501 77.5303 69.5091 77.0885 70.4623 76.6432C70.9518 76.4146 71.3021 76.1747 71.5115 76.0118C71.6157 75.9306 71.6832 75.87 71.7135 75.8417C71.7191 75.8364 71.7234 75.8324 71.7264 75.8295ZM60.4193 74.1191C60.4193 74.1192 60.4194 74.1193 60.4194 74.1194C60.4203 74.1212 60.4211 74.1231 60.422 74.1249L57.8565 75.3186C60.422 74.1249 60.4213 74.1235 60.4207 74.122M60.4193 74.1191L60.4193 74.1192L60.4194 74.1194" fill="#0F1941"/>
</svg>
