<svg width="387" height="481" viewBox="0 0 387 481" fill="none" xmlns="http://www.w3.org/2000/svg">
<path fill-rule="evenodd" clip-rule="evenodd" d="M119.616 7.55664C123.793 7.55664 126.475 12.3423 126.825 16.7724C138.304 17.4285 152.804 21.9666 163.02 35.5965C167.44 41.4901 171.149 48.4549 178.313 73.3003L178.696 74.6272L178.696 74.6276L178.696 74.6282L178.697 74.6294C179.674 78.0148 180.457 80.7286 180.947 82.1926C183.377 89.4876 187.77 98.8867 194.877 102.193C200.828 104.961 207.201 102.661 207.712 102.469C216.374 98.7792 226.422 102.715 230.258 111.354C234.091 119.978 230.289 130.066 221.759 134.033C221.61 137.279 220.445 141.194 218.145 141.736C216.011 142.237 213.451 139.698 211.832 137.057C208.812 137.653 205.228 138.1 201.269 138.1C201.214 138.1 201.158 138.099 201.103 138.099L201.041 138.099C200.952 138.099 200.863 138.098 200.774 138.097C200.085 141.412 197.89 145.766 195.273 145.779C192.261 145.79 189.765 140.039 189.502 136.725C186.792 136.074 184.009 135.161 181.197 133.918C180.445 133.587 179.703 133.238 178.97 132.871C177.059 135.68 173.22 138.948 170.762 137.904C167.84 136.648 167.99 129.741 169.242 126.808C169.274 126.731 169.309 126.655 169.345 126.58C160.719 119.432 153.943 109.137 149.106 95.8118C145.912 95.5451 142.195 94.291 141.712 92.0334C141.291 90.0157 143.561 87.6893 146.059 86.1237C145.762 85.1021 145.447 84.0122 145.117 82.8683C144.617 81.137 143.927 78.9897 143.132 76.6549C139.731 76.8148 134.471 75.5511 133.891 72.8359C133.407 70.5151 136.483 67.786 139.37 66.2759C137.699 61.9067 136.078 57.9815 135.019 55.8613C130.335 50.1981 122.494 51.2731 121.872 51.373C115.091 52.7371 108.439 49.9189 104.579 44.698C100.488 43.4883 97.5034 39.7025 97.5034 35.2194C97.5034 31.911 99.1291 30.8965 101.625 30.6105C102.124 28.4147 103.047 26.3509 104.32 24.5297C103.759 22.9464 102.855 21.8396 101.397 21.8396C97.5579 21.8396 97.0741 14.1606 103.555 14.1606C106.488 14.1606 108.683 16.5186 109.852 19.4566C111.438 18.543 113.198 17.868 115.092 17.4894C116.517 17.2035 118.131 16.9762 119.892 16.8373C119.333 15.8581 118.551 15.2356 117.458 15.2356C113.619 15.2356 113.135 7.55664 119.616 7.55664Z" fill="#0F1941"/>
<path d="M126.825 16.7724L119.348 17.3631C119.643 21.1008 122.653 24.0462 126.397 24.2602L126.825 16.7724ZM163.02 35.5965L157.019 40.0947L157.02 40.0958L163.02 35.5965ZM178.313 73.3003L171.107 75.3784L171.107 75.3804L178.313 73.3003ZM178.696 74.6272L185.908 72.5668C185.906 72.5602 185.904 72.5537 185.902 72.5471L178.696 74.6272ZM178.696 74.6276L185.918 72.6054C185.915 72.5927 185.911 72.5799 185.908 72.5672L178.696 74.6276ZM178.696 74.6282L171.474 76.6504C171.483 76.6818 171.492 76.7132 171.501 76.7445L178.696 74.6282ZM178.697 74.6294L185.903 72.55C185.899 72.5377 185.896 72.5254 185.892 72.5131L178.697 74.6294ZM180.947 82.1926L188.062 79.822L188.059 79.811L180.947 82.1926ZM194.877 102.193L198.04 95.3922L198.04 95.3922L194.877 102.193ZM207.712 102.469L210.351 109.489C210.452 109.451 210.552 109.411 210.651 109.369L207.712 102.469ZM230.258 111.354L223.403 114.397L223.404 114.4L230.258 111.354ZM221.759 134.033L218.596 127.233C216.064 128.411 214.396 130.898 214.267 133.688L221.759 134.033ZM218.145 141.736L219.859 149.037L219.866 149.036L218.145 141.736ZM211.832 137.057L218.225 133.136C216.586 130.463 213.456 129.092 210.38 129.699L211.832 137.057ZM201.103 138.099L201.074 145.599L201.08 145.599L201.103 138.099ZM201.041 138.099L201.009 145.599L201.013 145.599L201.041 138.099ZM200.774 138.097L200.845 130.598C197.264 130.563 194.159 133.066 193.43 136.572L200.774 138.097ZM195.273 145.779L195.3 153.279L195.31 153.279L195.273 145.779ZM189.502 136.725L196.979 136.132C196.722 132.895 194.411 130.19 191.253 129.432L189.502 136.725ZM181.197 133.918L184.227 127.058L184.223 127.056L181.197 133.918ZM178.97 132.871L182.328 126.165C178.969 124.483 174.883 125.546 172.77 128.652L178.97 132.871ZM170.762 137.904L167.801 144.795C167.811 144.799 167.821 144.803 167.83 144.807L170.762 137.904ZM169.242 126.808L162.348 123.853L162.343 123.864L169.242 126.808ZM169.345 126.58L176.107 129.824C177.596 126.721 176.781 123.002 174.13 120.806L169.345 126.58ZM149.106 95.8118L156.156 93.2529C155.157 90.5006 152.648 88.5813 149.73 88.3378L149.106 95.8118ZM141.712 92.0334L134.37 93.5652C134.373 93.5768 134.375 93.5883 134.378 93.5999L141.712 92.0334ZM146.059 86.1237L150.042 92.4785C152.883 90.6982 154.197 87.249 153.261 84.03L146.059 86.1237ZM145.117 82.8683L137.911 84.9477L137.911 84.9478L145.117 82.8683ZM143.132 76.6549L150.231 74.2364C149.154 71.0747 146.116 69.0063 142.779 69.1631L143.132 76.6549ZM133.891 72.8359L126.549 74.3677C126.552 74.3793 126.554 74.3909 126.557 74.4024L133.891 72.8359ZM139.37 66.2759L142.846 72.922C146.218 71.1586 147.735 67.1495 146.375 63.5955L139.37 66.2759ZM135.019 55.8613L141.728 52.5093C141.473 51.9995 141.161 51.5203 140.798 51.0812L135.019 55.8613ZM121.872 51.373L120.684 43.9677C120.587 43.9833 120.49 44.0008 120.393 44.0202L121.872 51.373ZM104.579 44.698L110.61 40.2396C109.641 38.9281 108.27 37.9684 106.706 37.5059L104.579 44.698ZM101.625 30.6105L102.479 38.0618C105.643 37.6993 108.233 35.378 108.939 32.2722L101.625 30.6105ZM104.32 24.5297L110.467 28.827C111.855 26.8417 112.199 24.3084 111.39 22.0251L104.32 24.5297ZM109.852 19.4566L102.883 22.2295C103.688 24.252 105.332 25.825 107.388 26.5402C109.444 27.2554 111.709 27.0421 113.595 25.9557L109.852 19.4566ZM115.092 17.4894L116.562 24.844L116.567 24.8429L115.092 17.4894ZM119.892 16.8373L120.482 24.3141C123.042 24.1121 125.321 22.6143 126.522 20.3441C127.723 18.074 127.679 15.3473 126.405 13.1173L119.892 16.8373ZM134.301 16.1817C134.035 12.8137 132.899 9.17453 130.781 6.17617C128.642 3.14699 124.897 0.0566406 119.616 0.0566406V15.0566C119.161 15.0566 118.768 14.9103 118.534 14.7668C118.345 14.6508 118.375 14.611 118.53 14.8303C118.681 15.0444 118.874 15.3987 119.04 15.8866C119.205 16.3695 119.31 16.8839 119.348 17.3631L134.301 16.1817ZM169.022 31.0982C157.105 15.2 140.231 10.0263 127.252 9.2846L126.397 24.2602C136.378 24.8306 148.503 28.7331 157.019 40.0947L169.022 31.0982ZM185.519 71.2223C178.299 46.1833 174.291 38.1253 169.021 31.0971L157.02 40.0958C160.588 44.8549 163.998 50.7266 171.107 75.3784L185.519 71.2223ZM185.902 72.5471L185.519 71.2203L171.107 75.3804L171.49 76.7072L185.902 72.5471ZM185.908 72.5672L185.908 72.5668L171.485 76.6876L171.485 76.688L185.908 72.5672ZM185.919 72.606L185.918 72.6054L171.474 76.6499L171.474 76.6504L185.919 72.606ZM185.892 72.5131L185.892 72.512L171.501 76.7445L171.501 76.7456L185.892 72.5131ZM188.059 79.811C187.633 78.5389 186.907 76.0299 185.903 72.55L171.491 76.7087C172.44 79.9998 173.281 82.9184 173.835 84.5742L188.059 79.811ZM198.04 95.3922C196.351 94.6067 194.439 92.7962 192.523 89.7217C190.659 86.7302 189.174 83.1595 188.062 79.822L173.831 84.5632C175.15 88.5207 177.077 93.2971 179.793 97.6554C182.457 101.931 186.295 106.473 191.713 108.993L198.04 95.3922ZM205.073 95.4487C205.172 95.4114 204.102 95.8185 202.549 95.9821C200.968 96.1486 199.375 96.0134 198.04 95.3922L191.713 108.993C200.652 113.151 209.647 109.754 210.351 109.489L205.073 95.4487ZM237.112 108.31C231.612 95.9211 217.2 90.2753 204.773 95.5689L210.651 109.369C215.548 107.283 221.232 109.508 223.403 114.397L237.112 108.31ZM224.922 140.833C237.155 135.144 242.61 120.678 237.111 108.307L223.404 114.4C225.573 119.278 223.422 124.988 218.596 127.233L224.922 140.833ZM219.866 149.036C224.71 147.894 226.871 143.754 227.695 141.752C228.696 139.316 229.147 136.637 229.251 134.378L214.267 133.688C214.247 134.134 214.19 134.611 214.1 135.06C214.009 135.519 213.902 135.851 213.823 136.045C213.73 136.27 213.752 136.119 214.03 135.803C214.33 135.463 215.103 134.747 216.424 134.436L219.866 149.036ZM205.438 140.978C206.551 142.793 208.118 144.811 210.063 146.393C211.732 147.75 215.329 150.101 219.859 149.037L216.431 134.434C217.657 134.146 218.623 134.381 219.085 134.552C219.512 134.71 219.654 134.859 219.528 134.756C219.424 134.671 219.224 134.485 218.964 134.172C218.71 133.868 218.455 133.511 218.225 133.136L205.438 140.978ZM201.269 145.6C205.788 145.6 209.862 145.09 213.283 144.415L210.38 129.699C207.762 130.216 204.668 130.6 201.269 130.6V145.6ZM201.08 145.599C201.142 145.599 201.206 145.6 201.269 145.6V130.6C201.222 130.6 201.174 130.599 201.125 130.599L201.08 145.599ZM201.013 145.599L201.074 145.599L201.131 130.599L201.069 130.599L201.013 145.599ZM200.702 145.597C200.805 145.598 200.907 145.599 201.009 145.599L201.074 130.599C200.997 130.599 200.921 130.598 200.845 130.598L200.702 145.597ZM195.31 153.279C200.751 153.252 203.894 149.048 205.065 147.217C206.585 144.839 207.614 142.044 208.117 139.622L193.43 136.572C193.349 136.964 193.208 137.451 193.011 137.952C192.812 138.458 192.602 138.864 192.428 139.136C192.23 139.445 192.215 139.372 192.491 139.154C192.782 138.924 193.732 138.286 195.237 138.279L195.31 153.279ZM182.026 137.318C182.252 140.173 183.312 143.475 184.808 146.155C185.574 147.526 186.659 149.108 188.149 150.435C189.624 151.749 192.058 153.29 195.3 153.279L195.246 138.279C196.982 138.272 197.975 139.1 198.126 139.234C198.293 139.383 198.173 139.322 197.905 138.842C197.663 138.409 197.425 137.855 197.242 137.277C197.052 136.677 196.99 136.266 196.979 136.132L182.026 137.318ZM178.166 140.779C181.41 142.212 184.623 143.267 187.752 144.018L191.253 129.432C188.961 128.882 186.608 128.11 184.227 127.058L178.166 140.779ZM175.613 139.578C176.455 139.999 177.307 140.4 178.171 140.781L184.223 127.056C183.582 126.773 182.95 126.476 182.328 126.165L175.613 139.578ZM167.83 144.807C170.466 145.927 173.003 145.682 174.812 145.181C176.606 144.685 178.141 143.825 179.326 143.009C181.68 141.387 183.754 139.173 185.171 137.091L172.77 128.652C172.555 128.967 172.239 129.362 171.854 129.757C171.467 130.154 171.101 130.46 170.816 130.656C170.495 130.877 170.49 130.814 170.813 130.724C171.151 130.631 172.286 130.403 173.693 131L167.83 144.807ZM162.343 123.864C161.129 126.711 160.721 130.438 160.958 133.554C161.082 135.185 161.416 137.149 162.235 139.037C163.035 140.882 164.664 143.446 167.801 144.795L173.723 131.013C175.399 131.733 175.951 132.964 175.996 133.069C176.061 133.217 175.962 133.035 175.915 132.416C175.872 131.851 175.893 131.199 175.974 130.597C176.062 129.94 176.175 129.668 176.14 129.751L162.343 123.864ZM162.582 123.337C162.501 123.507 162.423 123.679 162.348 123.853L176.135 129.762C176.126 129.783 176.117 129.803 176.107 129.824L162.582 123.337ZM142.056 98.3707C147.23 112.625 154.668 124.159 164.559 132.355L174.13 120.806C166.769 114.706 160.656 105.65 156.156 93.2529L142.056 98.3707ZM134.378 93.5999C135.393 98.3524 139.326 100.608 141.298 101.501C143.659 102.571 146.269 103.101 148.482 103.286L149.73 88.3378C149.285 88.3006 148.823 88.2284 148.396 88.1275C147.96 88.0244 147.655 87.9136 147.487 87.8372C147.288 87.7474 147.452 87.7853 147.765 88.0796C148.102 88.3971 148.771 89.1774 149.047 90.4669L134.378 93.5999ZM142.076 79.7688C140.365 80.8411 138.452 82.3352 136.944 84.2118C135.607 85.8765 133.474 89.2676 134.37 93.5652L149.054 90.5015C149.295 91.6544 149.083 92.5727 148.906 93.0567C148.741 93.5059 148.575 93.6843 148.638 93.6062C148.686 93.5464 148.829 93.3872 149.1 93.1589C149.363 92.9372 149.685 92.7024 150.042 92.4785L142.076 79.7688ZM137.911 84.9478C138.241 86.0934 138.558 87.1888 138.857 88.2173L153.261 84.03C152.966 83.0155 152.652 81.9309 152.323 80.7889L137.911 84.9478ZM136.032 79.0734C136.807 81.3492 137.457 83.3738 137.911 84.9477L152.323 80.789C151.778 78.9002 151.046 76.6302 150.231 74.2364L136.032 79.0734ZM126.557 74.4024C127.179 77.3173 128.947 79.2919 130.442 80.4773C131.933 81.6596 133.577 82.4121 134.973 82.9013C137.74 83.8714 140.871 84.2694 143.484 84.1466L142.779 69.1631C142.451 69.1786 141.956 69.162 141.383 69.0811C140.811 69.0004 140.306 68.8761 139.935 68.7458C139.518 68.5997 139.526 68.5372 139.761 68.7239C140.001 68.9137 140.893 69.7121 141.226 71.2694L126.557 74.4024ZM135.895 59.6298C133.883 60.682 131.638 62.2292 129.85 64.1711C128.383 65.7638 125.53 69.483 126.549 74.3677L141.233 71.3041C141.511 72.6372 141.187 73.6425 141.007 74.0535C140.84 74.435 140.715 74.5158 140.883 74.3327C141.028 74.1754 141.288 73.9354 141.668 73.6564C142.04 73.3829 142.45 73.1289 142.846 72.922L135.895 59.6298ZM128.31 59.2134C129.189 60.9732 130.696 64.5933 132.366 68.9562L146.375 63.5955C144.701 59.2202 142.967 54.9898 141.728 52.5093L128.31 59.2134ZM123.061 58.7782C122.913 58.802 124.163 58.6057 125.718 58.8587C127.247 59.1074 128.437 59.6717 129.24 60.6415L140.798 51.0812C136.916 46.3878 131.844 44.658 128.126 44.0533C124.435 43.4529 121.454 43.8441 120.684 43.9677L123.061 58.7782ZM98.5481 49.1565C104.07 56.6253 113.607 60.6859 123.351 58.7257L120.393 44.0202C116.575 44.7883 112.808 43.2125 110.61 40.2396L98.5481 49.1565ZM90.0034 35.2194C90.0034 43.1156 95.2622 49.7639 102.452 51.8902L106.706 37.5059C105.714 37.2127 105.003 36.2893 105.003 35.2194H90.0034ZM100.772 23.1592C98.9175 23.3716 95.8746 23.983 93.3832 26.4207C90.7163 29.03 90.0034 32.3876 90.0034 35.2194H105.003C105.003 34.7428 105.103 35.939 103.873 37.1424C102.819 38.1742 101.837 38.1353 102.479 38.0618L100.772 23.1592ZM98.1735 20.2325C96.3521 22.8378 95.0283 25.7947 94.3117 28.9488L108.939 32.2722C109.22 31.0347 109.742 29.864 110.467 28.827L98.1735 20.2325ZM101.397 29.3396C100.785 29.3396 100.101 29.2174 99.4248 28.9261C98.7592 28.6396 98.2586 28.2582 97.9128 27.9151C97.2902 27.2974 97.1734 26.8156 97.2509 27.0343L111.39 22.0251C110.525 19.5833 107.819 14.3396 101.397 14.3396V29.3396ZM103.555 6.66057C100.398 6.66057 97.3411 7.62928 94.948 9.76662C92.6089 11.8557 91.4328 14.5952 91.1502 17.1874C90.8763 19.7003 91.3984 22.473 92.9793 24.8244C94.6681 27.3362 97.6203 29.3396 101.397 29.3396V14.3396C103.255 14.3396 104.707 15.383 105.427 16.4551C106.04 17.3667 106.127 18.2196 106.062 18.8128C105.989 19.4852 105.667 20.305 104.94 20.9542C104.159 21.6517 103.472 21.6606 103.555 21.6606V6.66057ZM116.82 16.6836C115.19 12.5871 111.048 6.66057 103.555 6.66057V21.6606C103.258 21.6606 102.961 21.5961 102.711 21.4911C102.475 21.3922 102.357 21.2905 102.343 21.2778C102.333 21.2686 102.402 21.3296 102.516 21.5032C102.629 21.6749 102.759 21.9173 102.883 22.2295L116.82 16.6836ZM113.622 10.1348C110.918 10.6752 108.392 11.6423 106.109 12.9574L113.595 25.9557C114.484 25.4436 115.477 25.0608 116.562 24.844L113.622 10.1348ZM119.303 9.36049C117.265 9.52119 115.354 9.78733 113.617 10.1359L116.567 24.8429C117.679 24.6197 118.997 24.4312 120.482 24.3141L119.303 9.36049ZM117.458 22.7356C116.477 22.7356 115.459 22.4251 114.61 21.838C113.847 21.3104 113.489 20.7484 113.38 20.5573L126.405 13.1173C124.994 10.6482 122.094 7.73563 117.458 7.73563V22.7356ZM119.616 0.0566406C116.459 0.0566406 113.402 1.02535 111.009 3.16269C108.67 5.25173 107.493 7.99128 107.211 10.5834C106.937 13.0964 107.459 15.869 109.04 18.2204C110.729 20.7323 113.681 22.7356 117.458 22.7356V7.73563C119.315 7.73563 120.767 8.77909 121.488 9.85115C122.101 10.7628 122.187 11.6157 122.123 12.2088C122.049 12.8812 121.727 13.701 121 14.3503C120.219 15.0478 119.532 15.0566 119.616 15.0566V0.0566406Z" fill="#FFFCF9"/>
<path d="M107.386 45.1024C112.845 45.1024 117.269 40.6777 117.269 35.2194C117.269 29.7612 112.845 30.5465 107.386 30.5465C101.928 30.5465 97.5034 29.7612 97.5034 35.2194C97.5034 40.6777 101.928 45.1024 107.386 45.1024Z" fill="#0F1941"/>
<path d="M125.137 22.9146C128.976 19.0751 126.097 7.55664 119.616 7.55664C113.135 7.55664 113.618 15.2356 117.458 15.2356C121.297 15.2356 121.297 22.9146 121.297 26.7541C121.297 30.5936 125.137 22.9146 125.137 22.9146ZM109.076 29.5186C112.916 25.6791 110.036 14.1606 103.555 14.1606C97.0741 14.1606 97.5578 21.8396 101.397 21.8396C105.237 21.8396 105.237 29.5186 105.237 33.3581C105.237 37.1975 109.076 29.5186 109.076 29.5186Z" fill="#0B6E3F"/>
<path d="M210.343 133.707C211.069 136.81 215.054 142.461 218.145 141.736C221.24 141.006 222.28 134.168 221.555 131.073C220.829 127.971 217.723 126.055 214.628 126.785C211.537 127.514 209.614 130.613 210.343 133.707V133.707ZM189.479 136.199C189.491 139.386 192.094 145.79 195.273 145.779C198.452 145.763 201.009 139.34 200.998 136.157C200.986 132.974 198.399 130.409 195.219 130.417C192.04 130.432 189.468 133.016 189.479 136.199V136.199ZM169.241 126.808C167.99 129.741 167.84 136.648 170.762 137.904C173.691 139.148 178.583 134.268 179.835 131.338C181.082 128.413 179.727 125.03 176.805 123.774C173.88 122.527 170.497 123.878 169.241 126.808V126.808ZM149.925 84.4196C146.807 85.08 141.063 88.9233 141.712 92.0333C142.377 95.1433 149.18 96.3489 152.298 95.6923C155.412 95.0358 157.4 91.9796 156.752 88.8696C156.091 85.7596 153.046 83.763 149.925 84.4196ZM142.104 65.2221C138.986 65.8825 133.242 69.7258 133.891 72.8358C134.555 75.9458 141.359 77.1514 144.477 76.4949C147.591 75.8383 149.579 72.7821 148.931 69.6721C148.27 66.5621 145.222 64.5656 142.104 65.2221V65.2221Z" fill="#0B6E3F"/>
<path d="M201.269 138.099C212.139 138.099 220.183 134.732 221.488 134.156C230.208 130.278 234.132 120.069 230.258 111.353C226.422 102.714 216.374 98.779 207.712 102.469C207.201 102.661 200.828 104.961 194.877 102.192C187.77 98.8865 183.377 89.4874 180.947 82.1924C180.394 80.5414 179.469 77.3008 178.313 73.3001C171.149 48.4547 167.44 41.4899 163.02 35.5962C148.772 16.5869 126.192 15.2623 115.092 17.4892C105.735 19.359 99.6648 28.4625 101.538 37.8193C103.412 47.18 112.519 53.2541 121.872 51.3727C122.494 51.2729 130.335 50.1978 135.019 55.8611C137.488 60.8025 143.005 75.55 145.117 82.8681C146.445 87.4717 147.532 91.2037 148.165 93.108C154.973 113.523 166.08 127.253 181.197 133.918C188.307 137.059 195.226 138.099 201.269 138.099Z" fill="#78E8B2"/>
<path d="M136.171 45.1024C141.629 45.1024 146.054 40.6777 146.054 35.2194C146.054 29.7612 141.629 30.5465 136.171 30.5465C130.712 30.5465 126.288 29.7612 126.288 35.2194C126.288 40.6777 130.712 45.1024 136.171 45.1024Z" fill="#0F1941"/>
<path d="M215.396 134.122C215.054 134.122 214.705 134.076 214.363 133.984C212.32 133.415 211.123 131.3 211.691 129.257C214.597 118.806 208.734 111.818 208.677 111.749C207.298 110.14 207.479 107.714 209.088 106.335C210.693 104.957 213.123 105.138 214.501 106.746C214.855 107.157 223.079 116.959 219.09 131.308C218.621 133.008 217.074 134.122 215.396 134.122V134.122ZM187.755 131.96C186.815 131.96 185.874 131.619 185.129 130.924C183.582 129.472 183.501 127.042 184.949 125.495C190.65 119.401 190.528 109.396 190.524 109.292C190.462 107.172 192.132 105.406 194.256 105.345C196.337 105.326 198.145 106.954 198.203 109.077C198.218 109.611 198.483 122.273 190.558 130.747C189.802 131.553 188.777 131.96 187.755 131.96V131.96ZM154.958 98.572C153.115 98.572 151.488 97.2397 151.177 95.3584C150.831 93.2697 152.244 91.2885 154.336 90.9468C166.139 88.9886 172.666 81.8203 172.731 81.7474C174.133 80.1732 176.563 80.0234 178.141 81.4248C179.723 82.8263 179.881 85.2375 178.491 86.8232C178.157 87.2033 170.213 96.0956 155.592 98.5183C155.377 98.5567 155.166 98.572 154.958 98.572V98.572ZM166.174 117.22C164.542 117.22 163.029 116.176 162.511 114.54C161.873 112.521 162.994 110.359 165.014 109.722C175.354 106.447 179.911 98.8561 179.957 98.7794C181.032 96.9479 183.382 96.3336 185.21 97.4087C187.041 98.4799 187.652 100.837 186.581 102.661C186.339 103.076 180.457 112.886 167.333 117.036C166.945 117.163 166.554 117.22 166.174 117.22V117.22ZM148.439 76.253C146.535 76.253 144.88 74.8363 144.634 72.8935C144.369 70.7894 145.859 68.8697 147.963 68.6009C158.287 67.2955 165.843 61.0333 165.916 60.968C167.537 59.6088 169.959 59.8046 171.322 61.4249C172.689 63.0413 172.493 65.4564 170.881 66.8271C170.508 67.1458 161.589 74.6174 148.927 76.2185C148.761 76.2415 148.6 76.253 148.439 76.253V76.253ZM141.447 57.9502C139.815 57.9502 138.303 56.902 137.784 55.2587C137.151 53.2353 138.272 51.0813 140.295 50.4439C152.313 46.6697 156.625 40.108 156.801 39.8316C157.934 38.0577 160.299 37.5087 162.081 38.6337C163.866 39.7548 164.427 42.0854 163.325 43.8784C163.094 44.2508 157.542 53.0778 142.595 57.7735C142.215 57.8926 141.827 57.9502 141.447 57.9502V57.9502Z" fill="#17AF65"/>
<path fill-rule="evenodd" clip-rule="evenodd" d="M119.266 33.7315C121.178 33.8924 122.597 35.5724 122.436 37.4839L119.001 37.1949C122.436 37.4839 122.436 37.4862 122.436 37.4885L122.435 37.4932L122.434 37.5027L122.433 37.5223L122.428 37.5641C122.425 37.5931 122.422 37.6244 122.417 37.6578C122.409 37.7246 122.398 37.8002 122.383 37.8837C122.354 38.0509 122.31 38.2504 122.246 38.4768C122.118 38.9307 121.909 39.4893 121.567 40.1054C120.871 41.3595 119.69 42.7402 117.76 43.9471C115.583 45.3082 113.311 45.6058 111.715 45.6087C110.901 45.6102 110.208 45.5357 109.706 45.4583C109.453 45.4194 109.244 45.3789 109.087 45.3452C109.008 45.3283 108.942 45.3131 108.889 45.3004C108.863 45.294 108.84 45.2883 108.821 45.2834L108.794 45.2765L108.783 45.2736L108.775 45.2716C108.774 45.2712 108.772 45.2709 109.656 41.9468L108.772 45.2709C106.918 44.7783 105.815 42.8761 106.307 41.0221C106.797 39.1799 108.678 38.0786 110.521 38.5478C110.525 38.5488 110.532 38.5504 110.542 38.5525C110.58 38.5607 110.657 38.576 110.765 38.5926C110.984 38.6265 111.313 38.6626 111.702 38.6619C112.51 38.6604 113.365 38.502 114.077 38.0571C115.035 37.4578 115.382 36.9338 115.492 36.7348C115.52 36.6846 115.538 36.6459 115.549 36.6205C115.842 34.8529 117.449 33.5787 119.266 33.7315Z" fill="#0F1941"/>
<path fill-rule="evenodd" clip-rule="evenodd" d="M353.716 176.381C360.069 194.223 364.491 212.632 340.506 224.725L343.678 231.91L358.832 221.247L364.029 238.576L368.091 231.294C368.63 236.499 368.554 241.805 367.623 247.158C361.628 281.618 325.945 304.185 287.926 297.572C249.907 290.958 223.941 257.667 229.936 223.206C231.046 216.821 233.189 210.846 236.166 205.384L237.596 211.521L243.625 205.254C243.336 200.943 243.424 196.461 243.588 191.999C238.891 193.751 233.318 193.808 227.725 191.423C216.252 186.531 205.22 170.172 209.147 160.963C210.865 156.935 215.801 159.399 222.882 162.932C225.395 164.187 228.178 165.576 231.183 166.857C234.331 168.2 237.803 169.231 241.104 170.212L241.106 170.212C241.908 170.451 242.699 170.686 243.474 170.922C243.293 170.122 243.124 169.318 242.996 168.499C242.579 165.833 242.371 163.184 242.36 160.568C241.062 160.902 239.863 161.366 238.783 161.783C235.605 163.013 233.453 163.845 232.823 159.817C231.899 153.911 235.937 148.375 241.842 147.451C242.575 147.336 243.302 147.298 244.015 147.33C248.388 130.43 261.094 116.438 278.147 110.748C272.842 110.434 269.041 109.928 273.157 106.994C277.595 103.833 282.866 106.045 286.668 108.619L286.677 108.618C289.511 105.005 293.858 101.288 299.046 102.943C303.861 104.479 300.396 106.122 295.442 108.047C313.414 108.255 329.779 117.69 339.106 132.434C339.749 132.2 340.424 132.025 341.126 131.915C346.979 130.999 352.467 135.002 353.383 140.856C354.005 144.829 351.742 144.681 348.394 144.462C347.257 144.388 345.996 144.306 344.68 144.374C345.496 146.922 346.126 149.567 346.552 152.295C346.696 153.213 346.785 154.127 346.863 155.04C349.147 152.919 351.491 150.699 353.49 148.37C355.618 145.891 357.499 143.413 359.198 141.176C363.983 134.874 367.32 130.48 370.643 133.332C378.239 139.852 375.585 159.404 367.462 168.868C363.561 173.413 358.63 175.824 353.716 176.381Z" fill="#0F1941"/>
<path d="M340.506 224.725L337.129 218.029C333.564 219.826 332.032 224.102 333.645 227.755L340.506 224.725ZM353.716 176.381L352.871 168.929C350.597 169.187 348.565 170.469 347.354 172.41C346.142 174.352 345.883 176.741 346.651 178.897L353.716 176.381ZM343.678 231.91L336.817 234.939C337.724 236.994 339.506 238.535 341.671 239.136C343.836 239.737 346.156 239.336 347.994 238.043L343.678 231.91ZM358.832 221.247L366.015 219.092C365.323 216.783 363.562 214.947 361.284 214.159C359.006 213.371 356.487 213.726 354.516 215.113L358.832 221.247ZM364.029 238.576L356.846 240.73C357.711 243.617 360.22 245.704 363.216 246.031C366.211 246.358 369.112 244.861 370.579 242.229L364.029 238.576ZM368.091 231.294L375.551 230.521C375.213 227.266 372.805 224.606 369.601 223.948C366.396 223.289 363.134 224.783 361.541 227.641L368.091 231.294ZM367.623 247.158L375.012 248.443L375.012 248.443L367.623 247.158ZM229.936 223.206L237.325 224.492L237.325 224.492L229.936 223.206ZM236.166 205.384L243.47 203.681C242.763 200.65 240.258 198.371 237.175 197.952C234.091 197.533 231.069 199.063 229.58 201.795L236.166 205.384ZM237.596 211.521L230.292 213.223C230.916 215.901 232.955 218.023 235.606 218.752C238.257 219.482 241.095 218.702 243.001 216.721L237.596 211.521ZM243.625 205.254L249.03 210.453C250.495 208.93 251.25 206.86 251.108 204.751L243.625 205.254ZM243.588 191.999L251.083 192.275C251.175 189.77 250.01 187.385 247.979 185.918C245.947 184.451 243.316 184.096 240.968 184.972L243.588 191.999ZM227.725 191.423L224.783 198.322L224.783 198.322L227.725 191.423ZM209.147 160.963L202.248 158.021L202.248 158.021L209.147 160.963ZM222.882 162.932L226.231 156.222L226.231 156.222L222.882 162.932ZM231.183 166.857L234.125 159.958L234.125 159.958L231.183 166.857ZM241.104 170.212L238.968 177.401C238.976 177.404 238.985 177.406 238.993 177.409L241.104 170.212ZM241.106 170.212L243.242 163.023C243.233 163.021 243.225 163.018 243.217 163.016L241.106 170.212ZM243.474 170.922L241.288 178.096C243.844 178.875 246.621 178.235 248.579 176.416C250.536 174.598 251.378 171.875 250.789 169.269L243.474 170.922ZM242.996 168.499L250.406 167.339L250.406 167.339L242.996 168.499ZM242.36 160.568L249.86 160.535C249.85 158.222 248.773 156.043 246.941 154.63C245.11 153.217 242.729 152.728 240.489 153.305L242.36 160.568ZM238.783 161.783L241.489 168.778L241.489 168.778L238.783 161.783ZM232.823 159.817L225.413 160.976L225.413 160.976L232.823 159.817ZM241.842 147.451L243.002 154.861L243.002 154.861L241.842 147.451ZM244.015 147.33L243.677 154.822C247.218 154.982 250.387 152.641 251.275 149.209L244.015 147.33ZM278.147 110.748L280.521 117.863C283.93 116.725 286.053 113.329 285.582 109.766C285.111 106.203 282.179 103.474 278.591 103.261L278.147 110.748ZM273.157 106.994L268.806 100.885L268.803 100.886L273.157 106.994ZM286.668 108.619L282.463 114.83C284.035 115.894 285.952 116.323 287.827 116.029L286.668 108.619ZM286.677 108.618L287.836 116.028C289.712 115.734 291.406 114.741 292.578 113.247L286.677 108.618ZM299.046 102.943L301.325 95.7976L301.325 95.7975L299.046 102.943ZM295.442 108.047L292.726 101.055C289.377 102.356 287.421 105.85 288.062 109.385C288.703 112.921 291.762 115.504 295.355 115.546L295.442 108.047ZM339.106 132.434L332.768 136.444C334.652 139.423 338.357 140.687 341.669 139.483L339.106 132.434ZM341.126 131.915L342.285 139.325L342.285 139.325L341.126 131.915ZM353.383 140.856L345.973 142.015L345.973 142.015L353.383 140.856ZM348.394 144.462L348.882 136.978L348.882 136.978L348.394 144.462ZM344.68 144.374L344.294 136.883C341.97 137.003 339.834 138.195 338.511 140.109C337.187 142.023 336.828 144.443 337.537 146.659L344.68 144.374ZM346.552 152.295L353.962 151.135L353.962 151.135L346.552 152.295ZM346.863 155.04L339.39 155.676C339.633 158.534 341.484 161.003 344.16 162.036C346.835 163.07 349.865 162.488 351.966 160.536L346.863 155.04ZM353.49 148.37L359.181 153.255L359.181 153.255L353.49 148.37ZM359.198 141.176L353.224 136.641L353.224 136.641L359.198 141.176ZM370.643 133.332L365.758 139.023L365.758 139.023L370.643 133.332ZM367.462 168.868L373.153 173.753L373.153 173.753L367.462 168.868ZM343.883 231.422C357.673 224.469 364.444 214.922 365.923 203.688C367.285 193.346 363.929 182.705 360.782 173.865L346.651 178.897C349.856 187.898 351.887 195.384 351.052 201.73C350.334 207.184 347.324 212.889 337.129 218.029L343.883 231.422ZM350.539 228.88L347.367 221.696L333.645 227.755L336.817 234.939L350.539 228.88ZM354.516 215.113L339.362 225.776L347.994 238.043L363.147 227.381L354.516 215.113ZM371.213 236.421L366.015 219.092L351.648 223.402L356.846 240.73L371.213 236.421ZM361.541 227.641L357.479 234.922L370.579 242.229L374.641 234.947L361.541 227.641ZM375.012 248.443C376.076 242.327 376.152 236.321 375.551 230.521L360.631 232.068C361.109 236.677 361.032 241.284 360.234 245.873L375.012 248.443ZM286.641 304.961C328.039 312.162 368.191 287.653 375.012 248.443L360.234 245.873C355.065 275.584 323.851 296.209 289.212 290.183L286.641 304.961ZM222.546 221.921C215.726 261.131 245.243 297.759 286.641 304.961L289.212 290.183C254.572 284.157 232.156 254.204 237.325 224.492L222.546 221.921ZM229.58 201.795C226.226 207.952 223.802 214.702 222.546 221.921L237.325 224.492C238.29 218.94 240.153 213.74 242.751 208.972L229.58 201.795ZM244.9 209.819L243.47 203.681L228.861 207.086L230.292 213.223L244.9 209.819ZM238.22 200.054L232.191 206.321L243.001 216.721L249.03 210.453L238.22 200.054ZM236.093 191.724C235.928 196.232 235.825 201.037 236.142 205.756L251.108 204.751C250.846 200.849 250.921 196.689 251.083 192.275L236.093 191.724ZM224.783 198.322C232.134 201.456 239.697 201.454 246.209 199.027L240.968 184.972C238.084 186.047 234.502 186.159 230.667 184.524L224.783 198.322ZM202.248 158.021C200.453 162.231 200.583 166.701 201.467 170.584C202.36 174.506 204.131 178.355 206.323 181.82C210.624 188.622 217.322 195.14 224.783 198.322L230.667 184.524C226.655 182.813 222.101 178.705 219 173.803C217.49 171.415 216.522 169.142 216.093 167.254C215.654 165.327 215.878 164.299 216.046 163.905L202.248 158.021ZM226.231 156.222C223.04 154.629 219.117 152.618 215.736 151.815C213.965 151.394 211.337 151.035 208.583 151.982C205.434 153.065 203.364 155.404 202.248 158.021L216.046 163.905C215.952 164.124 215.716 164.579 215.226 165.066C214.714 165.576 214.093 165.949 213.461 166.167C212.337 166.553 211.707 166.275 212.27 166.409C212.752 166.523 213.582 166.811 214.925 167.413C216.238 168 217.724 168.74 219.532 169.643L226.231 156.222ZM234.125 159.958C231.356 158.778 228.765 157.487 226.231 156.222L219.532 169.643C222.024 170.887 225 172.374 228.242 173.756L234.125 159.958ZM243.24 163.023C239.858 162.018 236.809 161.103 234.125 159.958L228.242 173.756C231.854 175.297 235.749 176.445 238.968 177.401L243.24 163.023ZM243.217 163.016L243.215 163.015L238.993 177.409L238.995 177.409L243.217 163.016ZM245.66 163.747C244.856 163.503 244.039 163.26 243.242 163.023L238.97 177.402C239.776 177.641 240.543 177.869 241.288 178.096L245.66 163.747ZM235.586 169.658C235.752 170.72 235.963 171.712 236.158 172.575L250.789 169.269C250.623 168.532 250.496 167.916 250.406 167.339L235.586 169.658ZM234.86 160.6C234.873 163.593 235.111 166.619 235.586 169.658L250.406 167.339C250.047 165.048 249.869 162.776 249.86 160.535L234.86 160.6ZM241.489 168.778C242.614 168.343 243.421 168.039 244.231 167.83L240.489 153.305C238.703 153.765 237.112 154.388 236.078 154.788L241.489 168.778ZM225.413 160.976C225.653 162.515 226.164 164.554 227.5 166.397C229.071 168.566 231.341 169.854 233.809 170.199C235.87 170.488 237.662 170.057 238.658 169.773C239.712 169.472 240.786 169.05 241.489 168.778L236.078 154.788C235.192 155.131 234.804 155.274 234.541 155.349C234.22 155.441 234.838 155.198 235.886 155.344C236.492 155.429 237.23 155.641 237.977 156.085C238.726 156.53 239.274 157.083 239.646 157.596C240.301 158.5 240.307 159.133 240.232 158.657L225.413 160.976ZM240.683 140.041C230.685 141.605 223.848 150.978 225.413 160.976L240.232 158.657C239.949 156.844 241.189 155.144 243.002 154.861L240.683 140.041ZM244.353 139.838C243.142 139.783 241.913 139.848 240.683 140.041L243.002 154.861C243.236 154.824 243.461 154.813 243.677 154.822L244.353 139.838ZM275.773 103.634C256.267 110.142 241.753 126.134 236.754 145.451L251.275 149.209C255.023 134.727 265.92 122.734 280.521 117.863L275.773 103.634ZM268.803 100.886C268.063 101.414 267.256 102.057 266.526 102.827C265.862 103.529 264.818 104.795 264.271 106.617C263.618 108.789 263.831 111.29 265.224 113.451C266.392 115.264 267.973 116.178 268.848 116.602C270.562 117.433 272.445 117.728 273.565 117.876C274.891 118.052 276.354 118.155 277.703 118.235L278.591 103.261C277.288 103.184 276.286 103.106 275.535 103.006C274.579 102.88 274.775 102.806 275.39 103.104C275.715 103.262 276.893 103.869 277.832 105.325C278.995 107.129 279.15 109.223 278.637 110.93C278.23 112.288 277.522 113.031 277.417 113.142C277.247 113.321 277.221 113.307 277.51 113.101L268.803 100.886ZM290.873 102.409C288.566 100.847 285.358 99.0645 281.652 98.3074C277.748 97.5097 273.082 97.8389 268.806 100.885L277.507 113.103C277.67 112.987 277.858 112.842 278.65 113.004C279.64 113.206 280.968 113.817 282.463 114.83L290.873 102.409ZM285.517 101.208L285.509 101.209L287.827 116.029L287.836 116.028L285.517 101.208ZM301.325 95.7975C296.322 94.2016 291.778 95.3151 288.305 97.2663C285.008 99.1187 282.496 101.795 280.776 103.989L292.578 113.247C293.691 111.828 294.77 110.839 295.652 110.344C296.359 109.947 296.582 110.029 296.766 110.088L301.325 95.7975ZM298.157 115.038C299.416 114.549 300.777 114.003 301.985 113.43C303.006 112.946 304.708 112.089 306.086 110.775C306.789 110.103 308.014 108.75 308.572 106.667C309.238 104.185 308.677 101.74 307.392 99.8704C306.315 98.3023 304.934 97.4154 304.086 96.95C303.157 96.4396 302.191 96.0738 301.325 95.7976L296.766 110.088C297.104 110.196 297.084 110.217 296.867 110.098C296.732 110.025 295.832 109.533 295.029 108.365C294.02 106.896 293.528 104.855 294.084 102.783C294.532 101.111 295.468 100.173 295.729 99.9234C296.223 99.4523 296.431 99.4628 295.559 99.8763C294.875 100.201 293.944 100.582 292.726 101.055L298.157 115.038ZM345.445 128.425C334.783 111.571 316.086 100.785 295.528 100.547L295.355 115.546C310.742 115.724 324.775 123.809 332.768 136.444L345.445 128.425ZM339.966 124.505C338.784 124.69 337.639 124.987 336.543 125.386L341.669 139.483C341.86 139.413 342.065 139.36 342.285 139.325L339.966 124.505ZM360.793 139.696C359.237 129.75 349.912 122.949 339.966 124.505L342.285 139.325C344.046 139.05 345.698 140.254 345.973 142.015L360.793 139.696ZM347.905 151.946C348.644 151.995 349.783 152.075 350.868 152.047C351.891 152.021 353.727 151.896 355.606 151C357.862 149.924 359.634 148 360.465 145.457C361.17 143.302 361.03 141.215 360.793 139.696L345.973 142.015C346.046 142.483 345.857 141.867 346.208 140.795C346.407 140.187 346.764 139.483 347.351 138.822C347.936 138.163 348.585 137.73 349.148 137.461C350.121 136.998 350.802 137.044 350.479 137.052C350.217 137.059 349.818 137.039 348.882 136.978L347.905 151.946ZM345.066 151.864C345.88 151.822 346.72 151.869 347.905 151.946L348.882 136.978C347.795 136.907 346.112 136.79 344.294 136.883L345.066 151.864ZM353.962 151.135C353.476 148.025 352.756 145.004 351.823 142.088L337.537 146.659C338.235 148.841 338.776 151.11 339.143 153.454L353.962 151.135ZM354.336 154.404C354.254 153.447 354.148 152.321 353.962 151.135L339.143 153.454C339.244 154.105 339.316 154.808 339.39 155.676L354.336 154.404ZM347.799 143.485C346.107 145.456 344.05 147.417 341.759 149.545L351.966 160.536C354.244 158.421 356.874 155.942 359.181 153.255L347.799 143.485ZM353.224 136.641C351.512 138.896 349.759 141.201 347.799 143.485L359.181 153.255C361.476 150.58 363.486 147.93 365.171 145.712L353.224 136.641ZM375.527 127.641C373.368 125.788 370.477 124.606 367.174 125.029C364.285 125.398 362.087 126.884 360.686 128.044C358.009 130.261 355.381 133.8 353.224 136.641L365.171 145.712C366.393 144.102 367.398 142.781 368.315 141.673C369.254 140.539 369.871 139.914 370.252 139.598C370.698 139.229 370.256 139.757 369.077 139.907C368.414 139.992 367.692 139.932 367.007 139.702C366.352 139.482 365.939 139.178 365.758 139.023L375.527 127.641ZM373.153 173.753C378.436 167.598 381.558 158.79 382.406 150.786C382.837 146.709 382.722 142.474 381.787 138.561C380.862 134.688 379 130.621 375.527 127.641L365.758 139.023C366.083 139.302 366.739 140.125 367.198 142.048C367.648 143.93 367.786 146.397 367.489 149.206C366.878 154.975 364.611 160.674 361.771 163.983L373.153 173.753ZM354.561 183.833C361.37 183.062 368.028 179.724 373.153 173.753L361.771 163.983C359.095 167.101 355.89 168.587 352.871 168.929L354.561 183.833Z" fill="#FFFCF9"/>
<path d="M234.785 214.444L246.961 201.787L257.623 216.94L276.331 211.329L286.994 226.482L308.696 203.66L323.661 219.562L337.318 217.505L343.678 231.91L358.832 221.247L364.443 239.955L350.598 268.577L299.526 281.858L253.693 265.019L232.367 234.712L234.785 214.444Z" fill="#C5C5FF"/>
<path d="M346.947 156.062C346.844 154.809 346.75 153.555 346.552 152.295C342.54 126.652 320.56 108.338 295.441 108.047C300.396 106.122 303.861 104.48 299.046 102.943C293.858 101.288 289.511 105.005 286.677 108.618L286.668 108.62C282.866 106.045 277.595 103.833 273.157 106.994C269.04 109.928 272.842 110.434 278.147 110.749C254.322 118.698 238.983 142.852 242.996 168.499C243.193 169.759 243.486 170.982 243.771 172.21C246.148 201.014 227.571 246.742 306.356 234.414C385.141 222.086 353.484 184.219 346.947 156.062Z" fill="#FFD370"/>
<path d="M308.518 156.422C310.589 169.657 305.223 173.304 298.073 174.423C290.924 175.541 284.7 173.708 282.629 160.473C280.558 147.238 284.674 135.604 291.824 134.485C298.974 133.367 306.447 143.187 308.518 156.422Z" fill="#FF8213"/>
<path d="M243.846 160.258C249.752 159.334 255.132 162.377 254.208 156.471C253.284 150.566 247.748 146.527 241.842 147.451C235.937 148.375 231.899 153.912 232.823 159.817C233.747 165.723 237.941 161.182 243.846 160.258Z" fill="#0F1941"/>
<path d="M343.1 144.534C348.954 143.618 354.299 146.71 353.383 140.856C352.467 135.003 346.979 131 341.126 131.916C335.272 132.832 331.27 138.319 332.186 144.173C333.101 150.027 337.247 145.45 343.1 144.534Z" fill="#0F1941"/>
<path d="M352.095 259.973L339.935 253.425L318.234 276.247L309.068 252.488L298.965 259.596L283.251 247.997L267.349 262.962L258.932 234.901L244.527 241.261L236.166 205.384C233.19 210.847 231.046 216.822 229.936 223.207C223.941 257.668 249.907 290.959 287.926 297.572C325.945 304.186 361.628 281.619 367.623 247.159C368.554 241.806 368.631 236.5 368.091 231.295L352.095 259.973Z" fill="#F9F7F3"/>
<path d="M367.462 168.869C359.339 178.333 346.746 178.546 339.15 172.025C331.553 165.505 345.367 157.834 353.49 148.37C361.613 138.906 366.14 129.468 370.643 133.332C378.239 139.853 375.585 159.405 367.462 168.869Z" fill="#FFD370"/>
<path d="M227.725 191.423C239.198 196.315 250.584 190.933 254.511 181.724C258.438 172.516 242.656 171.75 231.183 166.858C219.711 161.966 211.474 155.505 209.147 160.963C205.22 170.172 216.252 186.531 227.725 191.423Z" fill="#FFD370"/>
<path fill-rule="evenodd" clip-rule="evenodd" d="M311.057 147.646C312.943 148 314.184 149.815 313.83 151.701L310.523 151.08C313.83 151.701 313.83 151.702 313.83 151.704L313.829 151.708L313.827 151.716L313.824 151.735L313.814 151.786C313.805 151.826 313.795 151.876 313.781 151.936C313.755 152.057 313.717 152.219 313.666 152.417C313.563 152.812 313.408 153.353 313.182 153.997C312.732 155.277 311.99 157.006 310.811 158.812C308.42 162.47 304.199 166.465 297.177 167.559C290.235 168.641 284.973 166.344 281.511 163.784C279.8 162.519 278.525 161.191 277.672 160.172C277.243 159.66 276.914 159.219 276.685 158.893C276.57 158.73 276.48 158.594 276.413 158.492C276.38 158.441 276.353 158.399 276.332 158.365L276.305 158.321L276.294 158.304L276.29 158.297L276.288 158.294C276.287 158.293 276.286 158.291 279.258 156.492L276.286 158.291C275.293 156.65 275.818 154.514 277.459 153.521C279.094 152.531 281.22 153.049 282.218 154.676C282.221 154.68 282.227 154.689 282.236 154.704C282.26 154.74 282.303 154.806 282.368 154.897C282.497 155.081 282.707 155.364 282.996 155.71C283.58 156.407 284.464 157.328 285.642 158.199C287.957 159.911 291.386 161.431 296.107 160.695C300.748 159.972 303.413 157.433 304.995 155.012C305.801 153.778 306.316 152.581 306.627 151.695C306.781 151.256 306.882 150.904 306.94 150.676C306.97 150.563 306.989 150.481 306.999 150.437C307.003 150.417 307.005 150.405 307.006 150.4C307.369 148.525 309.178 147.293 311.057 147.646Z" fill="#0F1941"/>
<path fill-rule="evenodd" clip-rule="evenodd" d="M138.236 248.446C141.802 257.175 147.558 263.087 153.282 261.944C166.873 259.232 169.045 277.172 155.454 279.884C141.863 282.597 119.66 272.626 105.453 255.946C97.0292 246.055 88.3321 244.965 88.3321 244.965C88.3321 244.965 79.635 243.874 69.0254 251.377C51.1398 264.032 27.1618 268.211 14.6615 262.227C2.16131 256.242 8.69132 239.393 21.1915 245.378C26.4566 247.9 33.4939 243.592 39.1051 236.014C30.7608 236.519 23.25 235.533 18.3062 233.166C5.80603 227.181 11.7907 214.681 24.2909 220.666C28.6854 222.77 33.531 221.277 37.5191 217.441C26.6671 211.3 32.5279 199.904 44.4716 205.455C45.3426 202.534 45.8582 199.34 45.9069 195.98C45.3879 194.241 44.9107 192.494 44.4763 190.746C44.253 190.729 44.0289 190.706 43.8042 190.678C36.3321 189.741 31.0344 182.924 31.9715 175.452C32.6911 169.714 36.3506 169.462 41.3938 170.078C41.21 165.821 41.3447 161.744 41.818 157.97C41.9988 156.529 42.2295 155.126 42.5083 153.761L27.2542 159.697L24.449 152.489L45.4303 144.324C54.6146 122.885 78.1308 113.938 104.348 117.226C131.066 120.577 151.927 135.548 154.937 159.363L171.038 170.874L166.54 177.166L155.183 169.046C155.112 170.068 155.011 171.102 154.88 172.15C154.406 175.932 153.527 179.924 152.293 184.012L152.319 184.015C158.605 184.696 163.361 185.211 162.532 191.826C161.595 199.298 154.778 204.595 147.306 203.658C146.283 203.53 145.3 203.291 144.369 202.956C143.469 204.643 142.522 206.318 141.531 207.972C140.749 211.24 140.46 214.463 140.582 217.509C153.528 215.078 156.393 227.57 144.36 230.84C147.277 235.542 151.604 238.185 156.382 237.232C169.973 234.519 172.685 248.11 159.094 250.823C153.719 251.895 146.197 250.996 138.236 248.446Z" fill="#0F1941"/>
<path d="M153.282 261.944L151.815 254.589L151.814 254.589L153.282 261.944ZM138.236 248.446L140.524 241.304C137.748 240.415 134.709 241.214 132.73 243.354C130.751 245.493 130.191 248.585 131.293 251.283L138.236 248.446ZM105.453 255.946L111.163 251.083L111.163 251.083L105.453 255.946ZM88.3321 244.965L87.3988 252.406L87.3988 252.406L88.3321 244.965ZM69.0254 251.377L64.6948 245.254L64.6934 245.255L69.0254 251.377ZM14.6615 262.227L17.9002 255.462L17.9002 255.462L14.6615 262.227ZM21.1915 245.378L24.431 238.614L24.4302 238.613L21.1915 245.378ZM39.1051 236.014L45.1326 240.477C46.8668 238.135 47.0873 235 45.698 232.438C44.3087 229.877 41.5612 228.352 38.6523 228.527L39.1051 236.014ZM18.3062 233.166L15.0676 239.93L15.0676 239.93L18.3062 233.166ZM24.2909 220.666L21.0522 227.43L21.0522 227.43L24.2909 220.666ZM37.5191 217.441L42.7185 222.846C44.4256 221.204 45.2566 218.852 44.9601 216.502C44.6635 214.152 43.2742 212.08 41.2127 210.913L37.5191 217.441ZM44.4716 205.455L41.3106 212.256C43.2863 213.174 45.5636 213.188 47.5502 212.294C49.5368 211.399 51.0364 209.685 51.6589 207.598L44.4716 205.455ZM45.9069 195.98L53.4061 196.088C53.4171 195.325 53.3118 194.566 53.0936 193.835L45.9069 195.98ZM44.4763 190.746L51.755 188.937C50.9752 185.798 48.2709 183.513 45.0459 183.267L44.4763 190.746ZM43.8042 190.678L44.7376 183.236L44.7375 183.236L43.8042 190.678ZM31.9715 175.452L39.4132 176.385L39.4132 176.385L31.9715 175.452ZM41.3938 170.078L40.4841 177.522C42.672 177.79 44.8667 177.081 46.4852 175.585C48.1036 174.089 48.982 171.956 48.8869 169.754L41.3938 170.078ZM41.818 157.97L49.2597 158.903L49.2598 158.903L41.818 157.97ZM42.5083 153.761L49.8567 155.261C50.4059 152.571 49.4418 149.797 47.3431 148.027C45.2443 146.257 42.3465 145.776 39.7881 146.771L42.5083 153.761ZM27.2542 159.697L20.2649 162.418C21.7672 166.278 26.1143 168.189 29.9744 166.687L27.2542 159.697ZM24.449 152.489L21.7288 145.5C17.8687 147.002 15.9573 151.349 17.4596 155.21L24.449 152.489ZM45.4303 144.324L48.1504 151.313C50.0271 150.583 51.5312 149.128 52.3243 147.277L45.4303 144.324ZM104.348 117.226L105.281 109.784L104.348 117.226ZM154.937 159.363L147.496 160.303C147.759 162.377 148.875 164.248 150.575 165.464L154.937 159.363ZM171.038 170.874L177.14 175.236C178.296 173.618 178.763 171.606 178.437 169.644C178.111 167.682 177.018 165.93 175.4 164.773L171.038 170.874ZM166.54 177.166L162.178 183.267C165.548 185.676 170.232 184.897 172.641 181.528L166.54 177.166ZM155.183 169.046L159.545 162.945C157.335 161.365 154.443 161.104 151.986 162.262C149.529 163.42 147.889 165.816 147.701 168.526L155.183 169.046ZM154.88 172.15L162.322 173.083L162.322 173.083L154.88 172.15ZM152.293 184.012L145.113 181.846C144.469 183.981 144.809 186.293 146.04 188.153C147.272 190.013 149.267 191.228 151.485 191.468L152.293 184.012ZM152.319 184.015L151.511 191.471L151.511 191.471L152.319 184.015ZM162.532 191.826L169.973 192.759L169.973 192.759L162.532 191.826ZM147.306 203.658L148.239 196.217L148.239 196.217L147.306 203.658ZM144.369 202.956L146.911 195.9C143.406 194.638 139.506 196.139 137.752 199.426L144.369 202.956ZM141.531 207.972L135.097 204.119C134.705 204.773 134.415 205.484 134.238 206.225L141.531 207.972ZM140.582 217.509L133.088 217.81C133.176 219.987 134.206 222.018 135.91 223.376C137.615 224.733 139.825 225.282 141.966 224.88L140.582 217.509ZM144.36 230.84L142.393 223.603C140.107 224.224 138.249 225.889 137.381 228.093C136.513 230.297 136.738 232.781 137.987 234.794L144.36 230.84ZM156.382 237.232L157.85 244.587L157.85 244.587L156.382 237.232ZM159.094 250.823L160.562 258.178L160.562 258.178L159.094 250.823ZM151.814 254.589C152.177 254.517 151.655 254.896 150.067 253.414C148.494 251.946 146.694 249.317 145.179 245.61L131.293 251.283C133.345 256.305 136.205 260.996 139.833 264.381C143.445 267.751 148.663 270.515 154.751 269.299L151.814 254.589ZM156.922 287.239C167.422 285.144 173.038 276.494 172.007 267.979C171.507 263.847 169.396 259.779 165.592 257.094C161.722 254.363 156.859 253.583 151.815 254.589L154.75 269.299C155.652 269.119 156.224 269.156 156.527 269.21C156.819 269.262 156.927 269.339 156.942 269.349C156.943 269.35 157.073 269.428 157.116 269.781C157.16 270.144 157.072 270.633 156.73 271.094C156.439 271.488 155.721 272.183 153.986 272.529L156.922 287.239ZM99.7433 260.809C107.578 270.008 117.557 277.308 127.496 281.976C137.239 286.551 147.91 289.038 156.922 287.239L153.986 272.529C149.406 273.443 142.181 272.3 133.872 268.399C125.76 264.589 117.534 258.564 111.163 251.083L99.7433 260.809ZM88.3321 244.965C87.3988 252.406 87.3952 252.406 87.3916 252.405C87.3905 252.405 87.3869 252.405 87.3846 252.405C87.3801 252.404 87.3756 252.403 87.3712 252.403C87.3625 252.402 87.3543 252.401 87.3466 252.4C87.3312 252.398 87.3177 252.396 87.3062 252.394C87.2831 252.391 87.2678 252.388 87.2598 252.387C87.244 252.385 87.2577 252.387 87.2991 252.395C87.3819 252.411 87.5741 252.451 87.8597 252.528C88.4316 252.683 89.3715 252.986 90.5569 253.54C92.9065 254.639 96.2928 256.758 99.7433 260.809L111.163 251.083C106.189 245.243 101.015 241.872 96.9103 239.952C94.8685 238.998 93.1076 238.41 91.7855 238.051C91.1242 237.872 90.5711 237.749 90.1454 237.667C89.9325 237.626 89.7512 237.595 89.6038 237.571C89.5301 237.56 89.4649 237.55 89.4084 237.542C89.3802 237.538 89.3541 237.535 89.3302 237.531C89.3183 237.53 89.307 237.528 89.2961 237.527C89.2907 237.526 89.2855 237.525 89.2803 237.525C89.2778 237.525 89.274 237.524 89.2728 237.524C89.2691 237.523 89.2654 237.523 88.3321 244.965ZM73.3559 257.501C77.7025 254.427 81.5086 253.21 84.0576 252.725C85.3436 252.481 86.3294 252.42 86.9219 252.411C87.2179 252.406 87.4141 252.415 87.4983 252.42C87.5404 252.422 87.5542 252.424 87.5382 252.422C87.5302 252.421 87.5147 252.42 87.4916 252.417C87.48 252.416 87.4665 252.415 87.451 252.413C87.4433 252.412 87.4351 252.411 87.4264 252.41C87.422 252.409 87.4176 252.409 87.413 252.408C87.4107 252.408 87.4071 252.407 87.406 252.407C87.4024 252.407 87.3988 252.406 88.3321 244.965C89.2654 237.523 89.2617 237.522 89.258 237.522C89.2568 237.522 89.253 237.521 89.2504 237.521C89.2453 237.52 89.24 237.52 89.2346 237.519C89.2238 237.518 89.2124 237.516 89.2005 237.515C89.1766 237.512 89.1504 237.509 89.1221 237.506C89.0654 237.5 88.9997 237.493 88.9255 237.486C88.7769 237.473 88.5935 237.458 88.377 237.445C87.9442 237.42 87.3781 237.402 86.6929 237.412C85.3232 237.433 83.4716 237.568 81.2571 237.989C76.8052 238.835 70.9579 240.824 64.6948 245.254L73.3559 257.501ZM11.4228 268.992C19.711 272.96 30.6661 273.185 41.2369 271.158C52.0209 269.089 63.4934 264.479 73.3574 257.5L64.6934 245.255C56.6718 250.931 47.2124 254.738 38.4109 256.426C29.3963 258.156 22.1123 257.479 17.9002 255.462L11.4228 268.992ZM24.4302 238.613C19.7911 236.392 14.8854 235.947 10.4614 237.639C6.11189 239.302 3.06239 242.723 1.55822 246.604C-1.54124 254.601 1.76596 264.368 11.4229 268.992L17.9002 255.462C16.304 254.698 15.7794 253.847 15.594 253.393C15.3767 252.86 15.4125 252.365 15.5445 252.024C15.6086 251.859 15.6832 251.761 15.7296 251.713C15.7697 251.671 15.7954 251.659 15.8183 251.65C15.8346 251.644 15.9583 251.596 16.2535 251.618C16.5599 251.64 17.1236 251.746 17.9529 252.143L24.4302 238.613ZM33.0776 231.551C30.6946 234.769 28.3009 236.872 26.4145 237.906C24.5087 238.95 24.097 238.454 24.431 238.614L17.9521 252.142C23.5512 254.824 29.2907 253.434 33.6226 251.061C37.9739 248.676 41.9044 244.837 45.1326 240.477L33.0776 231.551ZM15.0676 239.93C21.6434 243.079 30.6121 244.041 39.5579 243.5L38.6523 228.527C30.9096 228.996 24.8566 227.987 21.5449 226.401L15.0676 239.93ZM27.5296 213.901C19.4755 210.045 9.24583 210.652 5.15872 219.189C1.07162 227.725 7.01354 236.075 15.0676 239.93L21.5449 226.401C19.5022 225.423 18.9363 224.524 18.8597 224.378C18.8236 224.308 18.8919 224.41 18.9035 224.677C18.9153 224.949 18.8621 225.302 18.6881 225.666C18.514 226.029 18.2719 226.293 18.0528 226.454C17.8379 226.612 17.7156 226.623 17.7923 226.607C17.9545 226.575 19.0095 226.452 21.0522 227.43L27.5296 213.901ZM32.3196 212.035C31.0374 213.269 29.9223 213.826 29.1632 214.024C28.5023 214.196 28.022 214.137 27.5296 213.901L21.0522 227.43C29.243 231.352 37.371 227.99 42.7185 222.846L32.3196 212.035ZM47.6326 198.653C39.8435 195.033 30.1801 195.593 25.8698 203.459C21.4954 211.442 26.4807 219.812 33.8255 223.968L41.2127 210.913C39.5812 209.99 39.2441 209.249 39.2423 209.245C39.2419 209.244 39.3058 209.398 39.298 209.688C39.2901 209.982 39.209 210.33 39.0241 210.668C38.8395 211.004 38.6034 211.237 38.4036 211.374C38.2074 211.508 38.107 211.511 38.1943 211.495C38.3768 211.461 39.3872 211.362 41.3106 212.256L47.6326 198.653ZM38.4077 195.871C38.3691 198.535 37.9602 201.045 37.2843 203.312L51.6589 207.598C52.725 204.022 53.3473 200.144 53.4061 196.088L38.4077 195.871ZM37.1976 192.554C37.66 194.415 38.1679 196.274 38.7201 198.125L53.0936 193.835C52.6079 192.207 52.1614 190.573 51.755 188.937L37.1976 192.554ZM42.8708 198.12C43.2166 198.163 43.562 198.198 43.9067 198.224L45.0459 183.267C44.9439 183.26 44.8411 183.249 44.7376 183.236L42.8708 198.12ZM24.5298 174.518C23.0773 186.1 31.2888 196.667 42.8709 198.12L44.7375 183.236C41.3753 182.815 38.9916 179.747 39.4132 176.385L24.5298 174.518ZM42.3035 162.633C39.9284 162.343 35.8238 161.89 32.0981 163.492C27.2565 165.575 25.1023 169.954 24.5298 174.518L39.4132 176.385C39.502 175.677 39.6117 175.745 39.3632 176.135C39.2308 176.343 39.0325 176.584 38.7634 176.81C38.4964 177.034 38.2334 177.182 38.0245 177.272C37.6529 177.432 37.5648 177.361 38.0831 177.348C38.5954 177.335 39.341 177.383 40.4841 177.522L42.3035 162.633ZM34.3763 157.037C33.8432 161.288 33.7016 165.79 33.9008 170.402L48.8869 169.754C48.7183 165.852 48.8462 162.201 49.2597 158.903L34.3763 157.037ZM35.16 152.26C34.8419 153.818 34.5804 155.41 34.3763 157.037L49.2598 158.903C49.4172 157.648 49.6171 156.434 49.8567 155.261L35.16 152.26ZM29.9744 166.687L45.2285 160.75L39.7881 146.771L24.5341 152.708L29.9744 166.687ZM17.4596 155.21L20.2649 162.418L34.2436 156.977L31.4383 149.769L17.4596 155.21ZM42.7101 137.334L21.7288 145.5L27.1691 159.479L48.1504 151.313L42.7101 137.334ZM105.281 109.784C77.1873 106.261 49.5324 115.703 38.5363 141.37L52.3243 147.277C59.6968 130.068 79.0744 121.615 103.415 124.668L105.281 109.784ZM162.378 158.422C158.776 129.921 133.913 113.375 105.281 109.784L103.415 124.668C128.218 127.779 145.079 141.175 147.496 160.303L162.378 158.422ZM175.4 164.773L159.299 153.262L150.575 165.464L166.677 176.975L175.4 164.773ZM172.641 181.528L177.14 175.236L164.937 166.512L160.439 172.804L172.641 181.528ZM150.821 175.148L162.178 183.267L170.902 171.065L159.545 162.945L150.821 175.148ZM162.322 173.083C162.47 171.901 162.584 170.728 162.665 169.566L147.701 168.526C147.64 169.407 147.553 170.304 147.438 171.216L162.322 173.083ZM159.474 186.178C160.81 181.75 161.787 177.343 162.322 173.083L147.438 171.216C147.024 174.521 146.244 178.098 145.113 181.846L159.474 186.178ZM153.128 176.558L153.102 176.556L151.485 191.468L151.511 191.471L153.128 176.558ZM169.973 192.759C170.285 190.275 170.183 187.545 169.054 184.935C167.863 182.179 165.862 180.322 163.739 179.141C161.777 178.049 159.709 177.53 158.068 177.221C156.409 176.91 154.624 176.721 153.127 176.558L151.511 191.471C153.158 191.65 154.324 191.78 155.298 191.963C156.292 192.15 156.539 192.3 156.448 192.25C156.363 192.202 156.147 192.068 155.898 191.807C155.638 191.535 155.427 191.213 155.285 190.886C155.012 190.254 155.193 190.069 155.09 190.892L169.973 192.759ZM146.372 211.1C157.954 212.553 168.521 204.341 169.973 192.759L155.09 190.892C154.668 194.254 151.601 196.638 148.239 196.217L146.372 211.1ZM141.828 210.013C143.276 210.534 144.797 210.902 146.372 211.1L148.239 196.217C147.768 196.158 147.325 196.049 146.911 195.9L141.828 210.013ZM147.966 211.825C149.02 210.065 150.028 208.283 150.986 206.487L137.752 199.426C136.91 201.004 136.024 202.571 135.097 204.119L147.966 211.825ZM148.076 217.207C147.981 214.843 148.205 212.31 148.825 209.719L134.238 206.225C133.293 210.17 132.938 214.082 133.088 217.81L148.076 217.207ZM146.327 238.078C154.471 235.864 161.369 228.984 159.102 220.168C156.867 211.481 147.641 208.552 139.199 210.137L141.966 224.88C144.051 224.488 145.006 224.834 145.174 224.912C145.255 224.949 145.158 224.921 145.001 224.743C144.842 224.561 144.67 224.277 144.574 223.905C144.479 223.532 144.486 223.175 144.551 222.888C144.615 222.605 144.715 222.472 144.714 222.472C144.712 222.476 144.202 223.111 142.393 223.603L146.327 238.078ZM154.914 229.877C154.379 229.984 153.898 229.923 153.301 229.593C152.614 229.213 151.671 228.398 150.733 226.886L137.987 234.794C141.898 241.099 148.944 246.364 157.85 244.587L154.914 229.877ZM160.562 258.178C169.319 256.43 177.139 249.807 175.286 240.525C173.434 231.243 163.671 228.129 154.914 229.877L157.85 244.587C160.071 244.143 161.063 244.523 161.212 244.594C161.282 244.628 161.167 244.588 160.997 244.381C160.825 244.171 160.655 243.856 160.576 243.461C160.497 243.066 160.533 242.71 160.612 242.449C160.689 242.194 160.78 242.112 160.728 242.17C160.618 242.293 159.847 243.025 157.626 243.468L160.562 258.178ZM135.949 255.589C144.484 258.322 153.413 259.605 160.562 258.178L157.626 243.468C154.026 244.186 147.911 243.67 140.524 241.304L135.949 255.589Z" fill="#FFFCF9"/>
<path d="M63.0159 165.045C73.3346 188.424 57.1848 211.54 44.6846 205.555C32.1843 199.571 26.1997 212.071 38.6999 218.055C51.2001 224.04 80.1123 221.195 97.4123 207.751C102.306 203.948 106.655 204.493 106.655 204.493L63.0159 165.045Z" fill="#9048C8"/>
<path d="M132.592 173.771C116.82 193.878 126.761 220.266 140.352 217.553C153.943 214.841 156.655 228.432 143.064 231.144C129.473 233.856 102.159 223.96 88.715 206.66C84.9118 201.766 80.5633 201.221 80.5633 201.221L132.592 173.771Z" fill="#9048C8"/>
<path d="M148.622 193.45C132.85 213.556 142.791 239.944 156.382 237.232C169.973 234.519 172.685 248.11 159.094 250.823C145.503 253.535 118.189 243.639 104.745 226.339C100.942 221.445 96.5932 220.899 96.5932 220.899L148.622 193.45V193.45ZM42.6223 180.156C52.941 203.534 36.7912 226.65 24.291 220.666C11.7908 214.681 5.80614 227.181 18.3064 233.166C30.8066 239.15 59.7188 236.306 77.0187 222.861C81.9126 219.058 86.2611 219.604 86.2611 219.604L42.6223 180.156Z" fill="#B160E3"/>
<path d="M153.283 261.944C140.919 264.413 128.411 233.975 138.126 213.321C147.053 200.117 153.276 184.934 154.88 172.15C158.796 140.927 135.57 121.142 104.348 117.226C73.1256 113.31 45.7338 126.748 41.8181 157.97C40.2147 170.755 42.4966 187.004 47.8856 202.004C52.1991 224.417 32.5624 250.824 21.1916 245.378C8.69134 239.393 2.16133 256.242 14.6615 262.227C27.1618 268.211 51.1398 264.032 69.0254 251.377C79.6351 243.874 88.3321 244.965 88.3321 244.965C88.3321 244.965 97.0292 246.055 105.453 255.946C119.66 272.626 141.863 282.597 155.454 279.884C169.045 277.172 166.873 259.232 153.283 261.944Z" fill="#D492EB"/>
<path d="M43.8042 190.678C51.2763 191.615 58.0933 186.318 59.0304 178.845C59.9675 171.373 53.7759 171.685 46.3038 170.748C38.8317 169.81 32.9087 167.98 31.9715 175.452C31.0344 182.924 36.3321 189.741 43.8042 190.678Z" fill="#0F1941"/>
<path d="M147.306 203.658C154.778 204.595 161.595 199.298 162.532 191.825C163.469 184.353 157.277 184.665 149.805 183.727C142.333 182.79 136.41 180.96 135.473 188.432C134.536 195.904 139.834 202.721 147.306 203.658Z" fill="#0F1941"/>
<path d="M119.762 193.846C119.188 198.416 115.777 201.809 109.43 201.546C105.364 201.378 99.5737 198.328 94.2615 197.662C80.6566 195.956 69.5533 195.165 70.4937 187.667C71.4342 180.168 83.2255 175.473 96.8304 177.179C110.435 178.885 120.702 186.347 119.762 193.846Z" fill="#FDFDFC"/>
<path fill-rule="evenodd" clip-rule="evenodd" d="M92.3501 189.631C93.2696 189.745 94.2272 189.863 95.224 189.988C98.6012 190.411 101.962 191.526 104.375 192.326C104.5 192.367 104.623 192.408 104.742 192.448C107.706 193.428 109.031 193.788 109.75 193.818C110.625 193.854 111.184 193.755 111.496 193.665C111.797 193.579 111.899 193.493 111.903 193.49C111.903 193.49 111.903 193.489 111.904 193.489C111.908 193.486 111.918 193.479 111.942 193.434C111.972 193.376 112.039 193.221 112.081 192.932C112.07 192.864 111.959 191.6 109.203 189.597C106.297 187.485 101.627 185.576 95.868 184.853C90.109 184.131 85.1116 184.828 81.7745 186.157C80.61 186.62 79.8172 187.076 79.2788 187.469C82.3124 188.395 86.5813 188.921 92.3501 189.631ZM109.43 201.546C115.777 201.809 119.188 198.416 119.762 193.846C120.702 186.347 110.435 178.885 96.8304 177.179C83.2255 175.473 71.4342 180.168 70.4937 187.667C69.6185 194.645 79.1742 195.814 91.4698 197.318C92.3862 197.43 93.3178 197.544 94.2615 197.662C96.8676 197.989 99.5888 198.889 102.165 199.742C104.84 200.627 107.359 201.46 109.43 201.546Z" fill="#0F1941"/>
<path fill-rule="evenodd" clip-rule="evenodd" d="M60.7122 146.676L27.2542 159.697L24.449 152.489L57.9069 139.468L60.7122 146.676Z" fill="#0F1941"/>
<path fill-rule="evenodd" clip-rule="evenodd" d="M137.334 156.285L166.54 177.166L171.039 170.874L141.832 149.994L137.334 156.285Z" fill="#0F1941"/>
<path fill-rule="evenodd" clip-rule="evenodd" d="M87.9045 192.153C90.9856 190.203 94.4616 190.005 97.1394 190.34C99.2587 190.606 100.761 192.54 100.495 194.659C100.23 196.778 98.2962 198.281 96.177 198.015C94.5426 197.81 93.0788 198.031 92.0408 198.688C91.1567 199.248 89.9895 200.493 89.5864 203.706C89.3206 205.826 87.3872 207.328 85.2679 207.062C83.1487 206.797 81.6461 204.863 81.9119 202.744C82.5383 197.75 84.6694 194.2 87.9045 192.153Z" fill="#0F1941"/>
<path fill-rule="evenodd" clip-rule="evenodd" d="M77.6302 190.6C80.4495 188.815 83.6115 188.644 86.0154 188.945C88.1346 189.211 89.6371 191.145 89.3714 193.264C89.1056 195.383 87.1722 196.886 85.0529 196.62C83.6926 196.449 82.5427 196.644 81.7665 197.135C81.1442 197.529 80.1866 198.469 79.849 201.161C79.5832 203.28 77.6497 204.783 75.5305 204.517C73.4112 204.251 71.9087 202.318 72.1745 200.199C72.7354 195.726 74.657 192.481 77.6302 190.6Z" fill="#0F1941"/>
<path d="M252.696 265.546L250.653 272.762L250.653 272.762L252.696 265.546ZM210.66 274.151L208.543 281.346C211.101 282.099 213.867 281.437 215.806 279.607L210.66 274.151ZM255.608 305.633L256.52 313.077L256.52 313.077L255.608 305.633ZM255.309 305.67L254.376 298.228L254.376 298.228L255.309 305.67ZM251.466 305.99L251.281 298.493C248.507 298.561 245.998 300.155 244.757 302.637C243.517 305.119 243.747 308.083 245.358 310.342L251.466 305.99ZM254.645 310.695L248.329 314.74C249.928 317.237 252.849 318.557 255.78 318.108L254.645 310.695ZM255.183 310.621L254.272 303.176L254.272 303.176L255.183 310.621ZM274.888 326.027L267.444 326.938L267.444 326.938L274.888 326.027ZM266.145 334.527L265.491 327.055C263.215 327.254 261.154 328.48 259.892 330.384C258.631 332.288 258.306 334.664 259.009 336.837L266.145 334.527ZM268.583 344.992L261.139 345.904L261.139 345.904L268.583 344.992ZM267.859 357.935L260.636 355.914C260.359 356.907 260.288 357.945 260.43 358.966L267.859 357.935ZM267.918 358.385L260.473 359.294L260.473 359.297L267.918 358.385ZM235.801 399.463L236.712 406.908L236.712 406.908L235.801 399.463ZM206.604 384.35L212.925 380.313L212.924 380.311L206.604 384.35ZM200.609 385.084L193.502 382.688L193.501 382.691L200.609 385.084ZM175.921 406.794L175.01 399.35L175.01 399.35L175.921 406.794ZM134.922 375.285L142.351 374.253C142.204 373.196 141.833 372.182 141.263 371.28L134.922 375.285ZM130.497 361.898L137.942 360.987L137.942 360.987L130.497 361.898ZM130.124 351.2L137.618 351.503C137.708 349.276 136.803 347.125 135.148 345.632C133.494 344.139 131.261 343.459 129.055 343.777L130.124 351.2ZM120.276 344.957L112.832 345.868L112.832 345.868L120.276 344.957ZM134.839 325.375L136.103 332.768C138.865 332.296 141.134 330.323 141.985 327.652L134.839 325.375ZM136.699 320.038L143.713 322.694C144.69 320.114 144.171 317.206 142.363 315.122C140.555 313.038 137.749 312.116 135.057 312.719L136.699 320.038ZM132.846 320.664L131.956 313.217L131.956 313.217L132.846 320.664ZM132.546 320.7L131.635 313.256L131.635 313.256L132.546 320.7ZM125.701 281.095L121.977 274.585L121.977 274.585L125.701 281.095ZM168.695 279.375L164.91 285.85C167.235 287.209 170.11 287.217 172.442 285.872L168.695 279.375ZM189.617 272.393L190.528 279.837L190.528 279.837L189.617 272.393ZM254.739 258.33C243.656 255.191 232.723 256.579 224.202 259.135C215.888 261.629 208.842 265.556 205.513 268.696L215.806 279.607C216.875 278.598 221.554 275.59 228.512 273.503C235.264 271.478 243.15 270.638 250.653 272.762L254.739 258.33ZM256.52 313.077C263.337 312.242 267.26 306.868 269.216 302.42C271.282 297.721 272.162 292.045 272.048 286.593C271.933 281.123 270.805 275.233 268.251 270.151C265.677 265.029 261.342 260.199 254.739 258.33L250.653 272.762C252.05 273.158 253.545 274.292 254.849 276.887C256.173 279.521 256.971 283.101 257.051 286.907C257.131 290.731 256.472 294.137 255.485 296.381C254.388 298.876 253.743 298.305 254.697 298.188L256.52 313.077ZM256.241 313.112C256.35 313.098 256.439 313.087 256.52 313.077L254.697 298.188C254.591 298.201 254.48 298.215 254.376 298.228L256.241 313.112ZM251.651 313.488C253.658 313.438 255.325 313.226 256.241 313.112L254.376 298.228C253.499 298.338 252.477 298.463 251.281 298.493L251.651 313.488ZM260.96 306.65C259.884 304.969 258.755 303.296 257.574 301.638L245.358 310.342C246.392 311.795 247.383 313.263 248.329 314.74L260.96 306.65ZM254.272 303.176C254.016 303.207 253.762 303.242 253.509 303.281L255.78 318.108C255.884 318.092 255.989 318.078 256.095 318.065L254.272 303.176ZM282.333 325.116C280.642 311.308 268.079 301.486 254.272 303.176L256.095 318.065C261.679 317.381 266.76 321.354 267.444 326.938L282.333 325.116ZM266.798 341.998C269.47 341.764 274.019 341.315 277.548 338.608C282.054 335.153 282.924 329.948 282.333 325.116L267.444 326.938C267.574 328.001 267.437 328.22 267.515 327.969C267.561 327.819 267.659 327.582 267.843 327.317C268.028 327.05 268.237 326.846 268.421 326.705C268.747 326.454 268.838 326.524 268.252 326.669C267.668 326.813 266.811 326.94 265.491 327.055L266.798 341.998ZM276.027 344.081C275.576 340.394 274.626 336.373 273.28 332.216L259.009 336.837C260.134 340.31 260.829 343.378 261.139 345.904L276.027 344.081ZM275.082 359.956C276.376 355.328 276.758 350.052 276.027 344.081L261.139 345.904C261.662 350.176 261.33 353.435 260.636 355.914L275.082 359.956ZM275.362 357.477C275.339 357.285 275.314 357.095 275.288 356.904L260.43 358.966C260.445 359.076 260.46 359.185 260.473 359.294L275.362 357.477ZM236.712 406.908C261.04 403.929 278.339 381.793 275.362 357.474L260.473 359.297C262.444 375.394 250.992 390.047 234.89 392.019L236.712 406.908ZM200.284 388.387C205.084 395.902 210.716 401.112 217.181 404.132C223.651 407.154 230.326 407.69 236.712 406.908L234.89 392.019C230.603 392.544 226.886 392.109 223.53 390.541C220.168 388.971 216.539 385.971 212.925 380.313L200.284 388.387ZM207.716 387.48C206.622 390.727 202.131 391.277 200.285 388.389L212.924 380.311C207.987 372.588 196.43 374.003 193.502 382.688L207.716 387.48ZM176.833 414.239C183.222 413.457 189.571 411.327 195.12 406.832C200.665 402.342 204.872 395.927 207.717 387.477L193.501 382.691C191.359 389.055 188.561 392.842 185.68 395.176C182.802 397.506 179.3 398.825 175.01 399.35L176.833 414.239ZM127.494 376.318C130.821 400.254 152.749 417.187 176.833 414.239L175.01 399.35C159.069 401.302 144.553 390.093 142.351 374.253L127.494 376.318ZM123.053 362.81C123.863 369.424 125.792 374.875 128.581 379.291L141.263 371.28C139.815 368.986 138.52 365.711 137.942 360.987L123.053 362.81ZM122.63 350.897C122.461 355.06 122.595 359.071 123.053 362.81L137.942 360.987C137.596 358.164 137.477 354.974 137.618 351.503L122.63 350.897ZM112.832 345.868C113.394 350.457 115.315 355.155 120.188 357.556C124.175 359.522 128.582 358.999 131.193 358.623L129.055 343.777C128.494 343.857 128.019 343.913 127.612 343.945C127.204 343.977 126.906 343.983 126.695 343.976C126.239 343.961 126.398 343.894 126.82 344.102C127.045 344.213 127.286 344.374 127.507 344.584C127.725 344.791 127.854 344.981 127.917 345.09C128.02 345.271 127.845 345.06 127.721 344.045L112.832 345.868ZM133.576 317.982C120.399 320.234 111.191 332.463 112.832 345.868L127.721 344.045C127.057 338.626 130.782 333.677 136.103 332.768L133.576 317.982ZM129.685 317.381C128.965 319.281 128.302 321.19 127.694 323.098L141.985 327.652C142.514 325.995 143.089 324.34 143.713 322.694L129.685 317.381ZM133.736 328.111C134.662 328 136.354 327.801 138.34 327.356L135.057 312.719C133.876 312.984 132.841 313.111 131.956 313.217L133.736 328.111ZM133.457 328.145C133.538 328.135 133.627 328.124 133.736 328.111L131.956 313.217C131.852 313.23 131.741 313.243 131.635 313.256L133.457 328.145ZM121.977 274.585C116.064 277.967 112.965 283.654 111.622 289.225C110.287 294.766 110.509 300.767 111.662 306.144C112.81 311.494 115.015 316.854 118.249 320.962C121.401 324.965 126.612 328.983 133.457 328.145L131.635 313.256C132.193 313.187 131.601 313.671 130.035 311.683C128.552 309.799 127.125 306.71 126.329 302.998C125.539 299.313 125.505 295.641 126.205 292.74C126.896 289.871 128.122 288.351 129.425 287.605L121.977 274.585ZM172.48 272.9C168.541 270.598 160.702 268.454 152.021 268.01C143.095 267.554 132.055 268.82 121.977 274.585L129.425 287.605C136.249 283.702 144.176 282.629 151.256 282.991C158.582 283.365 163.789 285.195 164.91 285.85L172.48 272.9ZM188.705 264.948C179.902 266.026 171.975 268.825 164.948 272.878L172.442 285.872C177.797 282.783 183.804 280.66 190.528 279.837L188.705 264.948ZM212.776 266.956C205.244 264.74 197.175 263.911 188.705 264.948L190.528 279.837C196.849 279.063 202.857 279.674 208.543 281.346L212.776 266.956Z" fill="#FFFCF9"/>
<path d="M216.522 426.215C213.566 426.499 213.35 436.212 207.751 433.885C196.908 429.378 185.328 399.029 190.842 388.007C199.743 370.211 218.932 372.961 225.412 387.696C230.076 398.3 229.758 413.587 228.651 424.73C228.085 430.426 230.005 435.786 231.967 442.833C233.93 449.88 239.834 467.419 232.76 467.276C223.329 467.086 222.898 454.796 223.335 444.195C223.635 436.923 225.661 425.339 216.522 426.215Z" fill="#FFFCF9"/>
<path d="M186.537 373.946L218.526 366.874L226.103 401.148C228.056 409.982 222.478 418.726 213.644 420.678L-nan -nanL-nan -nanL213.644 420.678C204.811 422.631 196.067 417.053 194.114 408.22L186.537 373.946Z" fill="#FFA4D3"/>
<path d="M268.583 344.992C271.928 372.313 247.27 375.332 247.27 375.332L158.501 386.2C158.501 386.2 133.843 389.219 130.498 361.898C126.914 332.627 145.232 277.827 189.617 272.393C234.001 266.958 265.532 320.074 268.583 344.992Z" fill="#BBEEFF"/>
<path d="M196.174 323.979C149.595 329.681 132.506 355.594 134.843 374.678C137.317 394.887 155.706 409.27 175.921 406.795C186.601 405.487 195.622 399.898 200.609 385.084C201.526 382.365 205.059 381.933 206.604 384.35C215.018 397.523 225.128 400.77 235.801 399.464C256.016 396.989 270.392 378.594 267.917 358.385C265.588 339.301 242.752 318.276 196.174 323.979Z" fill="#6C77D5"/>
<path d="M177.421 335.497C171.614 342.925 184.693 361.474 200.515 359.537C215.257 357.732 224.555 336.443 217.127 330.636C209.699 324.828 183.229 328.069 177.421 335.497Z" fill="#0F1941"/>
<path d="M125.701 281.095C143.038 271.179 164.721 276.684 169.054 279.6C160.774 284.797 157.447 288.815 150.9 296.489C150.971 296.972 150.94 296.813 151.005 297.346C153.617 318.675 136.641 320.199 132.546 320.701C119.972 322.24 111.268 289.352 125.701 281.095Z" fill="#6C77D5"/>
<path d="M258.19 335.181C267.886 333.994 276.075 335.723 274.888 326.027C273.701 316.331 264.879 309.434 255.183 310.621C245.487 311.808 238.59 320.63 239.777 330.326C240.964 340.022 248.494 336.369 258.19 335.181Z" fill="#0F1941"/>
<path d="M138.69 349.812C148.386 348.625 156.575 350.354 155.388 340.658C154.201 330.962 145.379 324.064 135.683 325.251C125.987 326.439 119.09 335.261 120.277 344.957C121.464 354.653 128.994 350.999 138.69 349.812Z" fill="#0F1941"/>
<path d="M252.696 265.546C233.479 260.105 213.764 270.679 210.263 274.554C219.552 277.6 223.751 280.697 231.955 286.564C232.003 287.05 231.995 286.889 232.06 287.421C234.671 308.751 251.514 306.134 255.608 305.633C267.334 304.197 268.695 270.077 252.696 265.546Z" fill="#6C77D5"/>
</svg>
