<svg width="113" height="113" viewBox="0 0 113 113" fill="none" xmlns="http://www.w3.org/2000/svg">
<g clip-path="url(#clip0_168_1389)">
<path d="M31.876 38.5557C41.1653 54.0379 31.876 71.6628 22.5867 68.5664C13.2973 65.4699 10.2009 74.7593 19.4902 77.8557C28.7795 80.9522 48.798 76.4159 59.744 65.4699C62.8404 62.3735 65.9369 62.3735 65.9369 62.3735L31.876 38.5557Z" fill="#9048C8"/>
<path d="M81.4198 38.5557C72.1304 54.0379 81.4198 71.6628 90.7091 68.5664C99.9984 65.4699 103.095 74.7593 93.8055 77.8557C84.5162 80.9522 64.4977 76.4159 53.5518 65.4699C50.4553 62.3735 47.3589 62.3735 47.3589 62.3735L81.4198 38.5557Z" fill="#9048C8"/>
<path d="M94.3866 50.9409C85.0973 66.4231 94.3866 84.0481 103.676 80.9516C112.965 77.8552 116.062 87.1445 106.772 90.241C97.4831 93.3374 77.4645 88.8011 66.5186 77.8552C63.4222 74.7588 60.3257 74.7588 60.3257 74.7588L94.3866 50.9409V50.9409ZM18.9077 50.9409C28.197 66.4231 18.9077 84.0481 9.61839 80.9516C0.329061 77.8552 -2.76738 87.1445 6.52195 90.241C15.8113 93.3374 35.8298 88.8011 46.7757 77.8552C49.8721 74.7588 52.9686 74.7588 52.9686 74.7588L18.9077 50.9409Z" fill="#B160E3"/>
<path d="M103.676 98.5488C95.2258 101.367 83.7813 81.1283 88.7759 65.7947C93.8726 55.7529 96.9009 44.5624 96.9009 35.4588C96.9009 13.2264 78.8796 1.39795 56.6472 1.39795C34.4147 1.39795 16.3934 13.2264 16.3934 35.4588C16.3934 44.5624 19.4217 55.7529 24.5185 65.7947C29.513 81.1283 18.0686 101.367 9.61839 98.5488C0.329061 95.4524 -2.76738 107.838 6.52195 110.935C15.8113 114.031 32.2534 108.993 43.6793 98.5488C50.4574 92.356 56.6503 92.356 56.6503 92.356C56.6503 92.356 62.8431 92.356 69.6182 98.5488C81.044 108.993 97.4862 114.031 106.775 110.935C116.065 107.838 112.965 95.4524 103.676 98.5488Z" fill="#D492EB"/>
<path d="M17.4416 54.3813C22.7621 54.3813 27.0752 50.0682 27.0752 44.7478C27.0752 39.4273 22.7621 35.1143 17.4416 35.1143C12.1212 35.1143 7.80811 39.4273 7.80811 44.7478C7.80811 50.0682 12.1212 54.3813 17.4416 54.3813Z" fill="#0F1941"/>
<path d="M95.8558 54.3814C101.176 54.3814 105.489 50.0683 105.489 44.7479C105.489 39.4274 101.176 35.1143 95.8558 35.1143C90.5353 35.1143 86.2222 39.4274 86.2222 44.7479C86.2222 50.0683 90.5353 54.3814 95.8558 54.3814Z" fill="#0F1941"/>
<path fill-rule="evenodd" clip-rule="evenodd" d="M34.919 49.5932C33.7877 48.6035 32.068 48.7134 31.072 49.8413C30.0731 50.9724 30.1803 52.6991 31.3115 53.698L33.1201 51.6499C31.3115 53.698 31.3125 53.6989 31.3135 53.6998L31.3157 53.7018L31.3207 53.7061L31.3328 53.7167L31.3658 53.7451C31.3917 53.7673 31.4253 53.7957 31.4666 53.8299C31.5493 53.8985 31.6629 53.9904 31.8075 54.1025C32.0967 54.3265 32.5098 54.6309 33.0465 54.9882C34.1197 55.7028 35.6888 56.6304 37.749 57.5499C41.8763 59.3919 47.9555 61.192 55.9254 61.192C63.8952 61.192 69.9744 59.3919 74.1017 57.5499C76.1619 56.6304 77.731 55.7028 78.8042 54.9882C79.3409 54.6309 79.7541 54.3265 80.0432 54.1025C80.1878 53.9904 80.3015 53.8985 80.3841 53.8299C80.4255 53.7957 80.459 53.7673 80.4849 53.7451L80.5179 53.7167L80.53 53.7061L80.535 53.7018L80.5372 53.6998C80.5382 53.6989 80.5392 53.698 78.7306 51.6499L80.5392 53.698C81.6704 52.6991 81.7776 50.9724 80.7787 49.8413C79.7827 48.7133 78.0629 48.6035 76.9316 49.5933C76.9318 49.5932 76.9315 49.5934 76.9316 49.5933C76.9274 49.5969 76.9154 49.6072 76.8965 49.6228C76.8589 49.654 76.7921 49.7083 76.6964 49.7825C76.5048 49.9309 76.1976 50.1585 75.7755 50.4396C74.931 51.0018 73.6289 51.7766 71.8746 52.5596C68.3726 54.1225 63.0492 55.7272 55.9254 55.7272C48.8015 55.7272 43.4781 54.1225 39.9762 52.5596C38.2218 51.7766 36.9197 51.0018 36.0752 50.4396C35.6531 50.1585 35.3459 49.9309 35.1544 49.7825C35.0586 49.7083 34.9919 49.654 34.9542 49.6228C34.9354 49.6072 34.9238 49.5973 34.9196 49.5937C34.9193 49.5935 34.9191 49.5934 34.919 49.5932C34.919 49.5932 34.919 49.5932 34.919 49.5932ZM76.9316 49.5933L76.9284 49.5961L76.9239 49.6001" fill="#0F1941"/>
</g>
<defs>
<clipPath id="clip0_168_1389">
<rect width="111.47" height="111.47" fill="white" transform="translate(0.912598 0.574707)"/>
</clipPath>
</defs>
</svg>
