<svg width="113" height="113" viewBox="0 0 113 113" fill="none" xmlns="http://www.w3.org/2000/svg">
<g clip-path="url(#clip0_168_3563)">
<path d="M10.4858 31.205C14.8876 31.205 18.456 27.6367 18.456 23.2348C18.456 18.833 14.8876 15.2646 10.4858 15.2646C6.084 15.2646 2.51562 18.833 2.51562 23.2348C2.51562 27.6367 6.084 31.205 10.4858 31.205Z" fill="#0F1941"/>
<path d="M24.8015 13.3118C27.8979 10.2154 25.5756 0.92627 20.3489 0.92627C15.1222 0.92627 15.5123 7.11903 18.6087 7.11903C21.7051 7.11903 21.7051 13.3118 21.7051 16.4082C21.7051 19.5046 24.8015 13.3118 24.8015 13.3118ZM11.8493 18.6376C14.9457 15.5412 12.6234 6.25204 7.39673 6.25204C2.17004 6.25204 2.56018 12.4448 5.65656 12.4448C8.75294 12.4448 8.75294 18.6376 8.75294 21.7339C8.75294 24.8303 11.8493 18.6376 11.8493 18.6376Z" fill="#0B6E3F"/>
<path d="M93.5158 102.661C94.101 105.163 97.3151 109.721 99.8076 109.136C102.303 108.547 103.142 103.033 102.557 100.537C101.972 98.035 99.467 96.4899 96.9714 97.0782C94.4788 97.6665 92.9275 100.165 93.5158 102.661V102.661ZM76.6901 104.671C76.6994 107.241 78.7987 112.405 81.3625 112.396C83.9263 112.384 85.9885 107.203 85.9792 104.636C85.9699 102.07 83.883 100.001 81.3192 100.007C78.7554 100.02 76.6808 102.104 76.6901 104.671V104.671ZM60.369 97.0968C59.3596 99.4624 59.2389 105.033 61.5952 106.045C63.9578 107.049 67.9025 103.113 68.912 100.751C69.9183 98.3911 68.8253 95.6632 66.4689 94.6506C64.1095 93.6443 61.3816 94.7342 60.369 97.0968V97.0968ZM44.7912 62.9127C42.2769 63.4453 37.6447 66.5448 38.168 69.0529C38.7037 71.5609 44.1905 72.5332 46.7047 72.0037C49.2159 71.4742 50.8198 69.0095 50.2965 66.5014C49.7639 63.9934 47.3085 62.3833 44.7912 62.9127ZM38.4838 47.4308C35.9696 47.9634 31.3374 51.0629 31.8607 53.571C32.3963 56.079 37.8831 57.0513 40.3974 56.5218C42.9086 55.9923 44.5125 53.5276 43.9892 51.0195C43.4566 48.5115 40.9981 46.9014 38.4838 47.4308V47.4308Z" fill="#0B6E3F"/>
<path d="M86.1979 106.204C94.9637 106.204 101.451 103.488 102.503 103.024C109.535 99.8964 112.7 91.6632 109.576 84.6344C106.482 77.6675 98.3791 74.4937 91.3936 77.4693C90.9818 77.6242 85.8418 79.4789 81.0424 77.2464C75.311 74.5804 71.7688 67.0005 69.8087 61.1174C69.3629 59.7859 68.6166 57.1726 67.6846 53.9461C61.9068 33.9095 58.9157 28.2926 55.3517 23.5397C43.8611 8.2095 25.6513 7.14125 16.6996 8.93715C9.15375 10.4451 4.25837 17.7866 5.76941 25.3325C7.28044 32.8815 14.6251 37.7799 22.1678 36.2627C22.6695 36.1822 28.9923 35.3152 32.7698 39.8824C34.7608 43.8674 39.2103 55.7606 40.9133 61.6623C41.9847 65.3749 42.8609 68.3846 43.3719 69.9204C48.8617 86.3838 57.8196 97.4565 70.01 102.832C75.7445 105.365 81.3242 106.204 86.1979 106.204Z" fill="#78E8B2"/>
<path d="M32.52 31.205C36.9218 31.205 40.4902 27.6367 40.4902 23.2348C40.4902 18.833 36.9218 15.2646 32.52 15.2646C28.1182 15.2646 24.5498 18.833 24.5498 23.2348C24.5498 27.6367 28.1182 31.205 32.52 31.205Z" fill="#0F1941"/>
<path d="M97.5908 102.996C97.3152 102.996 97.0335 102.958 96.7579 102.884C95.1106 102.426 94.1446 100.72 94.6028 99.0725C96.9468 90.6442 92.2186 85.0087 92.1722 84.953C91.0606 83.6556 91.2061 81.6987 92.5035 80.5871C93.7978 79.4755 95.7578 79.621 96.8694 80.9184C97.1542 81.2497 103.787 89.1548 100.57 100.726C100.192 102.098 98.9439 102.996 97.5908 102.996V102.996ZM75.3 101.252C74.5414 101.252 73.7828 100.977 73.1821 100.416C71.9342 99.2459 71.8692 97.2859 73.0365 96.038C77.6347 91.1241 77.5356 83.0549 77.5325 82.9713C77.4829 81.2621 78.8299 79.8378 80.5422 79.7882C82.2204 79.7728 83.6788 81.0856 83.7252 82.7979C83.7376 83.2283 83.9513 93.4402 77.5603 100.274C76.9504 100.924 76.1236 101.252 75.3 101.252V101.252ZM48.8507 74.3262C47.3644 74.3262 46.0516 73.2518 45.8008 71.7346C45.5221 70.0501 46.6616 68.4524 48.3491 68.1768C57.8674 66.5977 63.1312 60.8167 63.1839 60.7579C64.314 59.4884 66.274 59.3676 67.5466 60.4978C68.8224 61.628 68.9493 63.5725 67.8284 64.8513C67.559 65.1578 61.1526 72.3291 49.3616 74.2829C49.1882 74.3138 49.0179 74.3262 48.8507 74.3262V74.3262ZM57.8952 89.3654C56.5793 89.3654 55.3593 88.5231 54.9413 87.2041C54.4273 85.5754 55.3314 83.8321 56.9601 83.3181C65.2987 80.6769 68.9741 74.5554 69.0112 74.4934C69.8782 73.0165 71.7732 72.521 73.2471 73.388C74.7241 74.2519 75.2164 76.1531 74.3525 77.6239C74.1574 77.9583 69.4138 85.8695 58.8303 89.2167C58.5176 89.3189 58.2018 89.3654 57.8952 89.3654V89.3654ZM43.5931 56.327C42.0572 56.327 40.7227 55.1844 40.5245 53.6176C40.3109 51.9208 41.5123 50.3726 43.2091 50.1559C51.5353 49.1031 57.6289 44.0529 57.6878 44.0003C58.9944 42.9042 60.9483 43.0621 62.0475 44.3687C63.1498 45.6723 62.9919 47.6199 61.6914 48.7254C61.391 48.9824 54.1982 55.0079 43.9863 56.2991C43.8531 56.3177 43.7231 56.327 43.5931 56.327V56.327ZM37.9545 41.5665C36.6386 41.5665 35.4186 40.7212 35.0006 39.396C34.4897 37.7642 35.3938 36.0271 37.0256 35.5131C46.7173 32.4694 50.1945 27.1776 50.337 26.9547C51.2504 25.5242 53.1578 25.0814 54.5945 25.9886C56.0343 26.8928 56.4864 28.7723 55.5977 30.2183C55.4119 30.5186 50.9346 37.6372 38.8804 41.4241C38.5738 41.5201 38.2611 41.5665 37.9545 41.5665V41.5665Z" fill="#17AF65"/>
<path fill-rule="evenodd" clip-rule="evenodd" d="M12.5308 23.897C11.1874 23.1453 9.48741 23.6189 8.72693 24.9597C7.9637 26.3054 8.43585 28.015 9.7815 28.7782L11.1635 26.3417C9.7815 28.7782 9.78206 28.7785 9.78263 28.7788L9.78629 28.7809L9.79179 28.784L9.80486 28.7913L9.83921 28.8103C9.86572 28.8248 9.89942 28.843 9.93992 28.8643C10.0208 28.9069 10.1294 28.9623 10.2624 29.0261C10.5269 29.1531 10.8956 29.3172 11.3405 29.4807C12.2013 29.7969 13.4851 30.1621 14.9156 30.1621C16.3611 30.1621 17.6091 29.7903 18.4541 29.4542C18.8863 29.2822 19.2405 29.1087 19.4958 28.9725C19.6242 28.9041 19.7294 28.8441 19.809 28.797C19.8488 28.7735 19.8824 28.7531 19.9095 28.7364C19.923 28.7281 19.9349 28.7206 19.9451 28.7142L19.9592 28.7052L19.9653 28.7013L19.9695 28.6987C19.9702 28.6982 19.9708 28.6978 18.4559 26.3417L19.9708 28.6978C21.2721 27.8612 21.6487 26.128 20.812 24.8268C19.9803 23.5331 18.2625 23.1533 16.9639 23.9709C16.9626 23.9717 16.961 23.9727 16.9589 23.9739C16.9442 23.9826 16.9103 24.0022 16.8594 24.0294C16.7564 24.0843 16.5921 24.1656 16.3836 24.2485C15.9472 24.4221 15.425 24.5599 14.9156 24.5599C14.3911 24.5599 13.7988 24.4154 13.2723 24.222C13.0235 24.1306 12.8208 24.0399 12.6872 23.9758C12.6212 23.9441 12.5741 23.9198 12.5491 23.9067C12.5399 23.9018 12.5337 23.8985 12.5308 23.897Z" fill="#0F1941"/>
</g>
<defs>
<clipPath id="clip0_168_3563">
<rect width="111.47" height="111.47" fill="white" transform="translate(0.912598 0.926758)"/>
</clipPath>
</defs>
</svg>
