<svg width="113" height="113" viewBox="0 0 113 113" fill="none" xmlns="http://www.w3.org/2000/svg">
<g clip-path="url(#clip0_168_2730)">
<path d="M8.77832 59.2701L15.9027 48.7165L25.4018 58.2157L38.0673 51.8829L47.5665 61.3821L60.232 42.3838L72.8975 51.8829L82.3967 48.7165L88.7294 58.2157L98.2286 48.7165L104.561 61.3821L98.2286 83.5467L63.3984 99.3786L28.5682 93.0459L9.56992 74.0476L8.77832 59.2701Z" fill="#C5C5FF"/>
<path d="M94.9241 44.638C94.9906 43.7293 95.0635 42.8205 95.0635 41.896C95.0635 23.0782 81.372 7.49641 63.4123 4.47251C67.1772 3.64925 69.8432 2.86082 66.566 1.22064C63.0355 -0.546201 59.505 1.6291 57.0701 3.8994H57.0637C54.6288 1.6291 51.1014 -0.546201 47.5678 1.22064C44.2906 2.86082 46.9567 3.64925 50.7215 4.46935C32.7649 7.49324 19.0703 23.075 19.0703 41.896C19.0703 42.8205 19.1432 43.7293 19.2097 44.6412C17.6835 65.5393 -0.748038 96.212 57.0669 96.212C114.882 96.212 96.4503 65.5393 94.9241 44.638Z" fill="#FFD370"/>
<path d="M66.5647 42.3834C66.5647 47.6301 62.3122 48.7162 57.0655 48.7162C51.8189 48.7162 47.5664 47.6301 47.5664 42.3834C47.5664 37.1367 51.8189 32.8843 57.0655 32.8843C62.3122 32.8843 66.5647 37.1367 66.5647 42.3834Z" fill="#FF8213"/>
<path d="M20.6022 36.0879C24.9359 36.0879 28.449 38.8704 28.449 34.5368C28.449 30.2031 24.9359 26.6899 20.6022 26.6899C16.2685 26.6899 12.7554 30.2031 12.7554 34.5368C12.7554 38.8704 16.2685 36.0879 20.6022 36.0879Z" fill="#0F1941"/>
<path d="M93.4599 35.9498C97.7554 35.9498 101.238 38.7632 101.238 34.4677C101.238 30.1722 97.7554 26.6899 93.4599 26.6899C89.1644 26.6899 85.6821 30.1722 85.6821 34.4677C85.6821 38.7632 89.1644 35.9498 93.4599 35.9498Z" fill="#0F1941"/>
<path d="M98.2288 77.2144L88.7297 74.048L76.0642 93.0463L66.565 77.2144L60.2323 83.5471L47.5667 77.2144L38.0676 89.8799L28.5685 70.8816L19.0693 77.2144L8.63927 52.6274C7.19224 56.8989 6.40381 61.4331 6.40381 66.1321C6.40381 91.4916 29.0878 112.045 57.0659 112.045C85.044 112.045 107.728 91.4916 107.728 66.1321C107.728 62.1931 107.123 58.3934 106.091 54.7426L98.2288 77.2144Z" fill="#F9F7F3"/>
<path fill-rule="evenodd" clip-rule="evenodd" d="M49.2527 35.3022C48.7929 33.9959 47.3632 33.3052 46.0531 33.759C44.7389 34.2143 44.0426 35.6487 44.4978 36.9629L46.8773 36.1386C44.4978 36.9629 44.4982 36.9639 44.4986 36.965L44.4994 36.9674L44.5012 36.9727L44.5057 36.9853L44.5176 37.0187C44.527 37.0445 44.5392 37.0775 44.5543 37.1172C44.5844 37.1964 44.6262 37.3026 44.6803 37.4319C44.7883 37.69 44.9466 38.0427 45.1608 38.4591C45.5866 39.2868 46.2482 40.3949 47.1989 41.5173C49.1138 43.7782 52.289 46.1783 57.0149 46.2742C61.8107 46.3714 65.029 43.9271 66.9492 41.6137C67.9021 40.4657 68.563 39.3237 68.9866 38.472C69.1999 38.0431 69.3572 37.6794 69.4643 37.4137C69.5179 37.2807 69.5593 37.1716 69.5889 37.0903C69.6038 37.0497 69.6158 37.016 69.6249 36.9897L69.6366 36.9559L69.6409 36.9432L69.6426 36.938L69.6434 36.9356C69.6438 36.9345 69.6441 36.9335 67.3074 36.1561L69.6441 36.9335C70.0831 35.6138 69.3692 34.1881 68.0495 33.7491C66.7336 33.3113 65.3122 34.0199 64.8689 35.3325C64.8676 35.336 64.8642 35.3457 64.8585 35.3613C64.8466 35.3939 64.8249 35.4516 64.793 35.5307C64.729 35.6895 64.6249 35.9318 64.4771 36.2291C64.1783 36.8298 63.7176 37.6212 63.0738 38.397C61.8005 39.931 59.9245 41.2956 57.117 41.2387C54.2398 41.1803 52.3206 39.7716 51.0421 38.2621C50.396 37.4993 49.9361 36.7318 49.6395 36.1552C49.4925 35.8695 49.3893 35.638 49.3263 35.4873C49.2948 35.4122 49.2736 35.3578 49.2622 35.3277C49.257 35.3142 49.2539 35.3056 49.2527 35.3022Z" fill="#0F1941"/>
</g>
<defs>
<clipPath id="clip0_168_2730">
<rect width="111.47" height="111.47" fill="white" transform="translate(0.765137 0.574707)"/>
</clipPath>
</defs>
</svg>
