<svg width="113" height="97" viewBox="0 0 113 97" fill="none" xmlns="http://www.w3.org/2000/svg">
<path d="M106.108 61.116C106.108 80.8134 88.3305 80.8134 88.3305 80.8134H24.3309C24.3309 80.8134 6.55322 80.8134 6.55322 61.116C6.55322 40.0125 24.3309 2.67969 56.3307 2.67969C88.3305 2.67969 106.108 43.151 106.108 61.116Z" fill="#BBEEFF"/>
<path d="M56.5014 39.8931C22.9199 39.8931 8.52783 56.8133 8.52783 70.5722C8.52783 85.1417 20.3389 96.9576 34.9133 96.9576C42.613 96.9576 49.5068 93.7722 54.3378 83.6833C55.2253 81.8315 57.7727 81.8315 58.6602 83.6833C63.4911 93.7722 70.3897 96.9576 78.0847 96.9576C92.659 96.9576 104.47 85.1417 104.47 70.5722C104.475 56.8133 90.0829 39.8931 56.5014 39.8931Z" fill="#6C77D5"/>
<path d="M42.1793 46.444C37.4082 51.2151 45.0852 65.5284 56.4925 65.5284C67.1211 65.5284 75.5768 51.2151 70.8058 46.444C66.0347 41.673 46.9504 41.673 42.1793 46.444Z" fill="#0F1941"/>
<path d="M101.732 3.30253C88.555 -2.23388 73.6316 3.56278 70.8076 6.01049C77.1412 8.98218 79.854 11.5467 85.1714 16.4282C85.1634 16.7774 85.1714 16.6621 85.1714 17.046C85.1714 32.4237 97.3623 32.0301 100.314 32.0301C108.768 32.0301 112.702 7.91201 101.732 3.30253Z" fill="#6C77D5"/>
<path d="M10.1725 3.30302C23.3493 -2.23339 38.2727 3.56327 41.0967 6.01097C34.7631 8.98266 32.0503 11.5472 26.7329 16.4287C26.7409 16.7779 26.7329 16.6626 26.7329 17.0465C26.7329 32.4242 14.542 32.0306 11.59 32.0306C2.52439 32.0306 -0.798101 7.9125 10.1725 3.30302Z" fill="#6C77D5"/>
<path d="M99.5786 53.2437C106.569 53.2437 112.236 55.1837 112.236 48.1933C112.236 41.203 106.569 35.5361 99.5786 35.5361C92.5882 35.5361 86.9214 41.203 86.9214 48.1933C86.9214 55.1837 92.5882 53.2437 99.5786 53.2437Z" fill="#0F1941"/>
<path d="M13.4228 53.2437C20.4132 53.2437 26.08 55.1837 26.08 48.1933C26.08 41.203 20.4132 35.5361 13.4228 35.5361C6.43245 35.5361 0.765625 41.203 0.765625 48.1933C0.765625 55.1837 6.43245 53.2437 13.4228 53.2437Z" fill="#0F1941"/>
</svg>
