<svg width="102" height="102" viewBox="0 0 102 102" fill="none" xmlns="http://www.w3.org/2000/svg">
<path d="M90.7471 22.9525H73.9011V11.7219C73.9011 5.51974 68.8726 0.491211 62.6705 0.491211H40.2092C34.007 0.491211 28.9785 5.51974 28.9785 11.7219V22.9525H12.1325C5.93038 22.9525 0.901855 27.9811 0.901855 34.1832V90.3365C0.901855 96.5386 5.93038 101.567 12.1325 101.567H90.7471C96.9493 101.567 101.978 96.5386 101.978 90.3365V34.1832C101.978 27.9811 96.9493 22.9525 90.7471 22.9525ZM34.5938 17.3372C34.5938 14.2375 37.1095 11.7219 40.2092 11.7219H62.6705C65.7701 11.7219 68.2858 14.2375 68.2858 17.3372V22.9525H34.5938V17.3372Z" fill="#0F1941"/>
<path d="M101.978 56.6441C101.978 62.8463 96.9493 67.8748 90.7471 67.8748H12.1325C5.93038 67.8748 0.901855 62.8463 0.901855 56.6441V34.1828C0.901855 27.9807 5.93038 22.9521 12.1325 22.9521H90.7471C96.9493 22.9521 101.978 27.9807 101.978 34.1828V56.6441Z" fill="#FFB511"/>
<path d="M101.978 51.0288C101.978 57.2309 96.9493 62.2595 90.7471 62.2595H12.1325C5.93038 62.2595 0.901855 57.2309 0.901855 51.0288V34.1828C0.901855 27.9807 5.93038 22.9521 12.1325 22.9521H90.7471C96.9493 22.9521 101.978 27.9807 101.978 34.1828V51.0288Z" fill="#2175D9"/>
<path d="M62.6703 51.0289C62.6703 54.1286 60.1546 56.6442 57.055 56.6442H45.8243C42.7247 56.6442 40.209 54.1286 40.209 51.0289C40.209 47.9292 42.7247 45.4136 45.8243 45.4136H57.055C60.1546 45.4136 62.6703 47.9292 62.6703 51.0289Z" fill="#F4F7FC"/>
</svg>
