<svg width="123" height="102" viewBox="0 0 123 102" fill="none" xmlns="http://www.w3.org/2000/svg">
<path d="M115.389 78.3058C113.984 75.0613 112.37 71.5405 108.65 71.5405H105.281C109.001 71.5405 112.02 68.5116 112.02 64.7751V7.25608C112.02 3.51964 109.001 0.490723 105.281 0.490723H17.682C13.9624 0.490723 10.9435 3.51964 10.9435 7.25608V64.7751C10.9435 68.5116 13.9624 71.5405 17.682 71.5405H14.3127C10.5932 71.5405 8.69629 74.9232 7.57434 78.3058L0.835938 94.7981C0.835938 98.5379 3.85474 101.567 7.57434 101.567H115.389C119.108 101.567 122.127 98.5379 122.127 94.8015L115.389 78.3058Z" fill="#FFB511"/>
<path d="M0.862793 95.0815L0.883008 95.2736L1.45577 97.6051C2.52044 99.9366 4.85193 101.567 7.57425 101.567H115.389C119.014 101.567 121.949 98.6866 122.1 95.0815H0.862793Z" fill="#E74536"/>
<path d="M105.282 61.3889C105.282 63.2588 103.776 64.7716 101.913 64.7716H21.0518C19.192 64.7716 17.6826 63.2588 17.6826 61.3889V10.642C17.6826 8.77205 19.192 7.25928 21.0518 7.25928H101.913C103.776 7.25928 105.282 8.77542 105.282 10.642V61.3889Z" fill="#2175D9"/>
<path d="M111.703 84.8614L109.142 77.5334C108.337 75.9836 107.003 74.7134 105.14 74.7134H18.0525C16.1927 74.7134 15 76.088 14.1577 78.2039L11.8397 84.8648C11.1019 86.8728 13.3491 88.2475 15.2089 88.2475H40.7408C40.7408 88.2475 43.8977 88.0891 44.457 86.199C45.1039 84.0157 45.8552 80.7274 46.0169 80.1479C46.2663 79.2584 47.3242 78.3589 48.901 78.3589H77.802C79.4866 78.3589 80.3154 79.2113 80.5344 80.2658C80.6759 80.9531 81.5856 84.1101 82.0101 86.2697C82.3841 88.1936 86.1239 88.2441 86.1239 88.2441H108.34C110.197 88.2441 112.441 86.6572 111.703 84.8614Z" fill="#E74536"/>
<path d="M76.2213 91.8394H50.0055C48.7421 91.8394 48.1929 90.6838 48.3748 89.5652C48.5567 88.45 49.5844 83.5242 49.6652 82.9514C49.7427 82.3753 50.5884 81.688 51.4307 81.688H75.0656C76.0663 81.688 76.7166 82.2372 76.9187 83.3355C77.1175 84.4373 77.9362 88.8644 78.0002 89.8751C78.0642 90.8893 77.4308 91.8394 76.2213 91.8394Z" fill="#E74536"/>
</svg>
