<svg width="128" height="112" viewBox="0 0 128 112" fill="none" xmlns="http://www.w3.org/2000/svg">
<path d="M118.254 17.6693H105.128V8.91865C105.128 4.08609 101.21 0.167969 96.3773 0.167969H78.8759C74.0434 0.167969 70.1252 4.08609 70.1252 8.91865V17.6693H56.9992C52.1667 17.6693 48.2485 21.5875 48.2485 26.42V70.1734C48.2485 75.006 52.1667 78.9241 56.9992 78.9241H118.254C123.087 78.9241 127.005 75.006 127.005 70.1734V26.42C127.005 21.5875 123.087 17.6693 118.254 17.6693ZM74.5006 13.294C74.5006 10.8788 76.4607 8.91865 78.8759 8.91865H96.3773C98.7925 8.91865 100.753 10.8788 100.753 13.294V17.6693H74.5006V13.294Z" fill="#E74536"/>
<path d="M127.005 43.921C127.005 48.7536 123.087 52.6717 118.254 52.6717H56.9992C52.1667 52.6717 48.2485 48.7536 48.2485 43.921V26.4196C48.2485 21.5871 52.1667 17.6689 56.9992 17.6689H118.254C123.087 17.6689 127.005 21.5871 127.005 26.4196V43.921Z" fill="#FFB511"/>
<path d="M127.005 39.5457C127.005 44.3782 123.087 48.2963 118.254 48.2963H56.9992C52.1667 48.2963 48.2485 44.3782 48.2485 39.5457V26.4196C48.2485 21.5871 52.1667 17.6689 56.9992 17.6689H118.254C123.087 17.6689 127.005 21.5871 127.005 26.4196V39.5457Z" fill="#8B2920"/>
<path d="M90.2513 93.6148C89.1566 91.0867 87.8991 88.3433 85.0009 88.3433H82.3756C85.2739 88.3433 87.6261 85.9833 87.6261 83.0719V38.2543C87.6261 35.343 85.2739 32.9829 82.3756 32.9829H14.1202C11.222 32.9829 8.86977 35.343 8.86977 38.2543V83.0719C8.86977 85.9833 11.222 88.3433 14.1202 88.3433H11.495C8.59675 88.3433 7.11876 90.979 6.24456 93.6148L0.994141 106.465C0.994141 109.379 3.34633 111.739 6.24456 111.739H90.2513C93.1495 111.739 95.5017 109.379 95.5017 106.468L90.2513 93.6148Z" fill="#2175D9"/>
<path d="M1.01514 106.687L1.03089 106.836L1.47717 108.653C2.30674 110.469 4.12338 111.74 6.24455 111.74H90.2513C93.076 111.74 95.3626 109.495 95.4807 106.687H1.01514Z" fill="#0F1941"/>
<path d="M82.3756 80.434C82.3756 81.8909 81.2021 83.0697 79.7504 83.0697H16.7453C15.2962 83.0697 14.1201 81.8909 14.1201 80.434V40.893C14.1201 39.436 15.2962 38.2573 16.7453 38.2573H79.7504C81.2021 38.2573 82.3756 39.4387 82.3756 40.893V80.434Z" fill="#FFB511"/>
<path d="M88.729 100.31L85.3842 93.0127C84.7568 91.8051 83.7172 90.8154 82.2654 90.8154H14.409C12.9599 90.8154 12.0306 91.8865 11.3743 93.5351L8.74887 100.31C8.17395 101.875 9.92496 102.946 11.3741 102.946C35.5631 102.946 61.9202 102.946 86.1091 102.946C87.5556 102.946 89.304 101.709 88.729 100.31Z" fill="#0F1941"/>
</svg>
