<svg width="113" height="113" viewBox="0 0 113 113" fill="none" xmlns="http://www.w3.org/2000/svg">
<path d="M94.1418 14.1343C94.0631 14.1343 93.9845 14.1499 93.9058 14.1499H73.7984C70.5887 14.1499 67.977 16.73 67.977 19.9356C67.977 23.1412 70.573 25.7213 73.7984 25.7213H79.8872L19.9897 85.2201C17.7241 87.4718 17.7241 91.1308 19.9897 93.3982C21.1226 94.5241 22.6172 95.087 24.0962 95.087C25.5909 95.087 27.0698 94.5241 28.2026 93.3982L88.3204 33.6492V39.904C88.3204 43.094 90.9164 45.6897 94.1418 45.6897C97.3514 45.6897 99.9632 43.1096 99.9632 39.904V19.92C99.9632 16.73 97.3514 14.1343 94.1418 14.1343Z" fill="#FFB511"/>
<path d="M30.1853 48.801C20.5721 48.801 12.7368 41.0294 12.7368 31.4596C12.7368 21.9054 20.5564 14.1182 30.1853 14.1182C39.8142 14.1182 47.618 21.9054 47.618 31.4752C47.618 41.0294 39.7984 48.801 30.1853 48.801ZM30.1853 25.6895C26.9756 25.6895 24.3639 28.2853 24.3639 31.4752C24.3639 34.6652 26.9756 37.2609 30.1853 37.2609C33.3949 37.2609 36.0067 34.6652 36.0067 31.4752C36.0067 28.2853 33.3949 25.6895 30.1853 25.6895Z" fill="#6BA5B4"/>
<path d="M79.6042 97.9329C69.991 97.9329 62.1558 90.1613 62.1558 80.5914C62.1558 71.0372 69.9753 63.25 79.6042 63.25C89.2331 63.25 97.0527 71.0216 97.0527 80.5914C97.0527 90.1456 89.2174 97.9329 79.6042 97.9329ZM79.6042 74.8057C76.3946 74.8057 73.7828 77.4015 73.7828 80.5914C73.7828 83.7814 76.3946 86.3771 79.6042 86.3771C82.8139 86.3771 85.4256 83.7814 85.4256 80.5914C85.4256 77.4015 82.8139 74.8057 79.6042 74.8057Z" fill="#6BA5B4"/>
</svg>
