<svg width="113" height="113" viewBox="0 0 113 113" fill="none" xmlns="http://www.w3.org/2000/svg">
<path d="M98.3027 40.4695C98.3027 32.8114 92.0961 26.5924 84.4255 26.5924C83.7373 26.5924 83.0491 26.6424 82.3859 26.7425C80.7592 14.9301 70.6235 5.83301 58.3606 5.83301C48.4627 5.83301 39.9663 11.7517 36.1873 20.2482C34.7608 19.8728 33.2717 19.6726 31.7326 19.6726C22.16 19.6726 14.4019 27.4307 14.4019 37.0033C14.4019 46.5759 22.16 54.3341 31.7326 54.3341H58.3606H84.413H84.9136V54.3215C92.3589 54.0588 98.3027 47.9523 98.3027 40.4695Z" fill="#FFB511"/>
<path d="M80.259 107.49V42.7842C80.259 41.5078 79.2205 40.4692 77.9441 40.4692C76.6678 40.4692 75.6292 41.5078 75.6292 42.7842V52.0314H61.8271V42.7842C61.8271 41.5078 60.7885 40.4692 59.5122 40.4692C58.2359 40.4692 57.1973 41.5078 57.1973 42.7842V107.49H80.259ZM61.8271 107.49V98.2426H75.6292V107.49H61.8271ZM61.8271 70.5134H75.6292V79.7606H61.8271V70.5134ZM75.6292 56.6488V65.896H61.8271V56.6488H75.6292V56.6488ZM61.8271 93.6252V84.378H75.6292V93.6252H61.8271Z" fill="#2175D9"/>
</svg>
