<svg width="113" height="113" viewBox="0 0 113 113" fill="none" xmlns="http://www.w3.org/2000/svg">
<path d="M76.4269 37.2802C76.4269 37.0727 76.4269 36.8653 76.4269 36.6578C76.0918 14.6205 56.3683 4.88647 56.0651 4.71094C54.1502 5.812 36.0544 15.578 35.9268 37.2323C35.9268 37.2642 35.9268 37.3121 35.9268 37.344C35.9268 37.36 35.9268 37.3759 35.9268 37.3919C35.9587 48.6579 45.0066 57.7855 56.1768 57.7855C67.1715 57.7855 76.1237 48.9451 76.4269 37.9344C76.4269 37.8706 76.4269 37.8227 76.4269 37.7589C76.4269 37.6951 76.4269 37.6312 76.4269 37.5674C76.4269 37.4876 76.4269 37.4238 76.4269 37.344C76.4269 37.328 76.4269 37.2961 76.4269 37.2802Z" fill="#6BA5B4"/>
<path d="M54.709 52.3601V66.6261H57.6611V48.0676L64.6026 41.1261C65.1771 40.5516 65.1771 39.6101 64.6026 39.0356C64.0282 38.4612 63.0867 38.4612 62.5122 39.0356L57.6611 43.8867V32.7005C57.6611 31.8867 57.0069 31.2324 56.193 31.2324C55.3792 31.2324 54.725 31.8867 54.725 32.7005V48.1793L48.5813 42.0356C48.0069 41.4612 47.0654 41.4612 46.4909 42.0356C45.9164 42.6101 45.9164 43.5516 46.4909 44.1261L54.709 52.3601Z" fill="#0F1941"/>
<path d="M80.5438 66.6265H32.1608C31.1714 66.6265 30.3735 67.4243 30.3735 68.4137V72.0041C30.3735 72.9935 31.1714 73.7914 32.1608 73.7914H34.9214L38.9427 104.781C39.1821 106.568 40.698 107.908 42.5012 107.908H70.2513C72.0545 107.908 73.5864 106.568 73.8098 104.781L77.8151 73.8073H80.5438C81.5332 73.8073 82.3311 73.0095 82.3311 72.0201V68.4297C82.347 67.4243 81.5332 66.6265 80.5438 66.6265Z" fill="#E74536"/>
</svg>
