<svg width="113" height="113" viewBox="0 0 113 113" fill="none" xmlns="http://www.w3.org/2000/svg">
<path d="M66.6842 80.841L45.7638 80.8252V80.841C44.1497 80.841 42.8521 82.1499 42.8521 83.7428C42.8521 85.3356 44.1655 86.6445 45.7638 86.6445H66.6842C68.2983 86.6445 69.5959 85.3356 69.5959 83.7428C69.5959 82.1499 68.2983 80.841 66.6842 80.841Z" fill="#6BA5B4"/>
<path d="M66.6842 89.5778L45.7638 89.562V89.5778C44.1497 89.5778 42.8521 90.8867 42.8521 92.4796C42.8521 94.0882 44.1655 95.3814 45.7638 95.3814H49.2453C50.3688 97.952 52.9483 99.7498 55.9392 99.7498C58.9301 99.7498 61.5095 97.952 62.6331 95.3814H66.6684C68.2825 95.3814 69.5802 94.0724 69.5802 92.4796C69.6118 90.8867 68.2984 89.5778 66.6842 89.5778Z" fill="#6BA5B4"/>
<path d="M55.9705 13.8159H55.923C38.9747 13.8159 25.2388 27.5048 25.2388 44.3951C25.2388 55.4975 31.1731 65.2122 40.0508 70.5742C40.1141 70.6215 40.1774 70.6531 40.2565 70.6846C41.744 71.5677 42.7251 73.1763 42.7251 75.0057C42.7251 76.6143 44.0386 77.9233 45.6527 77.9233H66.2407C67.8549 77.9233 69.1683 76.6143 69.1683 75.0057C69.1683 73.1606 70.1653 71.552 71.637 70.6846C71.7003 70.6531 71.7636 70.6057 71.8427 70.5742C80.7204 65.2122 86.6547 55.4975 86.6547 44.3951C86.6547 27.5048 72.903 13.8159 55.9705 13.8159Z" fill="#FFB511"/>
</svg>
