<svg width="113" height="113" viewBox="0 0 113 113" fill="none" xmlns="http://www.w3.org/2000/svg">
<g clip-path="url(#clip0_173_1683)">
<path d="M25.6327 62.6047C32.4844 62.6047 38.0388 57.0503 38.0388 50.1986C38.0388 43.3469 32.4844 37.7925 25.6327 37.7925C18.781 37.7925 13.2266 43.3469 13.2266 50.1986C13.2266 57.0503 18.781 62.6047 25.6327 62.6047Z" fill="#FFB511"/>
<path d="M56.64 44.0042C63.4918 44.0042 69.0462 38.4497 69.0462 31.598C69.0462 24.7463 63.4918 19.1919 56.64 19.1919C49.7883 19.1919 44.2339 24.7463 44.2339 31.598C44.2339 38.4497 49.7883 44.0042 56.64 44.0042Z" fill="#E74536"/>
<path d="M87.6635 25.3865C94.5152 25.3865 100.07 19.8321 100.07 12.9804C100.07 6.12863 94.5152 0.574219 87.6635 0.574219C80.8118 0.574219 75.2573 6.12863 75.2573 12.9804C75.2573 19.8321 80.8118 25.3865 87.6635 25.3865Z" fill="#2175D9"/>
<path d="M25.6327 93.6283C18.7833 93.6283 13.2266 88.0716 13.2266 81.2222V112.246H38.0388V81.2222C38.0388 88.0716 32.4821 93.6283 25.6327 93.6283Z" fill="#FFB511"/>
<path d="M56.64 50.1992C49.7906 50.1992 44.2339 55.756 44.2339 62.6053V81.2229C44.2339 74.3735 49.7906 68.8168 56.64 68.8168C63.4894 68.8168 69.0462 74.3735 69.0462 81.2229V62.6053C69.063 55.756 63.5062 50.1992 56.64 50.1992Z" fill="#FFB511"/>
<path d="M87.6635 31.5981C80.8141 31.5981 75.2573 37.1549 75.2573 44.0043V62.6218C75.2573 55.7725 80.8141 50.2157 87.6635 50.2157C94.5129 50.2157 100.07 55.7725 100.07 62.6218V44.0043C100.07 37.1381 94.5129 31.5981 87.6635 31.5981Z" fill="#E74536"/>
<path d="M25.6327 93.6287C32.4844 93.6287 38.0388 88.0742 38.0388 81.2225C38.0388 74.3708 32.4844 68.8164 25.6327 68.8164C18.781 68.8164 13.2266 74.3708 13.2266 81.2225C13.2266 88.0742 18.781 93.6287 25.6327 93.6287Z" fill="#2175D9"/>
<path d="M56.64 68.8164C49.7906 68.8164 44.2339 74.3731 44.2339 81.2225V112.246H69.0462V81.2225C69.063 74.3731 63.5062 68.8164 56.64 68.8164Z" fill="#2175D9"/>
<path d="M87.6635 50.1992C80.8141 50.1992 75.2573 55.756 75.2573 62.6053V112.247H100.07V62.6053C100.07 55.756 94.5129 50.1992 87.6635 50.1992Z" fill="#FFB511"/>
</g>
<defs>
<clipPath id="clip0_173_1683">
<rect width="111.47" height="111.47" fill="white" transform="translate(0.912598 0.574707)"/>
</clipPath>
</defs>
</svg>
