<svg width="113" height="113" viewBox="0 0 113 113" fill="none" xmlns="http://www.w3.org/2000/svg">
<path d="M75.0014 24.1415C76.5472 21.4953 76.8223 18.1547 75.4337 15.1548C73.1804 10.3077 67.4163 8.19852 62.5692 10.4649C59.3203 11.9714 57.3029 15.0631 57.0147 18.3905L37.5215 27.4428C34.2595 24.1285 29.4779 22.4254 24.5653 23.3162C16.6658 24.7442 11.4257 32.303 12.8537 40.1894C13.6135 44.4208 16.1418 47.8923 19.5479 49.9753L23.8841 73.9488C26.9103 71.9837 30.5259 70.844 34.4036 70.844C37.6525 70.844 40.7048 71.6431 43.4035 73.058L38.6088 46.543C40.8227 43.7003 41.9756 40.0322 41.6088 36.2331L61.102 27.1677C63.8399 29.0804 67.4949 29.5389 70.7438 28.0192C71.032 27.8882 71.3202 27.731 71.5953 27.5738L76.7568 32.7353C77.2415 32.0934 77.7655 31.4777 78.3419 30.9013C78.9184 30.3249 79.5341 29.7878 80.176 29.3162L75.0014 24.1415Z" fill="#0F1941"/>
<path d="M53.779 90.2059C53.779 79.5161 45.1066 70.8438 34.4168 70.8438C23.727 70.8438 15.0415 79.5161 15.0415 90.2059V104.734H53.779V90.2059Z" fill="#6BA5B4"/>
<path d="M28.438 44.7496C32.3821 44.0357 35.0007 40.2597 34.2869 36.3156C33.573 32.3715 29.797 29.7528 25.8529 30.4667C21.9088 31.1806 19.2901 34.9566 20.004 38.9007C20.7179 42.8448 24.4939 45.4634 28.438 44.7496Z" fill="white"/>
<path d="M78.3548 30.9018C84.2892 24.9674 93.538 24.3516 100.154 29.0677C101.372 29.9324 101.529 31.7009 100.468 32.7489L98.7126 34.5044C97.9004 35.3166 96.6297 35.4214 95.6603 34.7926C91.9005 32.3166 86.7914 32.7227 83.4901 36.0371C80.1757 39.3515 79.7696 44.4475 82.2456 48.2072C82.8744 49.1636 82.7696 50.4343 81.9574 51.2596L80.2019 53.015C79.1408 54.0762 77.3854 53.919 76.5208 52.7006C71.8047 46.085 72.4073 36.8362 78.3548 30.9018Z" fill="#FFB511"/>
<path d="M68.7002 23.6398C71.1274 22.5109 72.1799 19.6281 71.0511 17.2009C69.9222 14.7736 67.0394 13.7211 64.6122 14.85C62.1849 15.9789 61.1324 18.8617 62.2613 21.2889C63.3902 23.7161 66.273 24.7686 68.7002 23.6398Z" fill="white"/>
</svg>
