<svg width="83" height="83" viewBox="0 0 83 83" fill="none" xmlns="http://www.w3.org/2000/svg">
<g filter="url(#filter0_d_138_9001)">
<rect x="5.53125" y="4.84082" width="72" height="72" fill="white"/>
<g clip-path="url(#clip0_138_9001)">
<path d="M21.7099 40.0509C21.7142 40.6203 21.5482 41.1781 21.233 41.6536C20.9178 42.1291 20.4677 42.5009 19.9397 42.7217C19.4116 42.9425 18.8295 43.0025 18.2671 42.894C17.7047 42.7855 17.1874 42.5135 16.7808 42.1124C16.3742 41.7112 16.0967 41.1991 15.9833 40.641C15.87 40.0828 15.926 39.5038 16.1442 38.9773C16.3625 38.4509 16.7331 38.0007 17.2091 37.6839C17.6851 37.3671 18.2451 37.198 18.818 37.1979C19.5819 37.1958 20.3155 37.495 20.8576 38.0299C21.3998 38.5648 21.7063 39.2917 21.7099 40.0509ZM18.818 34.8405C17.428 34.7969 16.0776 35.3039 15.0637 36.25C14.0498 37.1961 13.4556 38.5038 13.4118 39.8853C13.368 41.2669 13.8781 42.6091 14.8299 43.6168C15.7818 44.6245 17.0974 45.2151 18.4874 45.2587L15.7554 48.9345C15.619 49.111 15.5352 49.3221 15.5136 49.5437C15.492 49.7652 15.5334 49.9884 15.6331 50.1877C15.7328 50.387 15.8868 50.5545 16.0776 50.6711C16.2684 50.7877 16.4883 50.8487 16.7122 50.8472C16.8979 50.8463 17.081 50.803 17.2471 50.7206C17.4133 50.6381 17.5581 50.5187 17.6704 50.3717L22.5404 43.8282C23.2714 42.8812 24.1019 41.806 24.1019 40.0509C24.0941 38.6639 23.5331 37.3366 22.5421 36.3601C21.551 35.3836 20.2108 34.8376 18.8153 34.8418L18.818 34.8405Z" fill="#EA5456"/>
<path d="M33.0329 40.0923C33.0329 40.6616 32.863 41.2181 32.5448 41.6915C32.2266 42.1648 31.7743 42.5337 31.2451 42.7516C30.716 42.9695 30.1337 43.0265 29.5719 42.9154C29.0102 42.8043 28.4942 42.5302 28.0892 42.1276C27.6842 41.7251 27.4084 41.2122 27.2966 40.6539C27.1849 40.0955 27.2422 39.5168 27.4614 38.9908C27.6806 38.4649 28.0518 38.0153 28.528 37.6991C29.0043 37.3828 29.5642 37.214 30.1369 37.214C30.9046 37.215 31.6406 37.5186 32.1835 38.0582C32.7263 38.5978 33.0318 39.3293 33.0329 40.0923ZM30.1369 34.8672C29.0972 34.8672 28.0808 35.1736 27.2163 35.7478C26.3518 36.3219 25.6779 37.138 25.2801 38.0928C24.8822 39.0475 24.7781 40.0981 24.9809 41.1117C25.1837 42.1253 25.6844 43.0563 26.4196 43.7871C27.1548 44.5178 28.0916 45.0155 29.1113 45.2171C30.1311 45.4187 31.1881 45.3152 32.1487 44.9197C33.1093 44.5243 33.9303 43.8545 34.508 42.9953C35.0856 42.136 35.394 41.1258 35.394 40.0923C35.3922 38.7071 34.8377 37.3791 33.8522 36.3995C32.8667 35.42 31.5306 34.869 30.1369 34.8672Z" fill="#EA5456"/>
<path d="M44.5026 40.0923C44.5026 40.6616 44.3327 41.2181 44.0145 41.6915C43.6963 42.1648 43.244 42.5337 42.7149 42.7516C42.1857 42.9695 41.6034 43.0265 41.0417 42.9154C40.4799 42.8043 39.9639 42.5302 39.5589 42.1276C39.1539 41.7251 38.8781 41.2122 38.7664 40.6539C38.6546 40.0955 38.712 39.5168 38.9311 38.9908C39.1503 38.4649 39.5215 38.0153 39.9977 37.6991C40.474 37.3828 41.0339 37.214 41.6066 37.214C42.3744 37.215 43.1103 37.5186 43.6532 38.0582C44.1961 38.5978 44.5015 39.3293 44.5026 40.0923ZM41.6066 34.8672C40.5669 34.8672 39.5505 35.1736 38.686 35.7478C37.8215 36.3219 37.1477 37.138 36.7498 38.0928C36.3519 39.0475 36.2478 40.0981 36.4506 41.1117C36.6535 42.1253 37.1542 43.0563 37.8894 43.7871C38.6246 44.5178 39.5613 45.0155 40.581 45.2171C41.6008 45.4187 42.6578 45.3152 43.6184 44.9197C44.579 44.5243 45.4001 43.8545 45.9777 42.9953C46.5554 42.136 46.8637 41.1258 46.8637 40.0923C46.8619 38.7071 46.3075 37.3791 45.322 36.3995C44.3365 35.42 43.0003 34.869 41.6066 34.8672Z" fill="#EA5456"/>
<path d="M46.9146 44.9603C46.8357 44.8838 46.7731 44.7924 46.7303 44.6915C46.6876 44.5906 46.6655 44.4821 46.6655 44.3726C46.6655 44.2631 46.6876 44.1547 46.7303 44.0538C46.7731 43.9529 46.8357 43.8615 46.9146 43.7849C47.0891 43.64 47.3093 43.5605 47.5368 43.5605C47.7642 43.5605 47.9844 43.64 48.1589 43.7849C48.2366 43.8621 48.2983 43.9537 48.3403 44.0546C48.3823 44.1554 48.404 44.2635 48.404 44.3726C48.404 44.4818 48.3823 44.5899 48.3403 44.6907C48.2983 44.7916 48.2366 44.8832 48.1589 44.9603C48.0756 45.0381 47.9776 45.0987 47.8706 45.1386C47.7636 45.1785 47.6496 45.1969 47.5354 45.1927C47.3071 45.1984 47.0857 45.115 46.9186 44.9603H46.9146Z" fill="#EA5456"/>
<path d="M50.1274 44.9061C49.7432 44.7262 49.4174 44.4431 49.1867 44.0887C48.9654 43.7334 48.8481 43.3238 48.8481 42.9059C48.8481 42.4881 48.9654 42.0785 49.1867 41.7232C49.4178 41.3711 49.7438 41.0907 50.1274 40.9138C50.5592 40.7154 51.0305 40.6163 51.5062 40.6239C51.981 40.6119 52.4507 40.7233 52.8688 40.9472C53.2347 41.1444 53.5216 41.4602 53.6818 41.8421L52.4227 42.4551C52.2117 42.0544 51.9026 41.8581 51.4981 41.8581C51.3648 41.8537 51.232 41.876 51.1075 41.9237C50.9831 41.9715 50.8696 42.0436 50.7738 42.1359C50.6762 42.2378 50.6008 42.3586 50.5523 42.4907C50.5037 42.6229 50.4831 42.7635 50.4916 42.9039C50.4832 43.0465 50.5043 43.1892 50.5535 43.3234C50.6027 43.4575 50.6791 43.5802 50.7778 43.684C50.8729 43.7775 50.9862 43.8509 51.1107 43.8995C51.2352 43.9482 51.3684 43.9712 51.5021 43.9671C51.9053 43.9671 52.2157 43.7681 52.4267 43.3701L53.6859 43.9831C53.5253 44.3647 53.2385 44.6804 52.8728 44.878C52.4546 45.1014 51.9849 45.2124 51.5102 45.1999C51.034 45.2082 50.5623 45.1077 50.1314 44.9061H50.1274Z" fill="#EA5456"/>
<path d="M56.9947 44.0894C57.1392 44.001 57.2484 43.8655 57.3038 43.706V43.3214H56.6009C56.127 43.3214 55.8901 43.4714 55.8901 43.7715C55.8885 43.8348 55.9025 43.8976 55.9308 43.9544C55.9591 44.0112 56.001 44.0603 56.0527 44.0974C56.1836 44.1864 56.3405 44.2296 56.4988 44.2203C56.6735 44.2236 56.8456 44.1772 56.9947 44.0867V44.0894ZM58.3224 41.1269C58.7282 41.4634 58.9311 41.9772 58.9311 42.6682V45.1272H57.4153V44.5555C57.1801 44.9856 56.7246 45.2007 56.0446 45.2007C55.7239 45.2088 55.4053 45.1477 55.1106 45.0217C54.8697 44.9193 54.6631 44.7506 54.5153 44.5355C54.38 44.3276 54.3099 44.0845 54.3138 43.8369C54.3066 43.6448 54.3494 43.454 54.4378 43.283C54.5263 43.112 54.6576 42.9665 54.819 42.8606C55.1559 42.6281 55.6755 42.5124 56.3779 42.5133H57.3038C57.276 42.0449 56.9477 41.8103 56.3187 41.8094C56.0909 41.8111 55.8646 41.8457 55.6468 41.9122C55.4361 41.9704 55.2376 42.0659 55.0609 42.1941L54.5126 41.1402C54.8028 40.9623 55.1207 40.8337 55.4533 40.7595C55.8161 40.6709 56.1884 40.6261 56.562 40.626C57.3333 40.626 57.9215 40.7934 58.3264 41.1282L58.3224 41.1269Z" fill="#EA5456"/>
<path d="M62.0996 40.7753C62.392 40.6704 62.7012 40.6192 63.0121 40.6244V42.0215C62.8898 42.0071 62.7669 41.9991 62.6439 41.9974C62.3467 41.9792 62.0539 42.0748 61.8255 42.2646C61.6293 42.4449 61.5298 42.72 61.5298 43.09V45.1269H59.8984V40.6965H61.4492V41.2308C61.6205 41.0253 61.8436 40.8686 62.0956 40.7766L62.0996 40.7753Z" fill="#EA5456"/>
<path d="M65.4256 41.9322C65.2549 42.073 65.1409 42.2703 65.1045 42.4878H67.006C66.9696 42.2703 66.8556 42.073 66.6848 41.9322C66.5021 41.7994 66.2816 41.7279 66.0552 41.7279C65.8289 41.7279 65.6084 41.7994 65.4256 41.9322ZM68.499 43.3052H65.13C65.1911 43.5278 65.3353 43.7189 65.5332 43.8395C65.7577 43.9686 66.0144 44.032 66.2736 44.0225C66.47 44.027 66.6657 43.9967 66.8514 43.933C67.0311 43.8629 67.1978 43.7636 67.3446 43.6392L68.2007 44.4886C67.7527 44.9686 67.0933 45.2081 66.2225 45.2072C65.7293 45.2179 65.24 45.1174 64.7914 44.9134C64.402 44.7354 64.0709 44.4521 63.8359 44.096C63.6167 43.7417 63.5 43.3342 63.4985 42.9184C63.4971 42.5025 63.6111 42.0942 63.8278 41.7385C64.0493 41.3876 64.3636 41.1039 64.7363 40.9184C65.1434 40.7186 65.5925 40.6179 66.0465 40.6245C66.4813 40.6162 66.9122 40.7076 67.3057 40.8917C67.6737 41.0664 67.9841 41.3416 68.2007 41.6851C68.4275 42.0545 68.5423 42.4812 68.5312 42.9139C68.5312 42.9259 68.5218 43.0475 68.5044 43.2986L68.499 43.3052Z" fill="#EA5456"/>
</g>
</g>
<defs>
<filter id="filter0_d_138_9001" x="0.53125" y="0.84082" width="82" height="82" filterUnits="userSpaceOnUse" color-interpolation-filters="sRGB">
<feFlood flood-opacity="0" result="BackgroundImageFix"/>
<feColorMatrix in="SourceAlpha" type="matrix" values="0 0 0 0 0 0 0 0 0 0 0 0 0 0 0 0 0 0 127 0" result="hardAlpha"/>
<feMorphology radius="1" operator="erode" in="SourceAlpha" result="effect1_dropShadow_138_9001"/>
<feOffset dy="1"/>
<feGaussianBlur stdDeviation="3"/>
<feColorMatrix type="matrix" values="0 0 0 0 0.145098 0 0 0 0 0.164706 0 0 0 0 0.192157 0 0 0 0.08 0"/>
<feBlend mode="normal" in2="BackgroundImageFix" result="effect1_dropShadow_138_9001"/>
<feBlend mode="normal" in="SourceGraphic" in2="effect1_dropShadow_138_9001" result="shape"/>
</filter>
<clipPath id="clip0_138_9001">
<rect width="55" height="16" fill="white" transform="translate(13.5312 34.8408)"/>
</clipPath>
</defs>
</svg>
