<svg width="82" height="83" viewBox="0 0 82 83" fill="none" xmlns="http://www.w3.org/2000/svg">
<g filter="url(#filter0_d_138_8376)">
<rect x="5" y="4.58398" width="72" height="72" fill="white"/>
<path d="M43.4845 49.4024C43.3161 49.402 43.1481 49.3892 42.9817 49.364C42.7556 49.3421 42.5368 49.2719 42.3401 49.1581C42.1435 49.0443 41.9736 48.8896 41.8419 48.7044C41.0231 47.5274 41.5576 44.9983 42.2342 41.7987L42.291 41.5308C42.291 41.5174 42.5235 40.1604 43.6882 40.1604C43.8259 40.1506 43.964 40.1734 44.0912 40.227C44.2184 40.2805 44.3312 40.3633 44.4204 40.4686C44.6343 40.8626 44.6905 41.3232 44.5779 41.7572C44.5705 41.795 43.8499 45.5658 43.8499 46.0374C43.7894 46.3208 43.8343 46.6165 43.9762 46.8691C44.0253 46.9265 44.0869 46.9717 44.1564 47.0012C44.2258 47.0308 44.3012 47.0438 44.3765 47.0393C44.6968 47.0393 45.0404 46.9826 45.4016 46.3022C45.8287 45.4999 46.2088 43.969 46.5645 41.6217C46.601 41.26 46.7099 40.9093 46.8848 40.5906C46.9746 40.4492 47.1006 40.3346 47.2498 40.2586C47.399 40.1826 47.5659 40.148 47.733 40.1586C47.8005 40.1589 47.8679 40.163 47.9349 40.1708C48.0693 40.1776 48.2009 40.2121 48.3213 40.2722C48.4418 40.3322 48.5485 40.4165 48.6348 40.5198C48.8473 40.8963 48.9046 41.3409 48.7946 41.759C48.7074 42.3271 48.273 45.9282 48.2559 46.1711C48.2294 46.3437 48.2383 46.52 48.2821 46.6891C48.326 46.8582 48.4038 47.0166 48.5109 47.1546C48.594 47.2392 48.6939 47.3053 48.8041 47.3488C48.9144 47.3923 49.0325 47.4122 49.151 47.4072C49.888 47.4072 50.8197 46.7672 51.4696 45.8153C51.6185 44.4749 51.8375 43.1431 52.1255 41.8255C52.5587 39.8627 53.3287 37.2494 54.5411 35.9613C54.7059 35.7924 54.9305 35.6951 55.1665 35.6904C55.3014 35.6901 55.4342 35.7248 55.5518 35.791C55.6694 35.8571 55.7679 35.9526 55.8377 36.0681C55.9615 36.3155 56.0185 36.591 56.003 36.8673C55.9875 37.1436 55.9 37.4109 55.7492 37.6429C55.0463 39.3242 54.5661 41.0901 54.3208 42.8958C54.3238 42.8908 54.3275 42.8863 54.3318 42.8823C55.1511 41.9459 56.0789 41.1105 57.0958 40.3935C57.4252 40.189 57.8003 40.0697 58.1874 40.0463C58.3396 40.0389 58.4911 40.0719 58.6263 40.1422C58.7616 40.2124 58.8759 40.3172 58.9574 40.446C59.3082 40.9982 59.1075 41.5668 58.343 42.1837C58.3167 42.2032 55.7022 44.1649 55.4325 44.6518C55.2891 45.0644 55.3022 45.5154 55.4691 45.9191C55.5655 46.2176 55.7234 46.4926 55.9327 46.7263C56.1419 46.9601 56.3979 47.1473 56.6839 47.2761C56.9243 47.3804 57.1834 47.4348 57.4454 47.4359C58.0058 47.4078 58.5406 47.193 58.9647 46.8258C58.996 46.799 59.0295 46.775 59.0648 46.7538C59.0768 46.0075 59.1938 45.2666 59.4126 44.5529C59.846 43.0227 60.8064 41.6949 62.1241 40.8041C62.8299 40.3365 63.657 40.0856 64.5037 40.0823C65.0867 40.0735 65.6632 40.2065 66.1834 40.4698C66.6106 40.7004 66.8668 41.0037 66.8668 41.2801C66.8668 41.8237 66.5349 44.0099 66.3567 45.1851C66.3183 45.4377 66.2884 45.6366 66.2713 45.7525C66.217 46.129 66.12 47.0338 66.3793 47.3389C66.4048 47.37 66.437 47.3949 66.4734 47.4119C66.5098 47.4289 66.5496 47.4375 66.5898 47.4371C67.2463 47.4371 68.0871 46.406 68.4917 45.9118C68.5478 45.8428 68.5966 45.783 68.6338 45.7397C68.7166 45.6411 68.8191 45.5609 68.9346 45.5043C69.0502 45.4477 69.1764 45.4158 69.305 45.4108C69.4299 45.413 69.552 45.4479 69.6591 45.5122C69.7662 45.5764 69.8545 45.6677 69.9152 45.7769C70.0173 45.9169 70.0809 46.0813 70.0995 46.2536C70.1182 46.4259 70.0912 46.6 70.0213 46.7586C69.7028 47.3418 69.2373 47.8314 68.671 48.1791C67.6576 48.9113 66.8845 49.2566 66.2384 49.2566C65.4818 49.2566 64.918 48.7746 64.5153 47.7831C64.3597 47.9344 62.9527 49.2609 61.52 49.2609C61.1273 49.254 60.7429 49.1459 60.4042 48.9469C60.0655 48.748 59.7838 48.465 59.5864 48.1254C58.8533 48.7893 57.9173 49.1858 56.9304 49.2505C55.6833 49.2505 54.621 48.4524 53.7735 46.8788V46.8843C53.7467 47.1284 53.4806 49.242 52.4129 49.242C52.2837 49.2481 52.1548 49.2261 52.0349 49.1777C51.9151 49.1292 51.8071 49.0554 51.7185 48.9613C51.4824 48.6279 51.3731 48.2211 51.4104 47.8142C51.0603 48.2664 50.6129 48.634 50.1013 48.8896C49.5898 49.1452 49.0272 49.2824 48.4554 49.2908C48.3334 49.2908 48.2113 49.2847 48.0893 49.2731C46.8116 49.1511 46.3516 47.6202 46.3382 47.5738C46.3384 47.5756 46.3384 47.5775 46.3382 47.5793C46.1564 47.915 45.9252 48.2214 45.6523 48.4884C45.3687 48.7757 45.0313 49.0043 44.6593 49.1611C44.2874 49.318 43.8881 49.4 43.4845 49.4024ZM64.6276 41.878H64.6202C64.0625 41.9032 63.5213 42.0747 63.0509 42.3753C62.6343 42.6739 62.2878 43.0598 62.0355 43.5059C61.7831 43.952 61.6309 44.4478 61.5896 44.9587C61.4177 45.5873 61.5005 46.2584 61.8202 46.8264C61.8768 46.8948 61.9478 46.9499 62.0282 46.9876C62.1086 47.0252 62.1964 47.0446 62.2852 47.0442C62.5572 46.994 62.813 46.8785 63.0306 46.7076C63.2482 46.5367 63.421 46.3155 63.5342 46.0631C64.157 44.7909 64.5678 43.4255 64.7502 42.0208C64.7529 42.0033 64.7518 41.9853 64.7469 41.9683C64.7421 41.9512 64.7335 41.9354 64.7219 41.922C64.7103 41.9086 64.6959 41.8978 64.6797 41.8906C64.6635 41.8833 64.6459 41.8796 64.6282 41.8798L64.6276 41.878Z" fill="#3C3C3C"/>
<path d="M43.7627 32.3023C43.6065 32.2329 43.4376 32.1968 43.2667 32.1963C43.0958 32.1958 42.9266 32.2308 42.77 32.2992C42.6133 32.3676 42.4727 32.4679 42.3569 32.5937C42.2412 32.7194 42.1529 32.8679 42.0976 33.0296C41.3187 35.4153 40.4002 37.7532 39.347 40.0312C38.3209 37.319 36.6955 34.8737 34.5921 32.8777C34.345 32.6668 34.0242 32.5626 33.7003 32.5882C33.3765 32.6138 33.076 32.767 32.8651 33.0141C32.6541 33.2612 32.55 33.582 32.5756 33.9058C32.6011 34.2297 32.7543 34.5302 33.0014 34.7411C33.0325 34.7674 36.6447 38.219 38.0956 42.4425C35.2047 47.4885 33.2083 47.2749 33.0807 47.2743C32.3278 47.2743 31.5419 47.6142 31.6701 48.7161C31.8397 49.8907 33.3175 49.7107 33.3175 49.7107C33.9246 49.6497 39.3989 48.7033 44.6633 33.9107C44.7104 33.746 44.7244 33.5735 44.7046 33.4034C44.6847 33.2332 44.6314 33.0686 44.5477 32.9191C44.464 32.7696 44.3516 32.6381 44.2168 32.5323C44.0821 32.4264 43.9278 32.3483 43.7627 32.3023Z" fill="#3C3C3C"/>
<path d="M26.3104 40.4949L21.2217 35.6747C21.0448 35.5094 20.8335 35.3853 20.603 35.3113C20.3726 35.2372 20.1286 35.2149 19.8885 35.2461C19.6484 35.2773 19.4182 35.3612 19.2143 35.4917C19.0105 35.6222 18.8379 35.7961 18.7091 36.0011L18.0849 37.0487L21.2925 40.0873C21.3299 40.1219 21.3598 40.1639 21.3803 40.2106C21.4007 40.2574 21.4112 40.3078 21.4112 40.3588C21.4112 40.4098 21.4007 40.4603 21.3803 40.507C21.3598 40.5537 21.3299 40.5957 21.2925 40.6303C21.2145 40.7027 21.1121 40.7429 21.0057 40.7429C20.8993 40.7429 20.7969 40.7027 20.7189 40.6303L17.6718 37.7437L14.0353 43.8593L15.7541 45.4872C15.7916 45.5218 15.8214 45.5638 15.8419 45.6105C15.8623 45.6572 15.8729 45.7077 15.8729 45.7587C15.8729 45.8097 15.8623 45.8601 15.8419 45.9069C15.8214 45.9536 15.7916 45.9956 15.7541 46.0302C15.6761 46.1026 15.5737 46.1428 15.4673 46.1428C15.361 46.1428 15.2585 46.1026 15.1806 46.0302L13.6222 44.5536L12.1432 47.0394C11.3524 48.3689 12.9059 49.8431 14.3093 49.0938L20.6262 45.7233L18.2551 43.4773C18.2177 43.4427 18.1878 43.4007 18.1674 43.354C18.1469 43.3073 18.1364 43.2568 18.1364 43.2058C18.1364 43.1548 18.1469 43.1044 18.1674 43.0576C18.1878 43.0109 18.2177 42.9689 18.2551 42.9343C18.3331 42.8619 18.4355 42.8217 18.5419 42.8217C18.6483 42.8217 18.7507 42.8619 18.8287 42.9343L21.3596 45.3322L25.9632 42.8751C26.1744 42.7694 26.3569 42.6141 26.4952 42.4226C26.6334 42.2311 26.7232 42.009 26.757 41.7752C26.7908 41.5415 26.7676 41.303 26.6893 41.0801C26.611 40.8573 26.4799 40.6567 26.3073 40.4955" fill="#FF8C38"/>
<path d="M24.8141 37.5309L24.1094 36.8287L25.9935 31.9438C26.0181 31.8755 26.0561 31.8129 26.1052 31.7596C26.1543 31.7063 26.2135 31.6633 26.2795 31.6332C26.3454 31.603 26.4167 31.5864 26.4892 31.5842C26.5617 31.5821 26.6338 31.5944 26.7015 31.6205C26.7691 31.6466 26.8309 31.6859 26.8831 31.7362C26.9353 31.7865 26.977 31.8467 27.0056 31.9133C27.0342 31.9799 27.0493 32.0516 27.0498 32.1241C27.0504 32.1966 27.0364 32.2684 27.0088 32.3355L25.5683 36.0702L28.1974 35.047C28.2644 35.0191 28.3363 35.0048 28.4088 35.0051C28.4814 35.0053 28.5532 35.0201 28.6199 35.0485C28.6867 35.0769 28.7471 35.1184 28.7976 35.1705C28.8481 35.2226 28.8877 35.2843 28.9141 35.3519C28.9404 35.4195 28.9529 35.4917 28.9509 35.5643C28.9489 35.6368 28.9325 35.7082 28.9025 35.7743C28.8725 35.8404 28.8296 35.8998 28.7763 35.949C28.723 35.9983 28.6604 36.0364 28.5922 36.0611L24.8141 37.5309Z" fill="#25D265"/>
</g>
<defs>
<filter id="filter0_d_138_8376" x="0" y="0.583984" width="82" height="82" filterUnits="userSpaceOnUse" color-interpolation-filters="sRGB">
<feFlood flood-opacity="0" result="BackgroundImageFix"/>
<feColorMatrix in="SourceAlpha" type="matrix" values="0 0 0 0 0 0 0 0 0 0 0 0 0 0 0 0 0 0 127 0" result="hardAlpha"/>
<feMorphology radius="1" operator="erode" in="SourceAlpha" result="effect1_dropShadow_138_8376"/>
<feOffset dy="1"/>
<feGaussianBlur stdDeviation="3"/>
<feColorMatrix type="matrix" values="0 0 0 0 0.145098 0 0 0 0 0.164706 0 0 0 0 0.192157 0 0 0 0.08 0"/>
<feBlend mode="normal" in2="BackgroundImageFix" result="effect1_dropShadow_138_8376"/>
<feBlend mode="normal" in="SourceGraphic" in2="effect1_dropShadow_138_8376" result="shape"/>
</filter>
</defs>
</svg>
