<svg width="157" height="35" viewBox="0 0 157 35" fill="none" xmlns="http://www.w3.org/2000/svg">
<g filter="url(#filter0_d_138_7059)">
<path d="M5.37695 16.584C5.37695 9.95657 10.7495 4.58398 17.377 4.58398H139.377C146.004 4.58398 151.377 9.95657 151.377 16.584C151.377 23.2114 146.004 28.584 139.377 28.584H17.377C10.7495 28.584 5.37695 23.2114 5.37695 16.584Z" fill="#EBF4EC"/>
<path d="M37.277 14.954C37.7276 14.954 38.122 15.0233 38.46 15.162C38.8066 15.3007 39.1056 15.5 39.357 15.76C39.6083 16.02 39.812 16.3277 39.968 16.683L38.98 17.151C38.8413 16.735 38.629 16.4187 38.343 16.202C38.0656 15.9767 37.7016 15.864 37.251 15.864C36.8176 15.864 36.445 15.9637 36.133 16.163C35.821 16.3537 35.5826 16.6353 35.418 17.008C35.2533 17.372 35.171 17.814 35.171 18.334C35.171 18.8453 35.2533 19.2873 35.418 19.66C35.5826 20.0327 35.821 20.3187 36.133 20.518C36.445 20.7087 36.8176 20.804 37.251 20.804C37.589 20.804 37.8793 20.752 38.122 20.648C38.3733 20.544 38.577 20.3923 38.733 20.193C38.8976 19.9937 39.0103 19.751 39.071 19.465L40.033 19.803C39.8856 20.2017 39.682 20.544 39.422 20.83C39.1706 21.116 38.863 21.337 38.499 21.493C38.1436 21.6403 37.7363 21.714 37.277 21.714C36.6703 21.714 36.1286 21.5797 35.652 21.311C35.1753 21.0423 34.8026 20.6567 34.534 20.154C34.2653 19.6427 34.131 19.036 34.131 18.334C34.131 17.632 34.2653 17.0297 34.534 16.527C34.8026 16.0157 35.1753 15.6257 35.652 15.357C36.1286 15.0883 36.6703 14.954 37.277 14.954ZM44.2914 14.954C44.9067 14.954 45.4484 15.0883 45.9164 15.357C46.393 15.6257 46.7657 16.0157 47.0344 16.527C47.303 17.0297 47.4374 17.632 47.4374 18.334C47.4374 19.036 47.303 19.6427 47.0344 20.154C46.7657 20.6567 46.393 21.0423 45.9164 21.311C45.4484 21.5797 44.9067 21.714 44.2914 21.714C43.6847 21.714 43.143 21.5797 42.6664 21.311C42.1897 21.0423 41.817 20.6567 41.5484 20.154C41.2797 19.6427 41.1454 19.036 41.1454 18.334C41.1454 17.632 41.2797 17.0297 41.5484 16.527C41.817 16.0157 42.1897 15.6257 42.6664 15.357C43.143 15.0883 43.6847 14.954 44.2914 14.954ZM44.2914 15.851C43.8494 15.851 43.4724 15.9507 43.1604 16.15C42.8484 16.3493 42.6057 16.6353 42.4324 17.008C42.2677 17.372 42.1854 17.814 42.1854 18.334C42.1854 18.8453 42.2677 19.2873 42.4324 19.66C42.6057 20.0327 42.8484 20.3187 43.1604 20.518C43.4724 20.7173 43.8494 20.817 44.2914 20.817C44.7334 20.817 45.1104 20.7173 45.4224 20.518C45.7344 20.3187 45.9727 20.0327 46.1374 19.66C46.3107 19.2873 46.3974 18.8453 46.3974 18.334C46.3974 17.814 46.3107 17.372 46.1374 17.008C45.9727 16.6353 45.7344 16.3493 45.4224 16.15C45.1104 15.9507 44.7334 15.851 44.2914 15.851ZM49.1353 21.584V15.084H50.0453L50.1103 16.098C50.3443 15.6993 50.6476 15.409 51.0203 15.227C51.4016 15.045 51.7916 14.954 52.1903 14.954C52.6496 14.954 53.083 15.058 53.4903 15.266C53.8976 15.474 54.2096 15.7947 54.4263 16.228C54.565 15.9333 54.76 15.695 55.0113 15.513C55.2626 15.3223 55.5356 15.1837 55.8303 15.097C56.1336 15.0017 56.4196 14.954 56.6883 14.954C57.1043 14.954 57.4986 15.0407 57.8713 15.214C58.2526 15.3873 58.5646 15.656 58.8073 16.02C59.05 16.384 59.1713 16.852 59.1713 17.424V21.584H58.1313V17.528C58.1313 16.9387 57.984 16.514 57.6893 16.254C57.3946 15.994 57.0306 15.864 56.5973 15.864C56.2593 15.864 55.943 15.9463 55.6483 16.111C55.3536 16.2757 55.1153 16.5183 54.9333 16.839C54.76 17.1597 54.6733 17.554 54.6733 18.022V21.584H53.6333V17.528C53.6333 16.9387 53.486 16.514 53.1913 16.254C52.8966 15.994 52.5326 15.864 52.0993 15.864C51.8133 15.864 51.5186 15.942 51.2153 16.098C50.9206 16.2453 50.6736 16.4837 50.4743 16.813C50.275 17.1423 50.1753 17.5757 50.1753 18.113V21.584H49.1353ZM61.2659 24.314V15.084H62.1759L62.2669 16.67L62.1239 16.488C62.2366 16.1847 62.4056 15.9203 62.6309 15.695C62.8562 15.461 63.1292 15.279 63.4499 15.149C63.7706 15.019 64.1172 14.954 64.4899 14.954C65.0186 14.954 65.5039 15.0883 65.9459 15.357C66.3966 15.6257 66.7562 16.0113 67.0249 16.514C67.2936 17.0167 67.4279 17.6233 67.4279 18.334C67.4279 19.036 67.2892 19.6427 67.0119 20.154C66.7432 20.6567 66.3836 21.0423 65.9329 21.311C65.4822 21.5797 64.9882 21.714 64.4509 21.714C63.9136 21.714 63.4412 21.584 63.0339 21.324C62.6352 21.0553 62.3492 20.7173 62.1759 20.31L62.3059 20.115V24.314H61.2659ZM64.3469 20.804C64.9882 20.804 65.4866 20.5787 65.8419 20.128C66.2059 19.6773 66.3879 19.0793 66.3879 18.334C66.3879 17.5887 66.2102 16.9907 65.8549 16.54C65.5082 16.0893 65.0186 15.864 64.3859 15.864C63.9699 15.864 63.6059 15.968 63.2939 16.176C62.9819 16.3753 62.7392 16.6613 62.5659 17.034C62.3926 17.398 62.3059 17.8313 62.3059 18.334C62.3059 18.828 62.3882 19.2613 62.5529 19.634C62.7262 20.0067 62.9646 20.297 63.2679 20.505C63.5799 20.7043 63.9396 20.804 64.3469 20.804ZM72.9523 17.385C72.9523 16.8997 72.8223 16.527 72.5623 16.267C72.3023 15.9983 71.934 15.864 71.4573 15.864C71.0066 15.864 70.6253 15.9637 70.3133 16.163C70.0013 16.3537 69.7716 16.6657 69.6243 17.099L68.7793 16.579C68.9526 16.0937 69.2733 15.7037 69.7413 15.409C70.2093 15.1057 70.79 14.954 71.4833 14.954C71.9513 14.954 72.376 15.0363 72.7573 15.201C73.1386 15.357 73.4376 15.5997 73.6543 15.929C73.8796 16.2497 73.9923 16.6657 73.9923 17.177V20.323C73.9923 20.635 74.157 20.791 74.4863 20.791C74.651 20.791 74.8113 20.7693 74.9673 20.726L74.9153 21.545C74.742 21.6317 74.5166 21.675 74.2393 21.675C73.988 21.675 73.7626 21.6273 73.5633 21.532C73.364 21.4367 73.208 21.2937 73.0953 21.103C72.9826 20.9037 72.9263 20.6567 72.9263 20.362V20.232L73.1863 20.271C73.0823 20.609 72.9046 20.8863 72.6533 21.103C72.402 21.311 72.1203 21.467 71.8083 21.571C71.4963 21.6663 71.1886 21.714 70.8853 21.714C70.504 21.714 70.1486 21.649 69.8193 21.519C69.49 21.389 69.2256 21.194 69.0263 20.934C68.8356 20.6653 68.7403 20.336 68.7403 19.946C68.7403 19.4607 68.9006 19.062 69.2213 18.75C69.5506 18.4293 70.0056 18.2127 70.5863 18.1L73.1603 17.593V18.451L71.0673 18.88C70.6426 18.9667 70.3263 19.088 70.1183 19.244C69.9103 19.4 69.8063 19.6167 69.8063 19.894C69.8063 20.1627 69.9103 20.3837 70.1183 20.557C70.335 20.7217 70.6383 20.804 71.0283 20.804C71.2796 20.804 71.518 20.7737 71.7433 20.713C71.9773 20.6437 72.1853 20.544 72.3673 20.414C72.5493 20.2753 72.6923 20.1063 72.7963 19.907C72.9003 19.699 72.9523 19.4563 72.9523 19.179V17.385ZM77.5397 13.238V19.79C77.5397 20.1107 77.6307 20.349 77.8127 20.505C77.9947 20.661 78.2287 20.739 78.5147 20.739C78.766 20.739 78.9827 20.6957 79.1647 20.609C79.3467 20.5223 79.5113 20.4053 79.6587 20.258L80.0227 21.129C79.8233 21.311 79.585 21.454 79.3077 21.558C79.039 21.662 78.727 21.714 78.3717 21.714C78.0423 21.714 77.7347 21.6577 77.4487 21.545C77.1627 21.4237 76.933 21.2373 76.7597 20.986C76.595 20.726 76.5083 20.388 76.4997 19.972V13.524L77.5397 13.238ZM79.9057 15.084V15.981H75.1997V15.084H79.9057ZM81.712 13.836C81.478 13.836 81.2873 13.7667 81.14 13.628C81.0013 13.4807 80.932 13.29 80.932 13.056C80.932 12.822 81.0013 12.6357 81.14 12.497C81.2873 12.3497 81.478 12.276 81.712 12.276C81.946 12.276 82.1323 12.3497 82.271 12.497C82.4183 12.6357 82.492 12.822 82.492 13.056C82.492 13.29 82.4183 13.4807 82.271 13.628C82.1323 13.7667 81.946 13.836 81.712 13.836ZM82.232 15.084V21.584H81.192V15.084H82.232ZM87.5701 21.714C87.2061 21.714 86.8681 21.649 86.5561 21.519C86.2441 21.389 85.9754 21.207 85.7501 20.973C85.5248 20.739 85.3558 20.4747 85.2431 20.18L85.3861 19.998L85.2951 21.584H84.3851V12.094H85.4251V16.553L85.2951 16.358C85.4684 15.9507 85.7588 15.617 86.1661 15.357C86.5821 15.0883 87.0544 14.954 87.5831 14.954C88.1204 14.954 88.6144 15.0883 89.0651 15.357C89.5158 15.6257 89.8754 16.0113 90.1441 16.514C90.4128 17.0167 90.5471 17.6233 90.5471 18.334C90.5471 19.036 90.4084 19.6427 90.1311 20.154C89.8624 20.6567 89.5028 21.0423 89.0521 21.311C88.6014 21.5797 88.1074 21.714 87.5701 21.714ZM87.4661 20.804C88.1074 20.804 88.6058 20.5787 88.9611 20.128C89.3251 19.6773 89.5071 19.0793 89.5071 18.334C89.5071 17.5887 89.3294 16.9907 88.9741 16.54C88.6188 16.0893 88.1204 15.864 87.4791 15.864C87.0718 15.864 86.7121 15.968 86.4001 16.176C86.0968 16.384 85.8584 16.6743 85.6851 17.047C85.5118 17.4197 85.4251 17.8573 85.4251 18.36C85.4251 18.854 85.5074 19.2873 85.6721 19.66C85.8454 20.024 86.0838 20.3057 86.3871 20.505C86.6991 20.7043 87.0588 20.804 87.4661 20.804ZM93.2635 12.094V19.933C93.2635 20.2623 93.3241 20.492 93.4455 20.622C93.5668 20.7433 93.7618 20.804 94.0305 20.804C94.2038 20.804 94.3468 20.791 94.4595 20.765C94.5721 20.739 94.7238 20.6913 94.9145 20.622L94.7455 21.532C94.6068 21.5927 94.4551 21.636 94.2905 21.662C94.1258 21.6967 93.9568 21.714 93.7835 21.714C93.2548 21.714 92.8605 21.571 92.6005 21.285C92.3491 20.999 92.2235 20.5613 92.2235 19.972V12.094H93.2635ZM98.7061 21.714C98.0908 21.714 97.5405 21.5797 97.0551 21.311C96.5785 21.0423 96.2058 20.6567 95.9371 20.154C95.6685 19.6427 95.5341 19.036 95.5341 18.334C95.5341 17.632 95.6685 17.0297 95.9371 16.527C96.2058 16.0157 96.5741 15.6257 97.0421 15.357C97.5101 15.0883 98.0431 14.954 98.6411 14.954C99.2478 14.954 99.7635 15.084 100.188 15.344C100.621 15.604 100.951 15.9593 101.176 16.41C101.401 16.852 101.514 17.3503 101.514 17.905C101.514 18.0523 101.51 18.1867 101.501 18.308C101.492 18.4293 101.479 18.5377 101.462 18.633H96.2101V17.71H101.007L100.474 17.814C100.474 17.19 100.301 16.709 99.9541 16.371C99.6161 16.033 99.1698 15.864 98.6151 15.864C98.1905 15.864 97.8221 15.9637 97.5101 16.163C97.2068 16.3537 96.9685 16.6353 96.7951 17.008C96.6305 17.372 96.5481 17.814 96.5481 18.334C96.5481 18.8453 96.6348 19.2873 96.8081 19.66C96.9815 20.0327 97.2241 20.3187 97.5361 20.518C97.8568 20.7087 98.2381 20.804 98.6801 20.804C99.1568 20.804 99.5425 20.713 99.8371 20.531C100.14 20.349 100.383 20.102 100.565 19.79L101.384 20.271C101.219 20.5657 101.007 20.8213 100.747 21.038C100.496 21.2547 100.197 21.4237 99.8501 21.545C99.5121 21.6577 99.1308 21.714 98.7061 21.714ZM111.199 17.385C111.199 16.8997 111.069 16.527 110.809 16.267C110.549 15.9983 110.18 15.864 109.704 15.864C109.253 15.864 108.872 15.9637 108.56 16.163C108.248 16.3537 108.018 16.6657 107.871 17.099L107.026 16.579C107.199 16.0937 107.52 15.7037 107.988 15.409C108.456 15.1057 109.036 14.954 109.73 14.954C110.198 14.954 110.622 15.0363 111.004 15.201C111.385 15.357 111.684 15.5997 111.901 15.929C112.126 16.2497 112.239 16.6657 112.239 17.177V20.323C112.239 20.635 112.403 20.791 112.733 20.791C112.897 20.791 113.058 20.7693 113.214 20.726L113.162 21.545C112.988 21.6317 112.763 21.675 112.486 21.675C112.234 21.675 112.009 21.6273 111.81 21.532C111.61 21.4367 111.454 21.2937 111.342 21.103C111.229 20.9037 111.173 20.6567 111.173 20.362V20.232L111.433 20.271C111.329 20.609 111.151 20.8863 110.9 21.103C110.648 21.311 110.367 21.467 110.055 21.571C109.743 21.6663 109.435 21.714 109.132 21.714C108.75 21.714 108.395 21.649 108.066 21.519C107.736 21.389 107.472 21.194 107.273 20.934C107.082 20.6653 106.987 20.336 106.987 19.946C106.987 19.4607 107.147 19.062 107.468 18.75C107.797 18.4293 108.252 18.2127 108.833 18.1L111.407 17.593V18.451L109.314 18.88C108.889 18.9667 108.573 19.088 108.365 19.244C108.157 19.4 108.053 19.6167 108.053 19.894C108.053 20.1627 108.157 20.3837 108.365 20.557C108.581 20.7217 108.885 20.804 109.275 20.804C109.526 20.804 109.764 20.7737 109.99 20.713C110.224 20.6437 110.432 20.544 110.614 20.414C110.796 20.2753 110.939 20.1063 111.043 19.907C111.147 19.699 111.199 19.4563 111.199 19.179V17.385ZM109.34 11.834L110.328 14.005H109.483L108.209 11.834H109.34ZM121.024 12.874C121.743 12.874 122.35 13.0647 122.844 13.446C123.338 13.8187 123.711 14.3387 123.962 15.006C124.213 15.6647 124.339 16.4273 124.339 17.294C124.339 18.256 124.213 19.0663 123.962 19.725C123.711 20.375 123.338 20.869 122.844 21.207C122.359 21.545 121.756 21.714 121.037 21.714C120.326 21.714 119.715 21.5493 119.204 21.22C118.693 20.8907 118.311 20.4097 118.06 19.777L119.087 19.231C119.226 19.6817 119.451 20.0457 119.763 20.323C120.084 20.6003 120.521 20.739 121.076 20.739C121.527 20.739 121.899 20.6523 122.194 20.479C122.497 20.297 122.736 20.0413 122.909 19.712C123.082 19.374 123.204 18.971 123.273 18.503C123.351 18.035 123.39 17.515 123.39 16.943C123.39 16.9257 123.39 16.9083 123.39 16.891C123.39 16.865 123.39 16.8433 123.39 16.826H123.338C123.234 17.216 123.052 17.5323 122.792 17.775C122.532 18.009 122.237 18.178 121.908 18.282C121.587 18.386 121.267 18.438 120.946 18.438C120.383 18.438 119.884 18.3297 119.451 18.113C119.018 17.8877 118.68 17.5757 118.437 17.177C118.194 16.7783 118.073 16.306 118.073 15.76C118.073 15.1707 118.19 14.6637 118.424 14.239C118.658 13.8057 118.996 13.472 119.438 13.238C119.88 12.9953 120.409 12.874 121.024 12.874ZM121.037 13.875C120.43 13.875 119.967 14.044 119.646 14.382C119.325 14.7113 119.165 15.175 119.165 15.773C119.165 16.2843 119.334 16.6917 119.672 16.995C120.01 17.2897 120.465 17.437 121.037 17.437C121.41 17.437 121.735 17.3633 122.012 17.216C122.298 17.06 122.519 16.852 122.675 16.592C122.831 16.3233 122.909 16.0157 122.909 15.669C122.909 15.305 122.831 14.9887 122.675 14.72C122.519 14.4513 122.298 14.2433 122.012 14.096C121.735 13.9487 121.41 13.875 121.037 13.875ZM128.657 21.714C127.895 21.714 127.279 21.5407 126.811 21.194C126.352 20.8473 125.997 20.3663 125.745 19.751L126.759 19.218C126.898 19.6687 127.11 20.037 127.396 20.323C127.691 20.6003 128.12 20.739 128.683 20.739C129.082 20.739 129.42 20.6653 129.697 20.518C129.983 20.3707 130.204 20.1627 130.36 19.894C130.516 19.6167 130.594 19.2873 130.594 18.906C130.594 18.4987 130.521 18.1607 130.373 17.892C130.235 17.6147 130.031 17.4067 129.762 17.268C129.494 17.1293 129.164 17.06 128.774 17.06C128.497 17.06 128.237 17.0903 127.994 17.151C127.76 17.203 127.548 17.2897 127.357 17.411C127.167 17.5323 127.002 17.6927 126.863 17.892L125.953 17.723L126.46 13.004H131.283V13.979H127.344L127.006 16.683L126.98 16.8H127.006C127.214 16.5833 127.479 16.41 127.799 16.28C128.129 16.15 128.519 16.085 128.969 16.085C129.515 16.085 129.988 16.202 130.386 16.436C130.794 16.6613 131.11 16.982 131.335 17.398C131.561 17.814 131.673 18.2993 131.673 18.854C131.673 19.296 131.6 19.6947 131.452 20.05C131.305 20.4053 131.097 20.7087 130.828 20.96C130.56 21.2027 130.239 21.389 129.866 21.519C129.502 21.649 129.099 21.714 128.657 21.714ZM134.573 21.584L140.033 13.004H141.021L135.561 21.584H134.573ZM134.82 12.874C135.244 12.874 135.608 12.9737 135.912 13.173C136.224 13.3637 136.462 13.6367 136.627 13.992C136.8 14.3473 136.887 14.7633 136.887 15.24C136.887 15.7167 136.8 16.1327 136.627 16.488C136.462 16.8433 136.224 17.1207 135.912 17.32C135.608 17.5107 135.244 17.606 134.82 17.606C134.404 17.606 134.04 17.5107 133.728 17.32C133.416 17.1207 133.173 16.8433 133 16.488C132.835 16.1327 132.753 15.7167 132.753 15.24C132.753 14.7633 132.835 14.3473 133 13.992C133.173 13.6367 133.416 13.3637 133.728 13.173C134.04 12.9737 134.404 12.874 134.82 12.874ZM134.82 13.693C134.577 13.693 134.369 13.7537 134.196 13.875C134.022 13.9963 133.892 14.174 133.806 14.408C133.719 14.6333 133.676 14.9107 133.676 15.24C133.676 15.5607 133.719 15.838 133.806 16.072C133.892 16.306 134.022 16.4837 134.196 16.605C134.369 16.7263 134.577 16.787 134.82 16.787C135.071 16.787 135.279 16.7263 135.444 16.605C135.617 16.4837 135.747 16.306 135.834 16.072C135.92 15.838 135.964 15.5607 135.964 15.24C135.964 14.9107 135.92 14.6333 135.834 14.408C135.747 14.174 135.617 13.9963 135.444 13.875C135.279 13.7537 135.071 13.693 134.82 13.693ZM140.774 16.982C141.198 16.982 141.562 17.0817 141.866 17.281C142.178 17.4717 142.416 17.7447 142.581 18.1C142.754 18.4553 142.841 18.8713 142.841 19.348C142.841 19.8247 142.754 20.2407 142.581 20.596C142.416 20.9513 142.178 21.2287 141.866 21.428C141.562 21.6187 141.198 21.714 140.774 21.714C140.358 21.714 139.994 21.6187 139.682 21.428C139.37 21.2287 139.127 20.9513 138.954 20.596C138.789 20.2407 138.707 19.8247 138.707 19.348C138.707 18.8713 138.789 18.4553 138.954 18.1C139.127 17.7447 139.37 17.4717 139.682 17.281C139.994 17.0817 140.358 16.982 140.774 16.982ZM140.774 17.801C140.531 17.801 140.323 17.8617 140.15 17.983C139.976 18.1043 139.846 18.282 139.76 18.516C139.673 18.7413 139.63 19.0187 139.63 19.348C139.63 19.6687 139.673 19.946 139.76 20.18C139.846 20.414 139.976 20.5917 140.15 20.713C140.323 20.8343 140.531 20.895 140.774 20.895C141.025 20.895 141.233 20.8343 141.398 20.713C141.571 20.5917 141.701 20.414 141.788 20.18C141.874 19.946 141.918 19.6687 141.918 19.348C141.918 19.0187 141.874 18.7413 141.788 18.516C141.701 18.282 141.571 18.1043 141.398 17.983C141.233 17.8617 141.025 17.801 140.774 17.801Z" fill="#2D7738"/>
<path d="M17.377 5.58398H139.377V3.58398H17.377V5.58398ZM139.377 27.584H17.377V29.584H139.377V27.584ZM17.377 27.584C11.3018 27.584 6.37695 22.6591 6.37695 16.584H4.37695C4.37695 23.7637 10.1972 29.584 17.377 29.584V27.584ZM150.377 16.584C150.377 22.6591 145.452 27.584 139.377 27.584V29.584C146.557 29.584 152.377 23.7637 152.377 16.584H150.377ZM139.377 5.58398C145.452 5.58398 150.377 10.5089 150.377 16.584H152.377C152.377 9.40428 146.557 3.58398 139.377 3.58398V5.58398ZM17.377 3.58398C10.1973 3.58398 4.37695 9.40428 4.37695 16.584H6.37695C6.37695 10.5089 11.3018 5.58398 17.377 5.58398V3.58398Z" fill="#D7EAD9"/>
</g>
<defs>
<filter id="filter0_d_138_7059" x="0.376953" y="0.583984" width="156" height="34" filterUnits="userSpaceOnUse" color-interpolation-filters="sRGB">
<feFlood flood-opacity="0" result="BackgroundImageFix"/>
<feColorMatrix in="SourceAlpha" type="matrix" values="0 0 0 0 0 0 0 0 0 0 0 0 0 0 0 0 0 0 127 0" result="hardAlpha"/>
<feMorphology radius="1" operator="erode" in="SourceAlpha" result="effect1_dropShadow_138_7059"/>
<feOffset dy="1"/>
<feGaussianBlur stdDeviation="3"/>
<feColorMatrix type="matrix" values="0 0 0 0 0.176471 0 0 0 0 0.466667 0 0 0 0 0.219608 0 0 0 0.08 0"/>
<feBlend mode="normal" in2="BackgroundImageFix" result="effect1_dropShadow_138_7059"/>
<feBlend mode="normal" in="SourceGraphic" in2="effect1_dropShadow_138_7059" result="shape"/>
</filter>
</defs>
</svg>
