<svg width="127" height="25" viewBox="0 0 127 25" fill="none" xmlns="http://www.w3.org/2000/svg">
<path d="M0.53125 12.584C0.53125 5.95657 5.90383 0.583984 12.5313 0.583984H114.531C121.159 0.583984 126.531 5.95657 126.531 12.584V12.584C126.531 19.2114 121.159 24.584 114.531 24.584H12.5312C5.90383 24.584 0.53125 19.2114 0.53125 12.584V12.584Z" fill="#EBF4EC"/>
<path d="M12.4428 10.954C12.8934 10.954 13.2878 11.0233 13.6258 11.162C13.9724 11.3007 14.2714 11.5 14.5228 11.76C14.7741 12.02 14.9778 12.3277 15.1338 12.683L14.1458 13.151C14.0071 12.735 13.7948 12.4187 13.5088 12.202C13.2314 11.9767 12.8674 11.864 12.4168 11.864C11.9834 11.864 11.6108 11.9637 11.2988 12.163C10.9868 12.3537 10.7484 12.6353 10.5838 13.008C10.4191 13.372 10.3368 13.814 10.3368 14.334C10.3368 14.8453 10.4191 15.2873 10.5838 15.66C10.7484 16.0327 10.9868 16.3187 11.2988 16.518C11.6108 16.7087 11.9834 16.804 12.4168 16.804C12.7548 16.804 13.0451 16.752 13.2878 16.648C13.5391 16.544 13.7428 16.3923 13.8988 16.193C14.0634 15.9937 14.1761 15.751 14.2368 15.465L15.1988 15.803C15.0514 16.2017 14.8478 16.544 14.5878 16.83C14.3364 17.116 14.0288 17.337 13.6648 17.493C13.3094 17.6403 12.9021 17.714 12.4428 17.714C11.8361 17.714 11.2944 17.5797 10.8178 17.311C10.3411 17.0423 9.96844 16.6567 9.69977 16.154C9.43111 15.6427 9.29677 15.036 9.29677 14.334C9.29677 13.632 9.43111 13.0297 9.69977 12.527C9.96844 12.0157 10.3411 11.6257 10.8178 11.357C11.2944 11.0883 11.8361 10.954 12.4428 10.954ZM19.4572 10.954C20.0725 10.954 20.6142 11.0883 21.0822 11.357C21.5589 11.6257 21.9315 12.0157 22.2002 12.527C22.4689 13.0297 22.6032 13.632 22.6032 14.334C22.6032 15.036 22.4689 15.6427 22.2002 16.154C21.9315 16.6567 21.5589 17.0423 21.0822 17.311C20.6142 17.5797 20.0725 17.714 19.4572 17.714C18.8505 17.714 18.3089 17.5797 17.8322 17.311C17.3555 17.0423 16.9829 16.6567 16.7142 16.154C16.4455 15.6427 16.3112 15.036 16.3112 14.334C16.3112 13.632 16.4455 13.0297 16.7142 12.527C16.9829 12.0157 17.3555 11.6257 17.8322 11.357C18.3089 11.0883 18.8505 10.954 19.4572 10.954ZM19.4572 11.851C19.0152 11.851 18.6382 11.9507 18.3262 12.15C18.0142 12.3493 17.7715 12.6353 17.5982 13.008C17.4335 13.372 17.3512 13.814 17.3512 14.334C17.3512 14.8453 17.4335 15.2873 17.5982 15.66C17.7715 16.0327 18.0142 16.3187 18.3262 16.518C18.6382 16.7173 19.0152 16.817 19.4572 16.817C19.8992 16.817 20.2762 16.7173 20.5882 16.518C20.9002 16.3187 21.1385 16.0327 21.3032 15.66C21.4765 15.2873 21.5632 14.8453 21.5632 14.334C21.5632 13.814 21.4765 13.372 21.3032 13.008C21.1385 12.6353 20.9002 12.3493 20.5882 12.15C20.2762 11.9507 19.8992 11.851 19.4572 11.851ZM24.3011 17.584V11.084H25.2111L25.2761 12.098C25.5101 11.6993 25.8134 11.409 26.1861 11.227C26.5674 11.045 26.9574 10.954 27.3561 10.954C27.8154 10.954 28.2488 11.058 28.6561 11.266C29.0634 11.474 29.3754 11.7947 29.5921 12.228C29.7308 11.9333 29.9258 11.695 30.1771 11.513C30.4284 11.3223 30.7014 11.1837 30.9961 11.097C31.2994 11.0017 31.5854 10.954 31.8541 10.954C32.2701 10.954 32.6644 11.0407 33.0371 11.214C33.4184 11.3873 33.7304 11.656 33.9731 12.02C34.2158 12.384 34.3371 12.852 34.3371 13.424V17.584H33.2971V13.528C33.2971 12.9387 33.1498 12.514 32.8551 12.254C32.5604 11.994 32.1964 11.864 31.7631 11.864C31.4251 11.864 31.1088 11.9463 30.8141 12.111C30.5194 12.2757 30.2811 12.5183 30.0991 12.839C29.9258 13.1597 29.8391 13.554 29.8391 14.022V17.584H28.7991V13.528C28.7991 12.9387 28.6518 12.514 28.3571 12.254C28.0624 11.994 27.6984 11.864 27.2651 11.864C26.9791 11.864 26.6844 11.942 26.3811 12.098C26.0864 12.2453 25.8394 12.4837 25.6401 12.813C25.4408 13.1423 25.3411 13.5757 25.3411 14.113V17.584H24.3011ZM36.4317 20.314V11.084H37.3417L37.4327 12.67L37.2897 12.488C37.4024 12.1847 37.5714 11.9203 37.7967 11.695C38.0221 11.461 38.2951 11.279 38.6157 11.149C38.9364 11.019 39.2831 10.954 39.6557 10.954C40.1844 10.954 40.6697 11.0883 41.1117 11.357C41.5624 11.6257 41.9221 12.0113 42.1907 12.514C42.4594 13.0167 42.5937 13.6233 42.5937 14.334C42.5937 15.036 42.4551 15.6427 42.1777 16.154C41.9091 16.6567 41.5494 17.0423 41.0987 17.311C40.6481 17.5797 40.1541 17.714 39.6167 17.714C39.0794 17.714 38.6071 17.584 38.1997 17.324C37.8011 17.0553 37.5151 16.7173 37.3417 16.31L37.4717 16.115V20.314H36.4317ZM39.5127 16.804C40.1541 16.804 40.6524 16.5787 41.0077 16.128C41.3717 15.6773 41.5537 15.0793 41.5537 14.334C41.5537 13.5887 41.3761 12.9907 41.0207 12.54C40.6741 12.0893 40.1844 11.864 39.5517 11.864C39.1357 11.864 38.7717 11.968 38.4597 12.176C38.1477 12.3753 37.9051 12.6613 37.7317 13.034C37.5584 13.398 37.4717 13.8313 37.4717 14.334C37.4717 14.828 37.5541 15.2613 37.7187 15.634C37.8921 16.0067 38.1304 16.297 38.4337 16.505C38.7457 16.7043 39.1054 16.804 39.5127 16.804ZM48.1181 13.385C48.1181 12.8997 47.9881 12.527 47.7281 12.267C47.4681 11.9983 47.0998 11.864 46.6231 11.864C46.1725 11.864 45.7911 11.9637 45.4791 12.163C45.1671 12.3537 44.9375 12.6657 44.7901 13.099L43.9451 12.579C44.1185 12.0937 44.4391 11.7037 44.9071 11.409C45.3751 11.1057 45.9558 10.954 46.6491 10.954C47.1171 10.954 47.5418 11.0363 47.9231 11.201C48.3045 11.357 48.6035 11.5997 48.8201 11.929C49.0455 12.2497 49.1581 12.6657 49.1581 13.177V16.323C49.1581 16.635 49.3228 16.791 49.6521 16.791C49.8168 16.791 49.9771 16.7693 50.1331 16.726L50.0811 17.545C49.9078 17.6317 49.6825 17.675 49.4051 17.675C49.1538 17.675 48.9285 17.6273 48.7291 17.532C48.5298 17.4367 48.3738 17.2937 48.2611 17.103C48.1485 16.9037 48.0921 16.6567 48.0921 16.362V16.232L48.3521 16.271C48.2481 16.609 48.0705 16.8863 47.8191 17.103C47.5678 17.311 47.2861 17.467 46.9741 17.571C46.6621 17.6663 46.3545 17.714 46.0511 17.714C45.6698 17.714 45.3145 17.649 44.9851 17.519C44.6558 17.389 44.3915 17.194 44.1921 16.934C44.0015 16.6653 43.9061 16.336 43.9061 15.946C43.9061 15.4607 44.0665 15.062 44.3871 14.75C44.7165 14.4293 45.1715 14.2127 45.7521 14.1L48.3261 13.593V14.451L46.2331 14.88C45.8085 14.9667 45.4921 15.088 45.2841 15.244C45.0761 15.4 44.9721 15.6167 44.9721 15.894C44.9721 16.1627 45.0761 16.3837 45.2841 16.557C45.5008 16.7217 45.8041 16.804 46.1941 16.804C46.4455 16.804 46.6838 16.7737 46.9091 16.713C47.1431 16.6437 47.3511 16.544 47.5331 16.414C47.7151 16.2753 47.8581 16.1063 47.9621 15.907C48.0661 15.699 48.1181 15.4563 48.1181 15.179V13.385ZM52.7055 9.23798V15.79C52.7055 16.1107 52.7965 16.349 52.9785 16.505C53.1605 16.661 53.3945 16.739 53.6805 16.739C53.9318 16.739 54.1485 16.6957 54.3305 16.609C54.5125 16.5223 54.6772 16.4053 54.8245 16.258L55.1885 17.129C54.9892 17.311 54.7508 17.454 54.4735 17.558C54.2048 17.662 53.8928 17.714 53.5375 17.714C53.2082 17.714 52.9005 17.6577 52.6145 17.545C52.3285 17.4237 52.0988 17.2373 51.9255 16.986C51.7608 16.726 51.6742 16.388 51.6655 15.972V9.52398L52.7055 9.23798ZM55.0715 11.084V11.981H50.3655V11.084H55.0715ZM56.8778 9.83598C56.6438 9.83598 56.4531 9.76665 56.3058 9.62798C56.1671 9.48065 56.0978 9.28998 56.0978 9.05598C56.0978 8.82198 56.1671 8.63565 56.3058 8.49698C56.4531 8.34965 56.6438 8.27598 56.8778 8.27598C57.1118 8.27598 57.2981 8.34965 57.4368 8.49698C57.5841 8.63565 57.6578 8.82198 57.6578 9.05598C57.6578 9.28998 57.5841 9.48065 57.4368 9.62798C57.2981 9.76665 57.1118 9.83598 56.8778 9.83598ZM57.3978 11.084V17.584H56.3578V11.084H57.3978ZM62.7359 17.714C62.3719 17.714 62.0339 17.649 61.7219 17.519C61.4099 17.389 61.1412 17.207 60.9159 16.973C60.6906 16.739 60.5216 16.4747 60.4089 16.18L60.5519 15.998L60.4609 17.584H59.5509V8.09398H60.5909V12.553L60.4609 12.358C60.6342 11.9507 60.9246 11.617 61.3319 11.357C61.7479 11.0883 62.2202 10.954 62.7489 10.954C63.2862 10.954 63.7802 11.0883 64.2309 11.357C64.6816 11.6257 65.0412 12.0113 65.3099 12.514C65.5786 13.0167 65.7129 13.6233 65.7129 14.334C65.7129 15.036 65.5742 15.6427 65.2969 16.154C65.0282 16.6567 64.6686 17.0423 64.2179 17.311C63.7672 17.5797 63.2732 17.714 62.7359 17.714ZM62.6319 16.804C63.2732 16.804 63.7716 16.5787 64.1269 16.128C64.4909 15.6773 64.6729 15.0793 64.6729 14.334C64.6729 13.5887 64.4952 12.9907 64.1399 12.54C63.7846 12.0893 63.2862 11.864 62.6449 11.864C62.2376 11.864 61.8779 11.968 61.5659 12.176C61.2626 12.384 61.0242 12.6743 60.8509 13.047C60.6776 13.4197 60.5909 13.8573 60.5909 14.36C60.5909 14.854 60.6732 15.2873 60.8379 15.66C61.0112 16.024 61.2496 16.3057 61.5529 16.505C61.8649 16.7043 62.2246 16.804 62.6319 16.804ZM68.4293 8.09398V15.933C68.4293 16.2623 68.49 16.492 68.6113 16.622C68.7326 16.7433 68.9276 16.804 69.1963 16.804C69.3696 16.804 69.5126 16.791 69.6253 16.765C69.738 16.739 69.8896 16.6913 70.0803 16.622L69.9113 17.532C69.7726 17.5927 69.621 17.636 69.4563 17.662C69.2916 17.6967 69.1226 17.714 68.9493 17.714C68.4206 17.714 68.0263 17.571 67.7663 17.285C67.515 16.999 67.3893 16.5613 67.3893 15.972V8.09398H68.4293ZM73.8719 17.714C73.2566 17.714 72.7063 17.5797 72.2209 17.311C71.7443 17.0423 71.3716 16.6567 71.1029 16.154C70.8343 15.6427 70.6999 15.036 70.6999 14.334C70.6999 13.632 70.8343 13.0297 71.1029 12.527C71.3716 12.0157 71.7399 11.6257 72.2079 11.357C72.6759 11.0883 73.2089 10.954 73.8069 10.954C74.4136 10.954 74.9293 11.084 75.3539 11.344C75.7873 11.604 76.1166 11.9593 76.3419 12.41C76.5673 12.852 76.6799 13.3503 76.6799 13.905C76.6799 14.0523 76.6756 14.1867 76.6669 14.308C76.6583 14.4293 76.6453 14.5377 76.6279 14.633H71.3759V13.71H76.1729L75.6399 13.814C75.6399 13.19 75.4666 12.709 75.1199 12.371C74.7819 12.033 74.3356 11.864 73.7809 11.864C73.3563 11.864 72.9879 11.9637 72.6759 12.163C72.3726 12.3537 72.1343 12.6353 71.9609 13.008C71.7963 13.372 71.7139 13.814 71.7139 14.334C71.7139 14.8453 71.8006 15.2873 71.9739 15.66C72.1473 16.0327 72.3899 16.3187 72.7019 16.518C73.0226 16.7087 73.4039 16.804 73.8459 16.804C74.3226 16.804 74.7083 16.713 75.0029 16.531C75.3063 16.349 75.5489 16.102 75.7309 15.79L76.5499 16.271C76.3853 16.5657 76.1729 16.8213 75.9129 17.038C75.6616 17.2547 75.3626 17.4237 75.0159 17.545C74.6779 17.6577 74.2966 17.714 73.8719 17.714ZM86.3645 13.385C86.3645 12.8997 86.2345 12.527 85.9745 12.267C85.7145 11.9983 85.3462 11.864 84.8695 11.864C84.4189 11.864 84.0375 11.9637 83.7255 12.163C83.4135 12.3537 83.1839 12.6657 83.0365 13.099L82.1915 12.579C82.3649 12.0937 82.6855 11.7037 83.1535 11.409C83.6215 11.1057 84.2022 10.954 84.8955 10.954C85.3635 10.954 85.7882 11.0363 86.1695 11.201C86.5509 11.357 86.8499 11.5997 87.0665 11.929C87.2919 12.2497 87.4045 12.6657 87.4045 13.177V16.323C87.4045 16.635 87.5692 16.791 87.8985 16.791C88.0632 16.791 88.2235 16.7693 88.3795 16.726L88.3275 17.545C88.1542 17.6317 87.9289 17.675 87.6515 17.675C87.4002 17.675 87.1749 17.6273 86.9755 17.532C86.7762 17.4367 86.6202 17.2937 86.5075 17.103C86.3949 16.9037 86.3385 16.6567 86.3385 16.362V16.232L86.5985 16.271C86.4945 16.609 86.3169 16.8863 86.0655 17.103C85.8142 17.311 85.5325 17.467 85.2205 17.571C84.9085 17.6663 84.6009 17.714 84.2975 17.714C83.9162 17.714 83.5609 17.649 83.2315 17.519C82.9022 17.389 82.6379 17.194 82.4385 16.934C82.2479 16.6653 82.1525 16.336 82.1525 15.946C82.1525 15.4607 82.3129 15.062 82.6335 14.75C82.9629 14.4293 83.4179 14.2127 83.9985 14.1L86.5725 13.593V14.451L84.4795 14.88C84.0549 14.9667 83.7385 15.088 83.5305 15.244C83.3225 15.4 83.2185 15.6167 83.2185 15.894C83.2185 16.1627 83.3225 16.3837 83.5305 16.557C83.7472 16.7217 84.0505 16.804 84.4405 16.804C84.6919 16.804 84.9302 16.7737 85.1555 16.713C85.3895 16.6437 85.5975 16.544 85.7795 16.414C85.9615 16.2753 86.1045 16.1063 86.2085 15.907C86.3125 15.699 86.3645 15.4563 86.3645 15.179V13.385ZM84.5055 7.83398L85.4935 10.005H84.6485L83.3745 7.83398H84.5055ZM96.3328 8.88698C96.8875 8.88698 97.3685 8.97798 97.7758 9.15998C98.1831 9.34198 98.4995 9.60198 98.7248 9.93998C98.9501 10.2693 99.0628 10.668 99.0628 11.136C99.0628 11.578 98.9545 11.968 98.7378 12.306C98.5298 12.6353 98.2351 12.8867 97.8538 13.06V13.073C98.3391 13.255 98.7248 13.5323 99.0108 13.905C99.3055 14.2777 99.4528 14.7327 99.4528 15.27C99.4528 15.7727 99.3228 16.206 99.0628 16.57C98.8028 16.934 98.4388 17.2157 97.9708 17.415C97.5115 17.6143 96.9655 17.714 96.3328 17.714C95.7088 17.714 95.1628 17.6143 94.6948 17.415C94.2268 17.2157 93.8628 16.934 93.6028 16.57C93.3428 16.206 93.2128 15.7727 93.2128 15.27C93.2128 14.7413 93.3558 14.2907 93.6418 13.918C93.9278 13.5367 94.3221 13.255 94.8248 13.073V13.06C94.4521 12.8953 94.1531 12.6483 93.9278 12.319C93.7111 11.981 93.6028 11.5867 93.6028 11.136C93.6028 10.668 93.7155 10.2693 93.9408 9.93998C94.1661 9.60198 94.4825 9.34198 94.8898 9.15998C95.3058 8.97798 95.7868 8.88698 96.3328 8.88698ZM96.3328 9.86198C95.8301 9.86198 95.4271 9.98332 95.1238 10.226C94.8291 10.4687 94.6818 10.8067 94.6818 11.24C94.6818 11.6647 94.8335 11.9983 95.1368 12.241C95.4401 12.4837 95.8388 12.605 96.3328 12.605C96.8268 12.605 97.2255 12.4837 97.5288 12.241C97.8321 11.9983 97.9838 11.6647 97.9838 11.24C97.9838 10.8067 97.8365 10.4687 97.5418 10.226C97.2471 9.98332 96.8441 9.86198 96.3328 9.86198ZM96.3328 16.739C96.7575 16.739 97.1215 16.6783 97.4248 16.557C97.7281 16.427 97.9621 16.245 98.1268 16.011C98.2915 15.7683 98.3738 15.4867 98.3738 15.166C98.3738 14.8367 98.2871 14.555 98.1138 14.321C97.9491 14.0783 97.7151 13.8963 97.4118 13.775C97.1085 13.645 96.7488 13.58 96.3328 13.58C95.9255 13.58 95.5658 13.645 95.2538 13.775C94.9505 13.8963 94.7121 14.0783 94.5388 14.321C94.3741 14.555 94.2918 14.8367 94.2918 15.166C94.2918 15.4867 94.3741 15.7683 94.5388 16.011C94.7035 16.245 94.9375 16.427 95.2408 16.557C95.5528 16.6783 95.9168 16.739 96.3328 16.739ZM103.811 17.714C103.048 17.714 102.433 17.5407 101.965 17.194C101.505 16.8473 101.15 16.3663 100.899 15.751L101.913 15.218C102.051 15.6687 102.264 16.037 102.55 16.323C102.844 16.6003 103.273 16.739 103.837 16.739C104.235 16.739 104.573 16.6653 104.851 16.518C105.137 16.3707 105.358 16.1627 105.514 15.894C105.67 15.6167 105.748 15.2873 105.748 14.906C105.748 14.4987 105.674 14.1607 105.527 13.892C105.388 13.6147 105.184 13.4067 104.916 13.268C104.647 13.1293 104.318 13.06 103.928 13.06C103.65 13.06 103.39 13.0903 103.148 13.151C102.914 13.203 102.701 13.2897 102.511 13.411C102.32 13.5323 102.155 13.6927 102.017 13.892L101.107 13.723L101.614 9.00398H106.437V9.97898H102.498L102.16 12.683L102.134 12.8H102.16C102.368 12.5833 102.632 12.41 102.953 12.28C103.282 12.15 103.672 12.085 104.123 12.085C104.669 12.085 105.141 12.202 105.54 12.436C105.947 12.6613 106.263 12.982 106.489 13.398C106.714 13.814 106.827 14.2993 106.827 14.854C106.827 15.296 106.753 15.6947 106.606 16.05C106.458 16.4053 106.25 16.7087 105.982 16.96C105.713 17.2027 105.392 17.389 105.02 17.519C104.656 17.649 104.253 17.714 103.811 17.714ZM109.726 17.584L115.186 9.00398H116.174L110.714 17.584H109.726ZM109.973 8.87398C110.398 8.87398 110.762 8.97365 111.065 9.17298C111.377 9.36365 111.615 9.63665 111.78 9.99198C111.953 10.3473 112.04 10.7633 112.04 11.24C112.04 11.7167 111.953 12.1327 111.78 12.488C111.615 12.8433 111.377 13.1207 111.065 13.32C110.762 13.5107 110.398 13.606 109.973 13.606C109.557 13.606 109.193 13.5107 108.881 13.32C108.569 13.1207 108.326 12.8433 108.153 12.488C107.988 12.1327 107.906 11.7167 107.906 11.24C107.906 10.7633 107.988 10.3473 108.153 9.99198C108.326 9.63665 108.569 9.36365 108.881 9.17298C109.193 8.97365 109.557 8.87398 109.973 8.87398ZM109.973 9.69298C109.73 9.69298 109.522 9.75365 109.349 9.87498C109.176 9.99632 109.046 10.174 108.959 10.408C108.872 10.6333 108.829 10.9107 108.829 11.24C108.829 11.5607 108.872 11.838 108.959 12.072C109.046 12.306 109.176 12.4837 109.349 12.605C109.522 12.7263 109.73 12.787 109.973 12.787C110.224 12.787 110.432 12.7263 110.597 12.605C110.77 12.4837 110.9 12.306 110.987 12.072C111.074 11.838 111.117 11.5607 111.117 11.24C111.117 10.9107 111.074 10.6333 110.987 10.408C110.9 10.174 110.77 9.99632 110.597 9.87498C110.432 9.75365 110.224 9.69298 109.973 9.69298ZM115.927 12.982C116.352 12.982 116.716 13.0817 117.019 13.281C117.331 13.4717 117.569 13.7447 117.734 14.1C117.907 14.4553 117.994 14.8713 117.994 15.348C117.994 15.8247 117.907 16.2407 117.734 16.596C117.569 16.9513 117.331 17.2287 117.019 17.428C116.716 17.6187 116.352 17.714 115.927 17.714C115.511 17.714 115.147 17.6187 114.835 17.428C114.523 17.2287 114.28 16.9513 114.107 16.596C113.942 16.2407 113.86 15.8247 113.86 15.348C113.86 14.8713 113.942 14.4553 114.107 14.1C114.28 13.7447 114.523 13.4717 114.835 13.281C115.147 13.0817 115.511 12.982 115.927 12.982ZM115.927 13.801C115.684 13.801 115.476 13.8617 115.303 13.983C115.13 14.1043 115 14.282 114.913 14.516C114.826 14.7413 114.783 15.0187 114.783 15.348C114.783 15.6687 114.826 15.946 114.913 16.18C115 16.414 115.13 16.5917 115.303 16.713C115.476 16.8343 115.684 16.895 115.927 16.895C116.178 16.895 116.386 16.8343 116.551 16.713C116.724 16.5917 116.854 16.414 116.941 16.18C117.028 15.946 117.071 15.6687 117.071 15.348C117.071 15.0187 117.028 14.7413 116.941 14.516C116.854 14.282 116.724 14.1043 116.551 13.983C116.386 13.8617 116.178 13.801 115.927 13.801Z" fill="#2D7738"/>
<path d="M12.5313 1.58398H114.531V-0.416016H12.5313V1.58398ZM114.531 23.584H12.5312V25.584H114.531V23.584ZM12.5312 23.584C6.45612 23.584 1.53125 18.6591 1.53125 12.584H-0.46875C-0.46875 19.7637 5.35155 25.584 12.5312 25.584V23.584ZM125.531 12.584C125.531 18.6591 120.606 23.584 114.531 23.584V25.584C121.711 25.584 127.531 19.7637 127.531 12.584H125.531ZM114.531 1.58398C120.606 1.58398 125.531 6.50885 125.531 12.584H127.531C127.531 5.40428 121.711 -0.416016 114.531 -0.416016V1.58398ZM12.5313 -0.416016C5.35155 -0.416016 -0.46875 5.40428 -0.46875 12.584H1.53125C1.53125 6.50885 6.45612 1.58398 12.5313 1.58398V-0.416016Z" fill="#D7EAD9"/>
</svg>
