<svg width="43" height="17" viewBox="0 0 43 17" fill="none" xmlns="http://www.w3.org/2000/svg">
<path d="M40.484 2.74062C40.1229 2.37394 39.6942 2.08305 39.2223 1.88459C38.7504 1.68613 38.2446 1.58398 37.7338 1.58398C37.223 1.58398 36.7172 1.68613 36.2453 1.88459C35.7734 2.08305 35.3447 2.37394 34.9836 2.74062L34.2342 3.50128L33.4848 2.74062C32.7554 2.00029 31.7661 1.58437 30.7346 1.58437C29.7031 1.58437 28.7138 2.00029 27.9844 2.74062C27.255 3.48096 26.8452 4.48508 26.8452 5.53207C26.8452 6.57907 27.255 7.58319 27.9844 8.32352L28.7338 9.08418L34.2342 14.6671L39.7346 9.08418L40.484 8.32352C40.8453 7.95701 41.1318 7.52184 41.3274 7.04287C41.5229 6.5639 41.6235 6.05053 41.6235 5.53207C41.6235 5.01362 41.5229 4.50025 41.3274 4.02128C41.1318 3.54231 40.8453 3.10714 40.484 2.74062V2.74062Z" stroke="black" stroke-width="1.5" stroke-linecap="round" stroke-linejoin="round"/>
<path d="M11.9755 5.78398C13.1353 5.78398 14.0755 4.84378 14.0755 3.68398C14.0755 2.52419 13.1353 1.58398 11.9755 1.58398C10.8157 1.58398 9.87549 2.52419 9.87549 3.68398C9.87549 4.84378 10.8157 5.78398 11.9755 5.78398Z" stroke="black" stroke-width="1.5" stroke-linecap="round" stroke-linejoin="round"/>
<path d="M3.57559 10.6844C4.73538 10.6844 5.67559 9.74417 5.67559 8.58437C5.67559 7.42458 4.73538 6.48438 3.57559 6.48438C2.41579 6.48438 1.47559 7.42458 1.47559 8.58437C1.47559 9.74417 2.41579 10.6844 3.57559 10.6844Z" stroke="black" stroke-width="1.5" stroke-linecap="round" stroke-linejoin="round"/>
<path d="M11.9755 15.5838C13.1353 15.5838 14.0755 14.6436 14.0755 13.4838C14.0755 12.324 13.1353 11.3838 11.9755 11.3838C10.8157 11.3838 9.87549 12.324 9.87549 13.4838C9.87549 14.6436 10.8157 15.5838 11.9755 15.5838Z" stroke="black" stroke-width="1.5" stroke-linecap="round" stroke-linejoin="round"/>
<path d="M5.38867 9.64062L10.1697 12.4266" stroke="black" stroke-width="1.5" stroke-linecap="round" stroke-linejoin="round"/>
<path d="M10.1627 4.74121L5.38867 7.52721" stroke="black" stroke-width="1.5" stroke-linecap="round" stroke-linejoin="round"/>
</svg>
