<svg width="168" height="25" viewBox="0 0 168 25" fill="none" xmlns="http://www.w3.org/2000/svg">
<path d="M16.1004 13.9708C16.1004 13.9708 10.5611 8.43142 10.5592 8.43142C10.2299 8.09296 9.78357 7.9082 9.29878 7.9082H0V11.4462H10.1806C10.9562 11.4462 11.6861 11.7481 12.235 12.2969C12.7838 12.8457 13.0856 13.5738 13.0856 14.3513V24.53H16.6218V15.2312C16.6218 14.7483 16.437 14.3001 16.1004 13.9708Z" fill="#007CC5"/>
<path d="M25.9645 7.9082C25.4816 7.9082 25.0334 8.09296 24.7041 8.43142L19.1647 13.9708C18.8281 14.3001 18.6433 14.7483 18.6433 15.2312V24.53H22.1795V14.3513C22.1795 12.7488 23.482 11.4462 25.0846 11.4462H35.2633V7.9082H25.9645Z" fill="#007CC5"/>
<path d="M59.5831 7.50391C57.8708 7.50391 56.1055 8.71314 55.2896 10.4474L55.2621 10.5041H55.0316V7.9082H52.3479V24.53H55.2274V16.9747C55.2274 12.7414 57.0677 10.0065 59.9124 10.0065C60.5271 10.0065 61.0631 10.1016 61.5278 10.2718V7.71612C60.9113 7.59172 60.4576 7.50391 59.5831 7.50391Z" fill="#007CC5"/>
<path d="M148.299 9.10852C147.218 8.02552 145.588 7.50049 143.314 7.50049C141.443 7.50049 139.617 8.01821 137.886 9.02986L138.035 11.4373C139.304 10.4184 141.115 9.78723 142.82 9.78723C144.278 9.78723 145.319 10.1202 146.005 10.8062C146.732 11.5306 147.07 12.6411 147.07 14.2985V14.4064L146.964 14.3991C145.738 14.3333 144.873 14.3333 143.676 14.3351C141.633 14.3333 138.885 14.8985 137.296 16.4883C136.416 17.3682 135.969 18.475 135.969 19.7739C135.969 21.2996 136.408 22.5106 137.274 23.3777C138.296 24.3985 139.941 24.9382 142.03 24.9382C145.036 24.9382 146.611 23.182 147.149 22.4265L147.178 22.3844H147.397V24.5266H149.949V14.3515C149.949 11.9331 149.412 10.2189 148.299 9.10852ZM147.07 16.5011V18.0871C147.07 19.4061 146.647 20.5312 145.852 21.3416C145.006 22.1996 143.777 22.6515 142.293 22.6533C141.39 22.6533 140.451 22.2746 139.842 21.6673C139.335 21.1587 139.065 20.5111 139.065 19.7921C139.065 16.7627 143.21 16.4352 144.994 16.4352C145.325 16.4352 145.661 16.4517 145.985 16.4682C146.309 16.4846 146.642 16.5011 146.969 16.5011H147.07Z" fill="#007CC5"/>
<path d="M73.4701 9.10852C72.3871 8.02552 70.7571 7.50049 68.4832 7.50049C66.6117 7.50049 64.786 8.01821 63.0554 9.02986L63.2036 11.4373C64.4732 10.4184 66.2843 9.78723 67.9892 9.78723C69.4473 9.78723 70.49 10.1202 71.1742 10.8062C71.9005 11.5306 72.2389 12.6411 72.2389 14.2985V14.4064L72.1328 14.3991C70.9089 14.3333 70.0436 14.3333 68.8454 14.3351C66.8038 14.3333 64.0542 14.8985 62.4663 16.4883C61.5846 17.3682 61.1382 18.475 61.1382 19.7739C61.1382 21.2996 61.5772 22.5106 62.4444 23.3777C63.4652 24.3985 65.1098 24.9382 67.1989 24.9382C70.2046 24.9382 71.7797 23.182 72.3176 22.4265L72.3487 22.3844H72.5664V24.5266H75.1202V14.3515C75.1202 11.9331 74.5787 10.2189 73.4701 9.10852ZM72.2389 16.5011V18.0871C72.2389 19.4061 71.8163 20.5312 71.0205 21.3416C70.1772 22.1996 68.946 22.6515 67.4624 22.6533C66.5587 22.6533 65.6202 22.2746 65.0128 21.6673C64.5043 21.1587 64.2353 20.5111 64.2353 19.7921C64.2353 16.7627 68.3807 16.4352 70.1626 16.4352C70.4937 16.4352 70.8303 16.4517 71.1559 16.4682C71.4779 16.4846 71.8108 16.5011 72.1383 16.5011H72.2389Z" fill="#007CC5"/>
<path d="M90.712 9.04632C89.6857 8.02004 88.2058 7.50049 86.3124 7.50049C83.936 7.50049 81.7535 8.7024 80.8846 10.4934L80.8571 10.5519H80.6266V7.9121H77.8459V24.5303H80.7272V16.8487C80.7272 14.6918 81.148 12.9813 81.9785 11.7666C82.8768 10.4531 84.214 9.78723 85.9538 9.78723C88.5899 9.95004 89.6181 11.6642 89.6181 15.9047V24.5303H92.4993V14.615C92.4993 12.1051 91.8975 10.2318 90.712 9.04632Z" fill="#007CC5"/>
<path d="M118.78 14.9498C117.191 14.2235 115.689 13.5393 115.689 11.9441C115.689 10.6324 116.89 9.78723 118.751 9.78723C119.43 9.78723 121.129 10.1677 121.929 10.5921L122.168 8.13894C120.895 7.75477 119.761 7.50049 118.422 7.50049C116.501 7.50049 114.94 8.04565 113.91 9.0756C113.036 9.95004 112.593 11.1263 112.593 12.5734C112.593 15.1345 114.805 16.2157 116.757 17.1706C118.359 17.9518 119.871 18.6927 119.871 20.1324C119.871 20.7837 119.657 21.3288 119.234 21.7514C118.422 22.5637 117.128 22.6515 116.612 22.6515C115.789 22.6515 114.113 22.2984 112.846 21.5282L112.696 24.0619C114.192 24.8358 115.888 24.9382 117.203 24.9382C118.756 24.9382 120.176 24.4973 121.197 23.6924C122.355 22.7795 122.968 21.4349 122.968 19.7995C122.968 16.8596 120.743 15.8462 118.78 14.9498Z" fill="#007CC5"/>
<path d="M133.011 22.6532C132.298 22.6532 131.643 22.3879 131.165 21.9123C130.602 21.3488 130.305 20.5274 130.305 19.5377V10.195H134.756V7.9083H130.305V3.06592L127.422 3.99158V7.9083H123.63V10.195H127.422V20.167C127.422 21.6818 127.828 22.8544 128.63 23.6538C129.48 24.5063 130.777 24.9381 132.482 24.9381C133.456 24.9381 134.414 24.6765 135.02 24.5045V22.1245C134.427 22.4702 133.754 22.6532 133.011 22.6532Z" fill="#007CC5"/>
<path d="M165.119 0V10.1879H164.895L164.866 10.1403C163.781 8.38775 161.937 7.50049 159.385 7.50049C157.437 7.50049 155.818 8.1298 154.576 9.37196C153.067 10.8812 152.236 13.2027 152.236 15.9065C152.236 18.9086 153.145 21.5392 154.731 23.1235C155.935 24.329 157.49 24.9382 159.352 24.9382C162.199 24.9382 164.136 23.5406 165 22.2307L165.029 22.185H165.249V24.5266H168V0H165.119ZM165.119 16.2523C165.119 18.2866 164.423 20.1946 163.258 21.3599C162.402 22.2179 161.332 22.6533 160.077 22.6533C158.948 22.6533 157.968 22.2362 157.166 21.4148C155.752 19.9641 155.295 17.6737 155.331 16.1553C155.286 14.0131 155.891 12.1398 156.991 11.0147C157.788 10.2007 158.816 9.78723 160.044 9.78723C161.312 9.78723 162.396 10.2281 163.265 11.0971C164.444 12.2752 165.119 14.154 165.119 16.2523Z" fill="#007CC5"/>
<path d="M107.689 0V10.1879H107.466L107.436 10.1403C106.35 8.38775 104.506 7.50049 101.956 7.50049C100.005 7.50049 98.3864 8.1298 97.1461 9.37196C95.6368 10.8812 94.8044 13.2027 94.8044 15.9065C94.8044 18.9086 95.7155 21.5392 97.2997 23.1235C98.5035 24.329 100.058 24.9382 101.923 24.9382C104.767 24.9382 106.705 23.5406 107.568 22.2307L107.597 22.185H107.819V24.5266H110.568V0H107.689ZM107.689 16.2523C107.689 18.2866 106.992 20.1946 105.828 21.3599C104.97 22.2179 103.9 22.6533 102.647 22.6533C101.516 22.6533 100.538 22.2362 99.7365 21.4148C98.3224 19.9641 97.8632 17.6737 97.9016 16.1553C97.8559 14.0131 98.4596 12.1398 99.5609 11.0147C100.358 10.2007 101.385 9.78723 102.614 9.78723C103.882 9.78723 104.965 10.2281 105.834 11.0971C107.012 12.2752 107.689 14.154 107.689 16.2523Z" fill="#007CC5"/>
</svg>
