<svg width="308" height="87" viewBox="0 0 308 87" fill="none" xmlns="http://www.w3.org/2000/svg">
<path d="M9.46013 47.8841C14.6848 47.8841 18.9203 43.6487 18.9203 38.424C18.9203 33.1993 14.6848 28.9639 9.46013 28.9639C4.23544 28.9639 0 33.1993 0 38.424C0 43.6487 4.23544 47.8841 9.46013 47.8841Z" fill="#FFB511"/>
<path d="M33.1042 57.3568C38.3289 57.3568 42.5643 53.1213 42.5643 47.8967C42.5643 42.672 38.3289 38.4365 33.1042 38.4365C27.8795 38.4365 23.644 42.672 23.644 47.8967C23.644 53.1213 27.8795 57.3568 33.1042 57.3568Z" fill="#E74536"/>
<path d="M9.46014 71.5407C4.23722 71.5407 5.34207e-06 67.3035 5.34207e-06 62.0806L0 86.0055H18.9203L18.9203 62.0806C18.9203 67.3035 14.683 71.5407 9.46014 71.5407Z" fill="#FFB511"/>
<path d="M9.46013 71.5409C14.6848 71.5409 18.9203 67.3054 18.9203 62.0807C18.9203 56.856 14.6848 52.6206 9.46013 52.6206C4.23544 52.6206 0 56.856 0 62.0807C0 67.3054 4.23544 71.5409 9.46013 71.5409Z" fill="#FFB511"/>
<path d="M33.1042 62.0811C27.8813 62.0811 23.644 66.3183 23.644 71.5412V85.9636H42.5643V71.5412C42.5771 66.3183 38.3399 62.0811 33.1042 62.0811Z" fill="#2175D9"/>
<path d="M250.367 48.1517C255.592 48.1517 259.827 43.9162 259.827 38.6916C259.827 33.4669 255.592 29.2314 250.367 29.2314C245.142 29.2314 240.907 33.4669 240.907 38.6916C240.907 43.9162 245.142 48.1517 250.367 48.1517Z" fill="#FFB511"/>
<path d="M274.011 33.9681C279.236 33.9681 283.471 29.7327 283.471 24.508C283.471 19.2833 279.236 15.0479 274.011 15.0479C268.786 15.0479 264.551 19.2833 264.551 24.508C264.551 29.7327 268.786 33.9681 274.011 33.9681Z" fill="#E74536"/>
<path d="M297.668 19.7713C302.892 19.7713 307.128 15.5359 307.128 10.3112C307.128 5.08652 302.892 0.851074 297.668 0.851074C292.443 0.851074 288.208 5.08652 288.208 10.3112C288.208 15.5359 292.443 19.7713 297.668 19.7713Z" fill="#2175D9"/>
<path d="M250.367 71.8088C245.144 71.8088 240.907 67.5715 240.907 62.3486V86.0054H259.827V62.3486C259.827 67.5715 255.59 71.8088 250.367 71.8088Z" fill="#FFB511"/>
<path d="M274.011 38.6919C268.788 38.6919 264.551 42.9291 264.551 48.152V62.3486C264.551 57.1257 268.788 52.8885 274.011 52.8885C279.234 52.8885 283.471 57.1257 283.471 62.3486V48.152C283.484 42.9291 279.247 38.6919 274.011 38.6919Z" fill="#FFB511"/>
<path d="M297.668 24.5078C292.445 24.5078 288.208 28.745 288.208 33.9679V48.1645C288.208 42.9416 292.445 38.7044 297.668 38.7044C302.891 38.7044 307.128 42.9416 307.128 48.1645V33.9679C307.128 28.7322 302.891 24.5078 297.668 24.5078Z" fill="#E74536"/>
<path d="M250.367 71.8084C255.592 71.8084 259.827 67.573 259.827 62.3483C259.827 57.1236 255.592 52.8882 250.367 52.8882C245.142 52.8882 240.907 57.1236 240.907 62.3483C240.907 67.573 245.142 71.8084 250.367 71.8084Z" fill="#2175D9"/>
<path d="M274.011 52.8882C268.788 52.8882 264.551 57.1254 264.551 62.3483V86.005H283.471V62.3483C283.484 57.1254 279.247 52.8882 274.011 52.8882Z" fill="#2175D9"/>
<path d="M297.668 38.6919C292.445 38.6919 288.208 42.9291 288.208 48.152V86.0053H307.128V48.152C307.128 42.9291 302.891 38.6919 297.668 38.6919Z" fill="#FFB511"/>
</svg>
